<svg xmlns="http://www.w3.org/2000/svg" width="22" height="22" viewBox="0 0 22 22">
    <g fill="#FFF">
        <path d="M10.62 0c5.865 0 10.62 4.756 10.62 10.62 0 5.865-4.755 10.62-10.62 10.62C4.756 21.24 0 16.486 0 10.62 0 4.756 4.756 0 10.62 0zm.177 4.978H8.402c-1.884 0-3.424 1.535-3.424 3.41v3.975c0 1.87 1.54 3.402 3.424 3.402h3.934c1.884 0 3.413-1.532 3.424-3.402v-.516l.005-2.316c0-.236-.172-.432-.397-.473l-.087-.008h-.486c-.311 0-.63-.01-.767-.133-.192-.176-.22-.493-.279-.922-.108-.833-.177-.876-.308-1.157-.474-1.002-1.76-1.755-2.644-1.86z"/>
        <path d="M8.146 7.467h1.962c.375 0 .678.373.678.828 0 .455-.303.832-.678.832H8.146c-.375 0-.679-.377-.679-.832 0-.455.304-.828.679-.828zM11.817 13.275H8.1c-.349 0-.632-.378-.632-.83 0-.456.283-.829.632-.829h3.718c.346 0 .629.373.629.83 0 .451-.283.83-.629.83z"/>
    </g>
</svg>
