<svg xmlns="http://www.w3.org/2000/svg" width="22" height="22" viewBox="0 0 22 22">
    <g fill="#FFF">
        <path d="M12.653 10.62c0 1.123-.91 2.033-2.033 2.033-1.122 0-2.032-.91-2.032-2.033 0-1.122.91-2.032 2.032-2.032 1.123 0 2.033.91 2.033 2.032z"/>
        <path d="M15.374 7.024c-.097-.265-.253-.505-.456-.701-.197-.203-.436-.359-.701-.457-.215-.083-.538-.182-1.132-.21-.643-.029-.836-.035-2.465-.035-1.628 0-1.821.006-2.464.035-.595.028-.918.127-1.132.21-.265.098-.505.254-.701.457-.203.196-.359.436-.457.7-.083.216-.183.539-.21 1.133-.029.643-.035.836-.035 2.465 0 1.628.006 1.82.035 2.464.027.594.127.917.21 1.132.098.265.254.505.456.701.197.203.437.359.702.457.214.083.537.182 1.132.21.643.029.836.035 2.464.035 1.629 0 1.822-.006 2.465-.035.594-.028.917-.127 1.132-.21.532-.206.952-.626 1.157-1.158.084-.215.183-.538.21-1.132.03-.643.036-.836.036-2.464 0-1.629-.006-1.822-.036-2.465-.027-.594-.126-.917-.21-1.132zm-4.754 6.728c-1.73 0-3.131-1.402-3.131-3.132 0-1.73 1.402-3.131 3.131-3.131 1.73 0 3.132 1.402 3.132 3.131 0 1.73-1.402 3.132-3.132 3.132zm3.256-5.655c-.404 0-.732-.328-.732-.732 0-.404.328-.732.732-.732.404 0 .732.328.732.732 0 .404-.328.732-.732.732z"/>
        <path d="M10.62 0C4.756 0 0 4.756 0 10.62c0 5.865 4.756 10.62 10.62 10.62 5.865 0 10.62-4.755 10.62-10.62C21.24 4.756 16.486 0 10.62 0zm6.062 13.135c-.03.649-.133 1.092-.283 1.48-.317.82-.965 1.467-1.784 1.784-.388.15-.831.253-1.48.283-.65.03-.858.037-2.514.037-1.657 0-1.864-.007-2.515-.037-.649-.03-1.092-.133-1.48-.283-.407-.154-.776-.394-1.08-.704-.31-.304-.55-.673-.704-1.08-.15-.388-.254-.831-.283-1.48-.03-.65-.037-.858-.037-2.515 0-1.656.007-1.864.037-2.514.03-.65.132-1.092.283-1.48.153-.407.393-.776.704-1.08.304-.31.673-.55 1.08-.704.388-.15.83-.254 1.48-.283.65-.03.858-.037 2.514-.037 1.657 0 1.864.007 2.515.037.649.03 1.092.132 1.48.283.407.153.776.393 1.08.704.31.304.55.673.704 1.08.15.388.253.83.283 1.48.03.65.037.858.037 2.514 0 1.657-.007 1.864-.037 2.515z"/>
    </g>
</svg>
