<svg xmlns="http://www.w3.org/2000/svg" width="22" height="22" viewBox="0 0 22 22">
    <path fill="#FFF" d="M10.62 0C4.756 0 0 4.756 0 10.62c0 5.865 4.756 10.62 10.62 10.62 5.865 0 10.62-4.755 10.62-10.62C21.24 4.756 16.486 0 10.62 0zM7.534 16.055H4.948V8.273h2.586v7.782zM6.241 7.211h-.017c-.868 0-1.43-.598-1.43-1.344 0-.764.58-1.345 1.464-1.345.885 0 1.43.58 1.446 1.345 0 .746-.561 1.344-1.463 1.344zm10.62 8.844h-2.587v-4.163c0-1.046-.374-1.76-1.31-1.76-.714 0-1.14.482-1.327.946-.068.166-.085.399-.085.631v4.346H8.966s.033-7.052 0-7.782h2.586v1.102c.344-.53.959-1.284 2.331-1.284 1.702 0 2.978 1.112 2.978 3.502v4.462z"/>
</svg>
