<svg xmlns="http://www.w3.org/2000/svg" width="22" height="22" viewBox="0 0 22 22">
    <path fill="#FFF" d="M10.62 0C4.756 0 0 4.756 0 10.62c0 5.865 4.756 10.62 10.62 10.62 5.865 0 10.62-4.755 10.62-10.62C21.24 4.756 16.486 0 10.62 0zm4.85 8.28c.004.105.006.21.006.316 0 3.22-2.451 6.935-6.935 6.935-1.377 0-2.658-.403-3.737-1.095.191.023.385.034.582.034 1.142 0 2.193-.39 3.027-1.043-1.067-.02-1.967-.725-2.277-1.694.149.029.301.045.458.045.223 0 .438-.03.643-.086-1.115-.224-1.956-1.21-1.956-2.39v-.03c.33.182.705.292 1.105.304C5.73 9.139 5.3 8.393 5.3 7.546c0-.446.12-.864.33-1.224 1.202 1.475 2.999 2.445 5.025 2.547-.042-.179-.064-.365-.064-.556 0-1.346 1.092-2.438 2.438-2.438.701 0 1.335.297 1.78.77.555-.11 1.076-.312 1.548-.591-.183.569-.57 1.046-1.072 1.348.493-.059.963-.19 1.4-.384-.327.49-.74.919-1.217 1.263z"/>
</svg>
