<svg width="20" height="20" viewBox="0 0 20 20" fill="none" xmlns="http://www.w3.org/2000/svg">
<path d="M18.762 16.6299L15.354 13.2225C15.2002 13.0687 14.9917 12.9833 14.7729 12.9833H14.2158C15.1592 11.7768 15.7198 10.2594 15.7198 8.60868C15.7198 4.68182 12.5374 1.5 8.60989 1.5C4.68236 1.5 1.5 4.68182 1.5 8.60868C1.5 12.5355 4.68236 15.7174 8.60989 15.7174C10.2609 15.7174 11.7786 15.1569 12.9852 14.2136V14.7707C12.9852 14.9894 13.0707 15.1979 13.2245 15.3517L16.6325 18.7591C16.9538 19.0803 17.4733 19.0803 17.7912 18.7591L18.7586 17.7919C19.0799 17.4706 19.0799 16.9511 18.762 16.6299ZM8.60989 12.9833C6.19321 12.9833 4.23458 11.0284 4.23458 8.60868C4.23458 6.19241 6.1898 4.23411 8.60989 4.23411C11.0266 4.23411 12.9852 6.189 12.9852 8.60868C12.9852 11.0249 11.03 12.9833 8.60989 12.9833Z" fill="#1F7BE7"/>
</svg>
