<svg width="12" height="12" viewBox="0 0 12 12" fill="none" xmlns="http://www.w3.org/2000/svg">
<g opacity="0.99">
<path d="M5.1444 1.93059L0.9094 9.00059C0.822084 9.1518 0.775883 9.32324 0.775395 9.49785C0.774906 9.67246 0.820145 9.84416 0.906613 9.99585C0.993081 10.1476 1.11776 10.274 1.26825 10.3625C1.41875 10.4511 1.5898 10.4987 1.7644 10.5006H10.2344C10.409 10.4987 10.5801 10.4511 10.7305 10.3625C10.881 10.274 11.0057 10.1476 11.0922 9.99585C11.1787 9.84416 11.2239 9.67246 11.2234 9.49785C11.2229 9.32324 11.1767 9.1518 11.0894 9.00059L6.8544 1.93059C6.76526 1.78364 6.63976 1.66215 6.49 1.57783C6.34023 1.49351 6.17127 1.44922 5.9994 1.44922C5.82753 1.44922 5.65857 1.49351 5.5088 1.57783C5.35904 1.66215 5.23354 1.78364 5.1444 1.93059Z" fill="white" stroke="#FF9933" stroke-linecap="round" stroke-linejoin="round"/>
<path d="M6 4.5V6.5" stroke="#FF9933" stroke-linecap="round" stroke-linejoin="round"/>
<path d="M6 8.5H6.005" stroke="#FF9933" stroke-linecap="round" stroke-linejoin="round"/>
</g>
</svg>
