<svg width="220" height="30" viewBox="0 0 220 30" fill="none" xmlns="http://www.w3.org/2000/svg">
<rect x="0.5" y="0.5" width="219" height="29" rx="2.5" fill="white" stroke="#3366CC"/>
<path d="M43.942 19.084C45.118 19.084 46.056 18.72 46.756 17.978C47.456 17.236 47.806 16.228 47.806 14.954V9.06H46.588V14.87C46.588 15.822 46.336 16.564 45.846 17.11C45.356 17.67 44.726 17.936 43.942 17.936C43.13 17.936 42.5 17.656 42.024 17.096C41.548 16.536 41.31 15.794 41.31 14.87V9.06H40.092V14.954C40.092 16.242 40.442 17.264 41.142 17.992C41.842 18.72 42.78 19.084 43.942 19.084ZM50.2288 21.772H51.3628V17.824H51.3768C51.9088 18.664 52.7208 19.084 53.7988 19.084C54.7508 19.084 55.5348 18.776 56.1648 18.132C56.7948 17.488 57.1168 16.662 57.1168 15.64C57.1168 14.632 56.7948 13.778 56.1788 13.106C55.5488 12.434 54.7508 12.098 53.7988 12.098C52.7348 12.098 51.9228 12.532 51.3768 13.386H51.3628V12.182H50.2288V21.772ZM53.6448 18.048C52.9728 18.048 52.4268 17.824 51.9788 17.376C51.5308 16.928 51.3068 16.354 51.3068 15.64C51.3068 14.94 51.5168 14.338 51.9508 13.862C52.3848 13.386 52.9448 13.134 53.6308 13.134C54.2888 13.134 54.8488 13.372 55.2968 13.834C55.7448 14.31 55.9688 14.912 55.9688 15.64C55.9688 16.34 55.7448 16.914 55.3108 17.362C54.8768 17.824 54.3168 18.048 53.6448 18.048ZM59.1924 19H60.3264V8.696H59.1924V19ZM65.914 19.084C66.922 19.084 67.762 18.762 68.434 18.118C69.092 17.474 69.428 16.634 69.428 15.598C69.428 14.576 69.092 13.736 68.434 13.078C67.762 12.434 66.922 12.098 65.914 12.098C64.864 12.098 64.01 12.434 63.366 13.106C62.708 13.778 62.386 14.604 62.386 15.598C62.386 16.606 62.708 17.432 63.366 18.09C64.01 18.762 64.864 19.084 65.914 19.084ZM65.914 18.048C65.214 18.048 64.654 17.824 64.206 17.348C63.758 16.872 63.548 16.298 63.548 15.598C63.548 14.912 63.758 14.324 64.206 13.848C64.64 13.372 65.214 13.134 65.914 13.134C66.572 13.134 67.132 13.372 67.58 13.834C68.028 14.296 68.266 14.884 68.266 15.598C68.266 16.326 68.028 16.914 67.58 17.362C67.132 17.824 66.572 18.048 65.914 18.048ZM74.2688 19.084C75.3608 19.084 76.1728 18.65 76.7048 17.768H76.7188V19H77.8108V12.182H76.6768V13.386L76.6488 13.4C76.3968 12.994 76.0748 12.672 75.6548 12.448C75.2348 12.224 74.7728 12.098 74.2688 12.098C73.3028 12.098 72.5048 12.434 71.8888 13.106C71.2588 13.778 70.9508 14.632 70.9508 15.64C70.9508 16.662 71.2588 17.488 71.8888 18.132C72.5188 18.776 73.3168 19.084 74.2688 19.084ZM74.4368 18.048C73.7368 18.048 73.1768 17.824 72.7428 17.362C72.3088 16.914 72.0988 16.34 72.0988 15.64C72.0988 14.912 72.3228 14.31 72.7708 13.834C73.2188 13.372 73.7648 13.134 74.4368 13.134C75.0948 13.134 75.6408 13.386 76.0748 13.862C76.4948 14.338 76.7188 14.94 76.7188 15.64C76.7188 16.354 76.4948 16.928 76.0608 17.376C75.6128 17.824 75.0808 18.048 74.4368 18.048ZM83.0261 19.084C84.1321 19.084 84.9581 18.636 85.4901 17.74H85.5041V19H86.5961V8.696H85.4621V13.4H85.4481C84.9021 12.532 84.0901 12.098 83.0121 12.098C82.0601 12.098 81.2621 12.448 80.6321 13.12C79.9881 13.792 79.6801 14.632 79.6801 15.64C79.6801 16.662 79.9881 17.488 80.6321 18.132C81.2621 18.776 82.0601 19.084 83.0261 19.084ZM83.1801 18.048C82.4801 18.048 81.9201 17.824 81.4861 17.362C81.0521 16.914 80.8421 16.34 80.8421 15.64C80.8421 14.912 81.0661 14.31 81.5141 13.834C81.9621 13.372 82.5221 13.134 83.1941 13.134C83.8661 13.134 84.4121 13.386 84.8461 13.862C85.2801 14.338 85.5041 14.94 85.5041 15.64C85.5041 16.354 85.2801 16.928 84.8321 17.376C84.3841 17.824 83.8241 18.048 83.1801 18.048ZM93.2565 19H96.8825C97.9745 19 98.8005 18.762 99.3605 18.272C99.9205 17.782 100.2 17.124 100.2 16.298C100.2 15.612 100.004 15.052 99.6265 14.618C99.2345 14.184 98.7445 13.904 98.1285 13.778V13.75C98.6325 13.582 99.0245 13.288 99.3045 12.868C99.5705 12.448 99.7105 11.986 99.7105 11.482C99.7105 10.67 99.4165 10.054 98.8565 9.662C98.2965 9.27 97.5125 9.06 96.5045 9.06H93.2565V19ZM94.4745 13.344V10.166L96.3785 10.152C97.7645 10.152 98.4645 10.684 98.4645 11.72C98.4645 12.28 98.2825 12.7 97.9185 12.952C97.5545 13.218 97.0785 13.344 96.5185 13.344H94.4745ZM94.4745 17.894V14.408H96.5885C97.3445 14.408 97.9185 14.576 98.3245 14.884C98.7165 15.192 98.9265 15.64 98.9265 16.2C98.9265 16.76 98.7305 17.194 98.3525 17.474C97.9605 17.754 97.4425 17.894 96.7705 17.894H94.4745ZM105.349 19.084C106.357 19.084 107.197 18.762 107.869 18.118C108.527 17.474 108.863 16.634 108.863 15.598C108.863 14.576 108.527 13.736 107.869 13.078C107.197 12.434 106.357 12.098 105.349 12.098C104.299 12.098 103.445 12.434 102.801 13.106C102.143 13.778 101.821 14.604 101.821 15.598C101.821 16.606 102.143 17.432 102.801 18.09C103.445 18.762 104.299 19.084 105.349 19.084ZM105.349 18.048C104.649 18.048 104.089 17.824 103.641 17.348C103.193 16.872 102.983 16.298 102.983 15.598C102.983 14.912 103.193 14.324 103.641 13.848C104.075 13.372 104.649 13.134 105.349 13.134C106.007 13.134 106.567 13.372 107.015 13.834C107.463 14.296 107.701 14.884 107.701 15.598C107.701 16.326 107.463 16.914 107.015 17.362C106.567 17.824 106.007 18.048 105.349 18.048ZM113.704 19.084C114.796 19.084 115.608 18.65 116.14 17.768H116.154V19H117.246V12.182H116.112V13.386L116.084 13.4C115.832 12.994 115.51 12.672 115.09 12.448C114.67 12.224 114.208 12.098 113.704 12.098C112.738 12.098 111.94 12.434 111.324 13.106C110.694 13.778 110.386 14.632 110.386 15.64C110.386 16.662 110.694 17.488 111.324 18.132C111.954 18.776 112.752 19.084 113.704 19.084ZM113.872 18.048C113.172 18.048 112.612 17.824 112.178 17.362C111.744 16.914 111.534 16.34 111.534 15.64C111.534 14.912 111.758 14.31 112.206 13.834C112.654 13.372 113.2 13.134 113.872 13.134C114.53 13.134 115.076 13.386 115.51 13.862C115.93 14.338 116.154 14.94 116.154 15.64C116.154 16.354 115.93 16.928 115.496 17.376C115.048 17.824 114.516 18.048 113.872 18.048ZM119.563 19H120.697V15.71C120.697 15.01 120.879 14.45 121.257 14.002C121.621 13.568 122.125 13.344 122.769 13.344C122.839 13.344 122.993 13.358 123.217 13.372V12.112C123.147 12.112 123.049 12.098 122.937 12.098C121.985 12.098 121.243 12.546 120.725 13.428H120.697V12.182H119.563V19ZM127.472 19.084C128.578 19.084 129.404 18.636 129.936 17.74H129.95V19H131.042V8.696H129.908V13.4H129.894C129.348 12.532 128.536 12.098 127.458 12.098C126.506 12.098 125.708 12.448 125.078 13.12C124.434 13.792 124.126 14.632 124.126 15.64C124.126 16.662 124.434 17.488 125.078 18.132C125.708 18.776 126.506 19.084 127.472 19.084ZM127.626 18.048C126.926 18.048 126.366 17.824 125.932 17.362C125.498 16.914 125.288 16.34 125.288 15.64C125.288 14.912 125.512 14.31 125.96 13.834C126.408 13.372 126.968 13.134 127.64 13.134C128.312 13.134 128.858 13.386 129.292 13.862C129.726 14.338 129.95 14.94 129.95 15.64C129.95 16.354 129.726 16.928 129.278 17.376C128.83 17.824 128.27 18.048 127.626 18.048ZM137.702 19H138.92V15.206H140.698L143.33 19H144.786L142.042 15.094C143.694 14.758 144.52 13.778 144.52 12.14C144.52 11.216 144.24 10.46 143.694 9.9C143.148 9.34 142.322 9.06 141.23 9.06H137.702V19ZM138.92 14.1V10.166H141.062C141.748 10.166 142.28 10.334 142.672 10.67C143.064 11.006 143.26 11.496 143.26 12.112C143.26 12.728 143.064 13.204 142.672 13.568C142.28 13.932 141.678 14.1 140.894 14.1H138.92ZM152.735 15.472C152.735 14.492 152.441 13.694 151.853 13.05C151.265 12.42 150.523 12.098 149.599 12.098C148.619 12.098 147.807 12.434 147.177 13.078C146.547 13.736 146.239 14.576 146.239 15.598C146.239 16.634 146.547 17.474 147.191 18.118C147.835 18.762 148.661 19.084 149.683 19.084C150.887 19.084 151.825 18.664 152.497 17.81L151.699 17.138C151.195 17.754 150.537 18.048 149.725 18.048C149.081 18.048 148.549 17.866 148.129 17.474C147.709 17.096 147.457 16.578 147.387 15.934H152.707C152.707 15.92 152.707 15.85 152.721 15.738C152.721 15.626 152.735 15.542 152.735 15.472ZM149.585 13.134C150.131 13.134 150.579 13.316 150.943 13.652C151.293 13.988 151.517 14.45 151.601 15.01H147.415C147.513 14.436 147.765 13.974 148.157 13.638C148.549 13.302 149.025 13.134 149.585 13.134ZM156.736 19.084C157.52 19.084 158.122 18.902 158.542 18.538C158.962 18.174 159.186 17.698 159.186 17.138C159.186 16.522 158.948 16.046 158.458 15.71C158.234 15.584 157.688 15.346 156.806 14.996C156.372 14.842 156.05 14.688 155.84 14.534C155.616 14.38 155.518 14.184 155.518 13.932C155.518 13.68 155.616 13.484 155.826 13.33C156.036 13.19 156.288 13.106 156.568 13.106C157.24 13.106 157.842 13.358 158.374 13.834L158.962 12.938C158.262 12.378 157.478 12.098 156.61 12.098C155.966 12.098 155.42 12.28 155 12.63C154.58 12.98 154.37 13.414 154.37 13.932C154.37 14.24 154.412 14.506 154.524 14.73C154.622 14.954 154.776 15.15 154.986 15.304C155.196 15.472 155.406 15.598 155.616 15.696C155.812 15.808 156.078 15.906 156.414 16.018C156.96 16.228 157.296 16.354 157.408 16.396C157.828 16.592 158.038 16.844 158.038 17.152C158.038 17.432 157.912 17.656 157.688 17.824C157.45 17.992 157.128 18.076 156.736 18.076C155.91 18.076 155.21 17.81 154.65 17.25L154.076 18.118C154.804 18.762 155.7 19.084 156.736 19.084ZM164.163 19.084C165.171 19.084 166.011 18.762 166.683 18.118C167.341 17.474 167.677 16.634 167.677 15.598C167.677 14.576 167.341 13.736 166.683 13.078C166.011 12.434 165.171 12.098 164.163 12.098C163.113 12.098 162.259 12.434 161.615 13.106C160.957 13.778 160.635 14.604 160.635 15.598C160.635 16.606 160.957 17.432 161.615 18.09C162.259 18.762 163.113 19.084 164.163 19.084ZM164.163 18.048C163.463 18.048 162.903 17.824 162.455 17.348C162.007 16.872 161.797 16.298 161.797 15.598C161.797 14.912 162.007 14.324 162.455 13.848C162.889 13.372 163.463 13.134 164.163 13.134C164.821 13.134 165.381 13.372 165.829 13.834C166.277 14.296 166.515 14.884 166.515 15.598C166.515 16.326 166.277 16.914 165.829 17.362C165.381 17.824 164.821 18.048 164.163 18.048ZM169.732 19H170.866V8.696H169.732V19ZM175.768 19.084C176.216 19.084 176.65 18.986 177.042 18.762C177.434 18.538 177.77 18.23 178.022 17.824H178.036V19H179.17V12.182H178.036V15.486C178.036 16.27 177.84 16.9 177.448 17.362C177.056 17.824 176.566 18.048 176.006 18.048C175.446 18.048 175.026 17.88 174.746 17.544C174.466 17.208 174.34 16.676 174.34 15.92V12.182H173.206V16.242C173.206 17.194 173.43 17.908 173.878 18.384C174.326 18.86 174.956 19.084 175.768 19.084ZM183.419 19.084C184.035 19.084 184.595 18.944 185.071 18.664L184.777 17.67C184.343 17.908 183.951 18.02 183.615 18.02C183.307 18.02 183.083 17.936 182.971 17.74C182.845 17.544 182.789 17.236 182.789 16.802V13.162H185.043V12.182H182.789V9.732L181.655 9.858V12.182H180.773V13.162H181.655V16.97C181.655 18.384 182.243 19.084 183.419 19.084ZM187.457 10.936C187.681 10.936 187.877 10.866 188.045 10.698C188.199 10.544 188.283 10.348 188.283 10.124C188.283 9.9 188.199 9.718 188.045 9.55C187.877 9.396 187.681 9.312 187.457 9.312C187.219 9.312 187.023 9.396 186.869 9.55C186.701 9.718 186.631 9.9 186.631 10.124C186.631 10.348 186.701 10.544 186.869 10.698C187.023 10.866 187.219 10.936 187.457 10.936ZM186.883 19H188.017V12.182H186.883V19ZM193.604 19.084C194.612 19.084 195.452 18.762 196.124 18.118C196.782 17.474 197.118 16.634 197.118 15.598C197.118 14.576 196.782 13.736 196.124 13.078C195.452 12.434 194.612 12.098 193.604 12.098C192.554 12.098 191.7 12.434 191.056 13.106C190.398 13.778 190.076 14.604 190.076 15.598C190.076 16.606 190.398 17.432 191.056 18.09C191.7 18.762 192.554 19.084 193.604 19.084ZM193.604 18.048C192.904 18.048 192.344 17.824 191.896 17.348C191.448 16.872 191.238 16.298 191.238 15.598C191.238 14.912 191.448 14.324 191.896 13.848C192.33 13.372 192.904 13.134 193.604 13.134C194.262 13.134 194.822 13.372 195.27 13.834C195.718 14.296 195.956 14.884 195.956 15.598C195.956 16.326 195.718 16.914 195.27 17.362C194.822 17.824 194.262 18.048 193.604 18.048ZM199.089 19H200.223V15.598C200.223 14.842 200.405 14.24 200.797 13.792C201.175 13.358 201.693 13.134 202.351 13.134C203.471 13.134 204.031 13.848 204.031 15.276V19H205.165V14.954C205.165 14.016 204.941 13.302 204.507 12.826C204.059 12.35 203.471 12.098 202.715 12.098C201.623 12.098 200.797 12.546 200.237 13.414H200.223V12.182H199.089V19Z" fill="#3366CC"/>
<path d="M25.6654 6.66797H18.9987C18.5567 6.66797 18.1327 6.84356 17.8202 7.15612C17.5076 7.46868 17.332 7.89261 17.332 8.33464V21.668C17.332 22.11 17.5076 22.5339 17.8202 22.8465C18.1327 23.159 18.5567 23.3346 18.9987 23.3346H28.9987C29.4407 23.3346 29.8646 23.159 30.1772 22.8465C30.4898 22.5339 30.6654 22.11 30.6654 21.668V11.668L25.6654 6.66797Z" stroke="#3366CC" stroke-linecap="round" stroke-linejoin="round"/>
<path d="M25.668 6.66797V11.668H30.668" stroke="#3366CC" stroke-linecap="round" stroke-linejoin="round"/>
<path d="M24 20V15" stroke="#3366CC" stroke-linecap="round" stroke-linejoin="round"/>
<path d="M21.5 17.5H26.5" stroke="#3366CC" stroke-linecap="round" stroke-linejoin="round"/>
</svg>
