<svg width="200" height="40" viewBox="0 0 200 40" fill="none" xmlns="http://www.w3.org/2000/svg">
<rect x="0.5" y="0.5" width="199" height="39" rx="4.5" fill="white" stroke="#3366CC"/>
<path d="M36.6449 26.108C38.1569 26.108 39.3629 25.64 40.2629 24.686C41.1629 23.732 41.6129 22.436 41.6129 20.798V13.22H40.0469V20.69C40.0469 21.914 39.7229 22.868 39.0929 23.57C38.4629 24.29 37.6529 24.632 36.6449 24.632C35.6009 24.632 34.7909 24.272 34.1789 23.552C33.5669 22.832 33.2609 21.878 33.2609 20.69V13.22H31.6949V20.798C31.6949 22.454 32.1449 23.768 33.0449 24.704C33.9449 25.64 35.1509 26.108 36.6449 26.108ZM44.7278 29.564H46.1858V24.488H46.2038C46.8878 25.568 47.9318 26.108 49.3178 26.108C50.5418 26.108 51.5498 25.712 52.3598 24.884C53.1698 24.056 53.5838 22.994 53.5838 21.68C53.5838 20.384 53.1698 19.286 52.3778 18.422C51.5678 17.558 50.5418 17.126 49.3178 17.126C47.9498 17.126 46.9058 17.684 46.2038 18.782H46.1858V17.234H44.7278V29.564ZM49.1198 24.776C48.2558 24.776 47.5538 24.488 46.9778 23.912C46.4018 23.336 46.1138 22.598 46.1138 21.68C46.1138 20.78 46.3838 20.006 46.9418 19.394C47.4998 18.782 48.2198 18.458 49.1018 18.458C49.9478 18.458 50.6678 18.764 51.2438 19.358C51.8198 19.97 52.1078 20.744 52.1078 21.68C52.1078 22.58 51.8198 23.318 51.2618 23.894C50.7038 24.488 49.9838 24.776 49.1198 24.776ZM56.2525 26H57.7105V12.752H56.2525V26ZM64.8946 26.108C66.1906 26.108 67.2706 25.694 68.1346 24.866C68.9806 24.038 69.4126 22.958 69.4126 21.626C69.4126 20.312 68.9806 19.232 68.1346 18.386C67.2706 17.558 66.1906 17.126 64.8946 17.126C63.5446 17.126 62.4466 17.558 61.6186 18.422C60.7726 19.286 60.3586 20.348 60.3586 21.626C60.3586 22.922 60.7726 23.984 61.6186 24.83C62.4466 25.694 63.5446 26.108 64.8946 26.108ZM64.8946 24.776C63.9946 24.776 63.2746 24.488 62.6986 23.876C62.1226 23.264 61.8526 22.526 61.8526 21.626C61.8526 20.744 62.1226 19.988 62.6986 19.376C63.2566 18.764 63.9946 18.458 64.8946 18.458C65.7406 18.458 66.4606 18.764 67.0366 19.358C67.6126 19.952 67.9186 20.708 67.9186 21.626C67.9186 22.562 67.6126 23.318 67.0366 23.894C66.4606 24.488 65.7406 24.776 64.8946 24.776ZM75.6365 26.108C77.0405 26.108 78.0845 25.55 78.7685 24.416H78.7865V26H80.1905V17.234H78.7325V18.782L78.6965 18.8C78.3725 18.278 77.9585 17.864 77.4185 17.576C76.8785 17.288 76.2845 17.126 75.6365 17.126C74.3945 17.126 73.3685 17.558 72.5765 18.422C71.7665 19.286 71.3705 20.384 71.3705 21.68C71.3705 22.994 71.7665 24.056 72.5765 24.884C73.3865 25.712 74.4125 26.108 75.6365 26.108ZM75.8525 24.776C74.9525 24.776 74.2325 24.488 73.6745 23.894C73.1165 23.318 72.8465 22.58 72.8465 21.68C72.8465 20.744 73.1345 19.97 73.7105 19.358C74.2865 18.764 74.9885 18.458 75.8525 18.458C76.6985 18.458 77.4005 18.782 77.9585 19.394C78.4985 20.006 78.7865 20.78 78.7865 21.68C78.7865 22.598 78.4985 23.336 77.9405 23.912C77.3645 24.488 76.6805 24.776 75.8525 24.776ZM86.8958 26.108C88.3178 26.108 89.3798 25.532 90.0638 24.38H90.0818V26H91.4858V12.752H90.0278V18.8H90.0098C89.3078 17.684 88.2638 17.126 86.8778 17.126C85.6538 17.126 84.6278 17.576 83.8178 18.44C82.9898 19.304 82.5938 20.384 82.5938 21.68C82.5938 22.994 82.9898 24.056 83.8178 24.884C84.6278 25.712 85.6538 26.108 86.8958 26.108ZM87.0938 24.776C86.1938 24.776 85.4738 24.488 84.9158 23.894C84.3578 23.318 84.0878 22.58 84.0878 21.68C84.0878 20.744 84.3758 19.97 84.9518 19.358C85.5278 18.764 86.2478 18.458 87.1118 18.458C87.9758 18.458 88.6778 18.782 89.2358 19.394C89.7938 20.006 90.0818 20.78 90.0818 21.68C90.0818 22.598 89.7938 23.336 89.2178 23.912C88.6418 24.488 87.9218 24.776 87.0938 24.776ZM100.049 26H104.711C106.115 26 107.177 25.694 107.897 25.064C108.617 24.434 108.977 23.588 108.977 22.526C108.977 21.644 108.725 20.924 108.239 20.366C107.735 19.808 107.105 19.448 106.313 19.286V19.25C106.961 19.034 107.465 18.656 107.825 18.116C108.167 17.576 108.347 16.982 108.347 16.334C108.347 15.29 107.969 14.498 107.249 13.994C106.529 13.49 105.521 13.22 104.225 13.22H100.049V26ZM101.615 18.728V14.642L104.063 14.624C105.845 14.624 106.745 15.308 106.745 16.64C106.745 17.36 106.511 17.9 106.043 18.224C105.575 18.566 104.963 18.728 104.243 18.728H101.615ZM101.615 24.578V20.096H104.333C105.305 20.096 106.043 20.312 106.565 20.708C107.069 21.104 107.339 21.68 107.339 22.4C107.339 23.12 107.087 23.678 106.601 24.038C106.097 24.398 105.431 24.578 104.567 24.578H101.615ZM112.561 29.564H114.073L119.041 17.234H117.511L114.865 23.894H114.829L111.985 17.234H110.401L114.127 25.658L112.561 29.564ZM120.566 21.176H125.894V19.736H120.566V21.176ZM128.832 26H136.716V24.578H130.398V13.22H128.832V26ZM142.686 26.108C144.09 26.108 145.134 25.55 145.818 24.416H145.836V26H147.24V17.234H145.782V18.782L145.746 18.8C145.422 18.278 145.008 17.864 144.468 17.576C143.928 17.288 143.334 17.126 142.686 17.126C141.444 17.126 140.418 17.558 139.626 18.422C138.816 19.286 138.42 20.384 138.42 21.68C138.42 22.994 138.816 24.056 139.626 24.884C140.436 25.712 141.462 26.108 142.686 26.108ZM142.902 24.776C142.002 24.776 141.282 24.488 140.724 23.894C140.166 23.318 139.896 22.58 139.896 21.68C139.896 20.744 140.184 19.97 140.76 19.358C141.336 18.764 142.038 18.458 142.902 18.458C143.748 18.458 144.45 18.782 145.008 19.394C145.548 20.006 145.836 20.78 145.836 21.68C145.836 22.598 145.548 23.336 144.99 23.912C144.414 24.488 143.73 24.776 142.902 24.776ZM152.361 26H153.693L155.709 19.574H155.727L157.743 26H159.111L162.135 17.234H160.641L158.445 23.822H158.409L156.357 17.234H155.097L153.081 23.822H153.045L150.831 17.234H149.337L152.361 26ZM166.866 26.108C167.874 26.108 168.648 25.874 169.188 25.406C169.728 24.938 170.016 24.326 170.016 23.606C170.016 22.814 169.71 22.202 169.08 21.77C168.792 21.608 168.09 21.302 166.956 20.852C166.398 20.654 165.984 20.456 165.714 20.258C165.426 20.06 165.3 19.808 165.3 19.484C165.3 19.16 165.426 18.908 165.696 18.71C165.966 18.53 166.29 18.422 166.65 18.422C167.514 18.422 168.288 18.746 168.972 19.358L169.728 18.206C168.828 17.486 167.82 17.126 166.704 17.126C165.876 17.126 165.174 17.36 164.634 17.81C164.094 18.26 163.824 18.818 163.824 19.484C163.824 19.88 163.878 20.222 164.022 20.51C164.148 20.798 164.346 21.05 164.616 21.248C164.886 21.464 165.156 21.626 165.426 21.752C165.678 21.896 166.02 22.022 166.452 22.166C167.154 22.436 167.586 22.598 167.73 22.652C168.27 22.904 168.54 23.228 168.54 23.624C168.54 23.984 168.378 24.272 168.09 24.488C167.784 24.704 167.37 24.812 166.866 24.812C165.804 24.812 164.904 24.47 164.184 23.75L163.446 24.866C164.382 25.694 165.534 26.108 166.866 26.108Z" fill="#3366CC"/>
</svg>
