<svg width="122" height="27" viewBox="0 0 122 27" fill="none" xmlns="http://www.w3.org/2000/svg">
<rect x="0.5" y="0.5" width="121" height="26" rx="1.5" fill="white" stroke="#3366CC"/>
<path d="M34.8791 18.07C36.4471 18.07 37.7491 17.454 38.7571 16.194L37.8471 15.424C37.0491 16.432 36.0551 16.922 34.8791 16.922C33.8011 16.922 32.9191 16.572 32.2331 15.872C31.5331 15.172 31.1971 14.234 31.1971 13.058C31.1971 11.91 31.5191 10.958 32.1911 10.23C32.8631 9.502 33.7451 9.124 34.8651 9.124C36.0411 9.124 37.0211 9.628 37.8331 10.622L38.7431 9.866C37.7071 8.606 36.4051 7.962 34.8651 7.962C33.3251 7.962 32.1071 8.452 31.2391 9.418C30.3571 10.384 29.9231 11.602 29.9231 13.058C29.9231 14.626 30.3851 15.858 31.3371 16.74C32.2891 17.636 33.4651 18.07 34.8791 18.07ZM43.47 18.084C44.562 18.084 45.374 17.65 45.906 16.768H45.92V18H47.012V11.182H45.878V12.386L45.85 12.4C45.598 11.994 45.276 11.672 44.856 11.448C44.436 11.224 43.974 11.098 43.47 11.098C42.504 11.098 41.706 11.434 41.09 12.106C40.46 12.778 40.152 13.632 40.152 14.64C40.152 15.662 40.46 16.488 41.09 17.132C41.72 17.776 42.518 18.084 43.47 18.084ZM43.638 17.048C42.938 17.048 42.378 16.824 41.944 16.362C41.51 15.914 41.3 15.34 41.3 14.64C41.3 13.912 41.524 13.31 41.972 12.834C42.42 12.372 42.966 12.134 43.638 12.134C44.296 12.134 44.842 12.386 45.276 12.862C45.696 13.338 45.92 13.94 45.92 14.64C45.92 15.354 45.696 15.928 45.262 16.376C44.814 16.824 44.282 17.048 43.638 17.048ZM49.4132 18H50.5472V7.696H49.4132V18ZM56.0088 18.084C57.2128 18.084 58.1508 17.692 58.8228 16.894L58.0388 16.18C57.5628 16.768 56.9188 17.048 56.0928 17.048C55.3928 17.048 54.8328 16.824 54.4128 16.376C53.9788 15.928 53.7688 15.326 53.7688 14.598C53.7688 13.87 53.9788 13.282 54.4128 12.82C54.8328 12.372 55.4068 12.134 56.1068 12.134C56.8908 12.134 57.5208 12.428 58.0248 13.002L58.7948 12.316C58.4588 11.924 58.0528 11.63 57.5628 11.42C57.0728 11.21 56.5688 11.098 56.0508 11.098C55.0288 11.098 54.2028 11.434 53.5588 12.078C52.9148 12.736 52.6068 13.576 52.6068 14.598C52.6068 15.634 52.9148 16.474 53.5588 17.118C54.1888 17.762 55.0008 18.084 56.0088 18.084ZM63.0296 18.084C63.4776 18.084 63.9116 17.986 64.3036 17.762C64.6956 17.538 65.0316 17.23 65.2836 16.824H65.2976V18H66.4316V11.182H65.2976V14.486C65.2976 15.27 65.1016 15.9 64.7096 16.362C64.3176 16.824 63.8276 17.048 63.2676 17.048C62.7076 17.048 62.2876 16.88 62.0076 16.544C61.7276 16.208 61.6016 15.676 61.6016 14.92V11.182H60.4676V15.242C60.4676 16.194 60.6916 16.908 61.1396 17.384C61.5876 17.86 62.2176 18.084 63.0296 18.084ZM68.8469 18H69.9809V7.696H68.8469V18ZM75.3446 18.084C76.4366 18.084 77.2486 17.65 77.7806 16.768H77.7946V18H78.8866V11.182H77.7526V12.386L77.7246 12.4C77.4726 11.994 77.1506 11.672 76.7306 11.448C76.3106 11.224 75.8486 11.098 75.3446 11.098C74.3786 11.098 73.5806 11.434 72.9646 12.106C72.3346 12.778 72.0266 13.632 72.0266 14.64C72.0266 15.662 72.3346 16.488 72.9646 17.132C73.5946 17.776 74.3926 18.084 75.3446 18.084ZM75.5126 17.048C74.8126 17.048 74.2526 16.824 73.8186 16.362C73.3846 15.914 73.1746 15.34 73.1746 14.64C73.1746 13.912 73.3986 13.31 73.8466 12.834C74.2946 12.372 74.8406 12.134 75.5126 12.134C76.1706 12.134 76.7166 12.386 77.1506 12.862C77.5706 13.338 77.7946 13.94 77.7946 14.64C77.7946 15.354 77.5706 15.928 77.1366 16.376C76.6886 16.824 76.1566 17.048 75.5126 17.048ZM83.1218 18.084C83.7378 18.084 84.2978 17.944 84.7738 17.664L84.4798 16.67C84.0458 16.908 83.6538 17.02 83.3178 17.02C83.0098 17.02 82.7858 16.936 82.6738 16.74C82.5478 16.544 82.4918 16.236 82.4918 15.802V12.162H84.7458V11.182H82.4918V8.732L81.3578 8.858V11.182H80.4758V12.162H81.3578V15.97C81.3578 17.384 81.9458 18.084 83.1218 18.084ZM92.2763 14.472C92.2763 13.492 91.9823 12.694 91.3943 12.05C90.8063 11.42 90.0643 11.098 89.1403 11.098C88.1603 11.098 87.3483 11.434 86.7183 12.078C86.0883 12.736 85.7803 13.576 85.7803 14.598C85.7803 15.634 86.0883 16.474 86.7323 17.118C87.3763 17.762 88.2023 18.084 89.2243 18.084C90.4283 18.084 91.3663 17.664 92.0383 16.81L91.2403 16.138C90.7363 16.754 90.0783 17.048 89.2663 17.048C88.6223 17.048 88.0903 16.866 87.6703 16.474C87.2503 16.096 86.9983 15.578 86.9283 14.934H92.2483C92.2483 14.92 92.2483 14.85 92.2623 14.738C92.2623 14.626 92.2763 14.542 92.2763 14.472ZM89.1263 12.134C89.6723 12.134 90.1203 12.316 90.4843 12.652C90.8343 12.988 91.0583 13.45 91.1423 14.01H86.9563C87.0543 13.436 87.3063 12.974 87.6983 12.638C88.0903 12.302 88.5663 12.134 89.1263 12.134Z" fill="#3366CC"/>
</svg>
