<svg width="120" height="40" viewBox="0 0 120 40" fill="none" xmlns="http://www.w3.org/2000/svg">
<mask id="path-1-inside-1_4925_8505" fill="white">
<path d="M0 0H120V40H0V0Z"/>
</mask>
<path d="M0 0H120V40H0V0Z" fill="white"/>
<path d="M23.7203 23.072C24.7283 23.072 25.5323 22.76 26.1323 22.124C26.7323 21.488 27.0323 20.624 27.0323 19.532V14.48H25.9883V19.46C25.9883 20.276 25.7723 20.912 25.3523 21.38C24.9323 21.86 24.3923 22.088 23.7203 22.088C23.0243 22.088 22.4843 21.848 22.0763 21.368C21.6683 20.888 21.4643 20.252 21.4643 19.46V14.48H20.4203V19.532C20.4203 20.636 20.7203 21.512 21.3203 22.136C21.9203 22.76 22.7243 23.072 23.7203 23.072ZM28.869 25.376H29.841V21.992H29.853C30.309 22.712 31.005 23.072 31.929 23.072C32.745 23.072 33.417 22.808 33.957 22.256C34.497 21.704 34.773 20.996 34.773 20.12C34.773 19.256 34.497 18.524 33.969 17.948C33.429 17.372 32.745 17.084 31.929 17.084C31.017 17.084 30.321 17.456 29.853 18.188H29.841V17.156H28.869V25.376ZM31.797 22.184C31.221 22.184 30.753 21.992 30.369 21.608C29.985 21.224 29.793 20.732 29.793 20.12C29.793 19.52 29.973 19.004 30.345 18.596C30.717 18.188 31.197 17.972 31.785 17.972C32.349 17.972 32.829 18.176 33.213 18.572C33.597 18.98 33.789 19.496 33.789 20.12C33.789 20.72 33.597 21.212 33.225 21.596C32.853 21.992 32.373 22.184 31.797 22.184ZM36.312 23H37.284V14.168H36.312V23ZM41.8335 23.072C42.6975 23.072 43.4175 22.796 43.9935 22.244C44.5575 21.692 44.8455 20.972 44.8455 20.084C44.8455 19.208 44.5575 18.488 43.9935 17.924C43.4175 17.372 42.6975 17.084 41.8335 17.084C40.9335 17.084 40.2015 17.372 39.6495 17.948C39.0855 18.524 38.8095 19.232 38.8095 20.084C38.8095 20.948 39.0855 21.656 39.6495 22.22C40.2015 22.796 40.9335 23.072 41.8335 23.072ZM41.8335 22.184C41.2335 22.184 40.7535 21.992 40.3695 21.584C39.9855 21.176 39.8055 20.684 39.8055 20.084C39.8055 19.496 39.9855 18.992 40.3695 18.584C40.7415 18.176 41.2335 17.972 41.8335 17.972C42.3975 17.972 42.8775 18.176 43.2615 18.572C43.6455 18.968 43.8495 19.472 43.8495 20.084C43.8495 20.708 43.6455 21.212 43.2615 21.596C42.8775 21.992 42.3975 22.184 41.8335 22.184ZM48.7547 23.072C49.6907 23.072 50.3867 22.7 50.8427 21.944H50.8547V23H51.7907V17.156H50.8187V18.188L50.7947 18.2C50.5787 17.852 50.3027 17.576 49.9427 17.384C49.5827 17.192 49.1867 17.084 48.7547 17.084C47.9267 17.084 47.2427 17.372 46.7147 17.948C46.1747 18.524 45.9107 19.256 45.9107 20.12C45.9107 20.996 46.1747 21.704 46.7147 22.256C47.2547 22.808 47.9387 23.072 48.7547 23.072ZM48.8987 22.184C48.2987 22.184 47.8187 21.992 47.4467 21.596C47.0747 21.212 46.8947 20.72 46.8947 20.12C46.8947 19.496 47.0867 18.98 47.4707 18.572C47.8547 18.176 48.3227 17.972 48.8987 17.972C49.4627 17.972 49.9307 18.188 50.3027 18.596C50.6627 19.004 50.8547 19.52 50.8547 20.12C50.8547 20.732 50.6627 21.224 50.2907 21.608C49.9067 21.992 49.4507 22.184 48.8987 22.184ZM56.0209 23.072C56.9689 23.072 57.6769 22.688 58.1329 21.92H58.1449V23H59.0809V14.168H58.1089V18.2H58.0969C57.6289 17.456 56.9329 17.084 56.0089 17.084C55.1929 17.084 54.5089 17.384 53.9689 17.96C53.4169 18.536 53.1529 19.256 53.1529 20.12C53.1529 20.996 53.4169 21.704 53.9689 22.256C54.5089 22.808 55.1929 23.072 56.0209 23.072ZM56.1529 22.184C55.5529 22.184 55.0729 21.992 54.7009 21.596C54.3289 21.212 54.1489 20.72 54.1489 20.12C54.1489 19.496 54.3409 18.98 54.7249 18.572C55.1089 18.176 55.5889 17.972 56.1649 17.972C56.7409 17.972 57.2089 18.188 57.5809 18.596C57.9529 19.004 58.1449 19.52 58.1449 20.12C58.1449 20.732 57.9529 21.224 57.5689 21.608C57.1849 21.992 56.7049 22.184 56.1529 22.184ZM64.3098 23H65.3538V19.748H66.8778L69.1338 23H70.3818L68.0298 19.652C69.4458 19.364 70.1538 18.524 70.1538 17.12C70.1538 16.328 69.9138 15.68 69.4458 15.2C68.9778 14.72 68.2698 14.48 67.3338 14.48H64.3098V23ZM65.3538 18.8V15.428H67.1898C67.7778 15.428 68.2338 15.572 68.5698 15.86C68.9058 16.148 69.0738 16.568 69.0738 17.096C69.0738 17.624 68.9058 18.032 68.5698 18.344C68.2338 18.656 67.7178 18.8 67.0458 18.8H65.3538ZM76.9556 19.976C76.9556 19.136 76.7036 18.452 76.1996 17.9C75.6956 17.36 75.0596 17.084 74.2676 17.084C73.4276 17.084 72.7316 17.372 72.1916 17.924C71.6516 18.488 71.3876 19.208 71.3876 20.084C71.3876 20.972 71.6516 21.692 72.2036 22.244C72.7556 22.796 73.4636 23.072 74.3396 23.072C75.3716 23.072 76.1756 22.712 76.7516 21.98L76.0676 21.404C75.6356 21.932 75.0716 22.184 74.3756 22.184C73.8236 22.184 73.3676 22.028 73.0076 21.692C72.6476 21.368 72.4316 20.924 72.3716 20.372H76.9316C76.9316 20.36 76.9316 20.3 76.9436 20.204C76.9436 20.108 76.9556 20.036 76.9556 19.976ZM74.2556 17.972C74.7236 17.972 75.1076 18.128 75.4196 18.416C75.7196 18.704 75.9116 19.1 75.9836 19.58H72.3956C72.4796 19.088 72.6956 18.692 73.0316 18.404C73.3676 18.116 73.7756 17.972 74.2556 17.972ZM78.3807 25.376H79.3527V21.992H79.3647C79.8207 22.712 80.5167 23.072 81.4407 23.072C82.2567 23.072 82.9287 22.808 83.4687 22.256C84.0087 21.704 84.2847 20.996 84.2847 20.12C84.2847 19.256 84.0087 18.524 83.4807 17.948C82.9407 17.372 82.2567 17.084 81.4407 17.084C80.5287 17.084 79.8327 17.456 79.3647 18.188H79.3527V17.156H78.3807V25.376ZM81.3087 22.184C80.7327 22.184 80.2647 21.992 79.8807 21.608C79.4967 21.224 79.3047 20.732 79.3047 20.12C79.3047 19.52 79.4847 19.004 79.8567 18.596C80.2287 18.188 80.7087 17.972 81.2967 17.972C81.8607 17.972 82.3407 18.176 82.7247 18.572C83.1087 18.98 83.3007 19.496 83.3007 20.12C83.3007 20.72 83.1087 21.212 82.7367 21.596C82.3647 21.992 81.8847 22.184 81.3087 22.184ZM88.4038 23.072C89.2678 23.072 89.9878 22.796 90.5638 22.244C91.1278 21.692 91.4158 20.972 91.4158 20.084C91.4158 19.208 91.1278 18.488 90.5638 17.924C89.9878 17.372 89.2678 17.084 88.4038 17.084C87.5038 17.084 86.7718 17.372 86.2198 17.948C85.6558 18.524 85.3798 19.232 85.3798 20.084C85.3798 20.948 85.6558 21.656 86.2198 22.22C86.7718 22.796 87.5038 23.072 88.4038 23.072ZM88.4038 22.184C87.8038 22.184 87.3238 21.992 86.9398 21.584C86.5558 21.176 86.3758 20.684 86.3758 20.084C86.3758 19.496 86.5558 18.992 86.9398 18.584C87.3118 18.176 87.8038 17.972 88.4038 17.972C88.9678 17.972 89.4478 18.176 89.8318 18.572C90.2158 18.968 90.4198 19.472 90.4198 20.084C90.4198 20.708 90.2158 21.212 89.8318 21.596C89.4478 21.992 88.9678 22.184 88.4038 22.184ZM92.865 23H93.837V20.18C93.837 19.58 93.993 19.1 94.317 18.716C94.629 18.344 95.061 18.152 95.613 18.152C95.673 18.152 95.805 18.164 95.997 18.176V17.096C95.937 17.096 95.853 17.084 95.757 17.084C94.941 17.084 94.305 17.468 93.861 18.224H93.837V17.156H92.865V23ZM98.7395 23.072C99.2675 23.072 99.7475 22.952 100.156 22.712L99.9035 21.86C99.5315 22.064 99.1955 22.16 98.9075 22.16C98.6435 22.16 98.4515 22.088 98.3555 21.92C98.2475 21.752 98.1995 21.488 98.1995 21.116V17.996H100.132V17.156H98.1995V15.056L97.2275 15.164V17.156H96.4715V17.996H97.2275V21.26C97.2275 22.472 97.7315 23.072 98.7395 23.072Z" fill="#3366CC"/>
<path d="M0 0V-1H-1V0H0ZM0 1H120V-1H0V1ZM1 40V0H-1V40H1Z" fill="#5B5B5B" mask="url(#path-1-inside-1_4925_8505)"/>
</svg>
