<svg width="12" height="12" viewBox="0 0 12 12" fill="none" xmlns="http://www.w3.org/2000/svg">
<path d="M5.4937 9.24375L5.49373 9.24373L9.80623 4.93123C10.1479 4.58953 10.1479 4.0355 9.80623 3.6938L9.27593 3.16351C9.27592 3.1635 9.27592 3.16349 9.27591 3.16348C8.93418 2.82173 8.38015 2.82178 8.03845 3.16348L4.875 6.32691L3.58655 5.03845C3.24483 4.69674 2.69082 4.69678 2.34912 5.03843L2.3491 5.03845L1.81877 5.56877C1.47708 5.91047 1.47708 6.4645 1.81877 6.8062L4.25627 9.2437C4.59799 9.58542 5.15197 9.58542 5.4937 9.24375ZM11.125 5.8125C11.125 8.74652 8.74652 11.125 5.8125 11.125C2.87848 11.125 0.5 8.74652 0.5 5.8125C0.5 2.87848 2.87848 0.5 5.8125 0.5C8.74652 0.5 11.125 2.87848 11.125 5.8125Z" fill="#00C557" stroke="#00C557"/>
</svg>
