<svg width="100" height="100" viewBox="0 0 100 100" fill="none" xmlns="http://www.w3.org/2000/svg">
<g clip-path="url(#clip0_3090_1223)">
<path d="M28.745 53.9945L16.7109 47.9775V82.1497L28.745 88.1667V53.9945Z" fill="white" stroke="#3366CC" stroke-width="0.00401002" stroke-miterlimit="1.5" stroke-linecap="round" stroke-linejoin="round"/>
<path d="M40.7763 47.9787L28.7422 53.9958V88.168L40.7763 82.1509V47.9787Z" fill="white" stroke="#3366CC" stroke-width="0.00646059" stroke-miterlimit="1.5" stroke-linecap="round" stroke-linejoin="round"/>
<path d="M28.747 41.961L16.7129 47.978L28.7458 53.9945L40.7799 47.9774L28.747 41.961Z" fill="#C3CFE6" stroke="#3366CC" stroke-width="0.00345343" stroke-miterlimit="1.5" stroke-linecap="round" stroke-linejoin="round"/>
<path d="M39.0667 51.1973L35.7363 52.8625V59.0733L39.0667 57.4082V51.1973Z" fill="#C5D6F8"/>
<path d="M34.305 53.5785L30.9746 55.2437V61.4545L34.305 59.7893V53.5785Z" fill="#C5D6F8"/>
<path d="M39.0667 59.5626L35.7363 61.2278V74.3701L39.0667 72.7049V59.5626Z" fill="#C5D6F8"/>
<path d="M34.305 61.9441L30.9746 63.6093L30.9746 76.7515L34.305 75.0863V61.9441Z" fill="#C5D6F8"/>
<path d="M18.7497 51.351L22.0801 53.0162V59.227L18.7497 57.5618V51.351Z" fill="#3366CC"/>
<path d="M23.5114 53.7321L26.8418 55.3973V61.6081L23.5114 59.9429V53.7321Z" fill="#3366CC"/>
<path d="M18.7497 75.0872L22.0801 76.7524V82.9633L18.7497 81.2981V75.0872Z" fill="#3366CC"/>
<path d="M23.5114 77.4683L26.8418 79.1335V85.3443L23.5114 83.6791V77.4683Z" fill="#3366CC"/>
<path d="M18.7497 59.7163L22.0801 61.3815L22.0801 74.5237L18.7497 72.8585L18.7497 59.7163Z" fill="#3366CC"/>
<path d="M23.5114 62.0971L26.8418 63.7623L26.8418 76.9045L23.5114 75.2393L23.5114 62.0971Z" fill="#3366CC"/>
<path d="M37.3594 76.4286L33.5352 78.3407V85.6542L37.3594 83.742V76.4286Z" fill="#C5D6F8"/>
<path d="M42.8423 50.3438L28.0059 42.9255L28.0059 85.0553L42.8423 92.4736V50.3438Z" fill="white" stroke="#3366CC" stroke-width="0.00400676" stroke-miterlimit="1.5" stroke-linecap="round" stroke-linejoin="round"/>
<path d="M57.6763 42.9271L42.8398 50.3453V92.4751L57.6763 85.0569V42.9271Z" fill="white" stroke="#3366CC" stroke-width="0.00646251" stroke-miterlimit="1.5" stroke-linecap="round" stroke-linejoin="round"/>
<path d="M42.8442 35.508L28.0078 42.9262L42.8428 50.3437L57.6792 42.9255L42.8442 35.508Z" fill="#C3CFE6" stroke="#3366CC" stroke-width="0.00345171" stroke-miterlimit="1.5" stroke-linecap="round" stroke-linejoin="round"/>
<path d="M42.7209 19.4474L32.6953 14.4346V42.9036L42.7209 47.9164V19.4474Z" fill="white" stroke="#3366CC" stroke-width="0.00400672" stroke-miterlimit="1.5" stroke-linecap="round" stroke-linejoin="round"/>
<path d="M52.7444 14.4357L42.7188 19.4485V47.9174L52.7444 42.9046V14.4357Z" fill="white" stroke="#3366CC" stroke-width="0.00646316" stroke-miterlimit="1.5" stroke-linecap="round" stroke-linejoin="round"/>
<path d="M42.7229 9.42231L32.6973 14.4351L42.7219 19.4474L52.7475 14.4346L42.7229 9.42231Z" fill="#C3CFE6" stroke="#3366CC" stroke-width="0.00345247" stroke-miterlimit="1.5" stroke-linecap="round" stroke-linejoin="round"/>
<path d="M29.918 44.0135L28.0059 43.0575L28.0059 84.9237L29.918 85.8798L29.918 44.0135Z" fill="#3366CC"/>
<path d="M33.0273 45.5701L31.1152 44.6141L31.1152 86.4958L33.0273 87.4519V45.5701Z" fill="#3366CC"/>
<path d="M36.1426 47.1276L34.2305 46.1715V88.0446L36.1426 89.0007V47.1276Z" fill="#3366CC"/>
<path d="M39.2422 48.6756L37.3301 47.7195V89.5975L39.2422 90.5536V48.6756Z" fill="#3366CC"/>
<path d="M34.0356 15.0356L32.8184 14.427V42.8199L34.0356 43.4285V15.0356Z" fill="#3366CC"/>
<path d="M36.0161 16.0268L34.7988 15.4182V43.8217L36.0161 44.4303V16.0268Z" fill="#3366CC"/>
<path d="M37.9985 17.0182L36.7812 16.4096V44.8072L37.9985 45.4158V17.0182Z" fill="#3366CC"/>
<path d="M39.9712 18.0036L38.7539 17.395V45.7959L39.9712 46.4046V18.0036Z" fill="#3366CC"/>
<path d="M41.9438 18.99L40.7266 18.3814V46.7823L41.9438 47.3909V18.99Z" fill="#3366CC"/>
<path d="M42.3496 50.2297L40.4375 49.2736V91.1774L42.3496 92.1334V50.2297Z" fill="#3366CC"/>
<path d="M45.1094 49.3435L43.1973 50.2996V92.1607L45.1094 91.2046V49.3435Z" fill="#C5D6F8"/>
<path d="M48.2168 47.7899L46.3047 48.7459V90.607L48.2168 89.651V47.7899Z" fill="#C5D6F8"/>
<path d="M51.3242 46.2365L49.4121 47.1926V89.0594L51.3242 88.1033V46.2365Z" fill="#C5D6F8"/>
<path d="M44.245 18.8191L42.957 19.4631V47.6611L44.245 47.0171V18.8191Z" fill="#C5D6F8"/>
<path d="M46.3368 17.7732L45.0488 18.4172V46.6152L46.3368 45.9712V17.7732Z" fill="#C5D6F8"/>
<path d="M48.4285 16.7274L47.1406 17.3713V45.5693L48.4285 44.9253V16.7274Z" fill="#C5D6F8"/>
<path d="M50.5341 15.6751L49.2461 16.3192V44.5171L50.5341 43.8731V15.6751Z" fill="#C5D6F8"/>
<path d="M52.6257 14.6293L51.3379 15.2733V43.4712L52.6257 42.8273V14.6293Z" fill="#C5D6F8"/>
<path d="M54.4316 44.6827L52.5195 45.6388V56.4465L54.4316 55.4905V44.6827Z" fill="#C5D6F8"/>
<path d="M57.5391 43.1292L55.627 44.0852V54.893L57.5391 53.9369V43.1292Z" fill="#C5D6F8"/>
<path d="M42.7217 6.25986L41.7656 5.59796V13.5405L42.7217 14.2024V6.25986Z" fill="#A0ADC7" stroke="#3366CC" stroke-width="0.00378407" stroke-miterlimit="1.5" stroke-linecap="round" stroke-linejoin="round"/>
<path d="M43.6787 5.59799L42.7227 6.25989V14.2025L43.6787 13.5406V5.59799Z" fill="#DADEE6" stroke="#3366CC" stroke-width="0.00687802" stroke-miterlimit="1.5" stroke-linecap="round" stroke-linejoin="round"/>
<path d="M42.7263 6.36578C43.5933 6.36578 44.2963 5.66287 44.2963 4.79577C44.2963 3.92868 43.5933 3.22577 42.7263 3.22577C41.8592 3.22577 41.1562 3.92868 41.1562 4.79577C41.1562 5.66287 41.8592 6.36578 42.7263 6.36578Z" fill="#FF6666" stroke="#3366CC" stroke-width="0.00483164" stroke-miterlimit="1.5" stroke-linecap="round" stroke-linejoin="round"/>
<path d="M63.745 62.9945L51.7109 56.9775V91.1497L63.745 97.1667V62.9945Z" fill="white" stroke="#3366CC" stroke-width="0.00401002" stroke-miterlimit="1.5" stroke-linecap="round" stroke-linejoin="round"/>
<path d="M75.7763 56.9787L63.7422 62.9958V97.168L75.7763 91.1509V56.9787Z" fill="white" stroke="#3366CC" stroke-width="0.00646059" stroke-miterlimit="1.5" stroke-linecap="round" stroke-linejoin="round"/>
<path d="M63.747 50.961L51.7129 56.978L63.7458 62.9945L75.7799 56.9774L63.747 50.961Z" fill="#C3CFE6" stroke="#3366CC" stroke-width="0.00345343" stroke-miterlimit="1.5" stroke-linecap="round" stroke-linejoin="round"/>
<path d="M74.0667 60.1973L70.7363 61.8625V68.0733L74.0667 66.4082V60.1973Z" fill="#C5D6F8"/>
<path d="M69.305 62.5785L65.9746 64.2437V70.4545L69.305 68.7893V62.5785Z" fill="#C5D6F8"/>
<path d="M74.0667 68.5626L70.7363 70.2278V83.3701L74.0667 81.7049V68.5626Z" fill="#C5D6F8"/>
<path d="M69.305 70.9441L65.9746 72.6093V85.7515L69.305 84.0863V70.9441Z" fill="#C5D6F8"/>
<path d="M53.7497 60.351L57.0801 62.0162V68.227L53.7497 66.5618V60.351Z" fill="#3366CC"/>
<path d="M58.5114 62.7321L61.8418 64.3973V70.6081L58.5114 68.9429V62.7321Z" fill="#3366CC"/>
<path d="M53.7497 84.0872L57.0801 85.7524V91.9633L53.7497 90.2981V84.0872Z" fill="#3366CC"/>
<path d="M58.5114 86.4683L61.8418 88.1335V94.3443L58.5114 92.6791V86.4683Z" fill="#3366CC"/>
<path d="M53.7497 68.7163L57.0801 70.3815V83.5237L53.7497 81.8585V68.7163Z" fill="#3366CC"/>
<path d="M58.5114 71.0971L61.8418 72.7623V85.9045L58.5114 84.2393V71.0971Z" fill="#3366CC"/>
<path d="M72.3594 85.4286L68.5352 87.3407V94.6542L72.3594 92.742V85.4286Z" fill="#C5D6F8"/>
<path fill-rule="evenodd" clip-rule="evenodd" d="M21.7102 80.9705L-9.08203 81.1517L14.1391 92.7622L15.5794 92.4475L27.5875 98.4515L66.3953 97.0786C61.4686 94.587 50.9463 89.3527 50.9463 89.3527C50.9463 89.3527 50.9052 89.3381 50.8713 89.285C50.8417 89.2264 50.8472 89.2061 50.8399 89.1773L50.2693 85.7833L40.7609 90.4958L21.7102 80.9705Z" fill="#EBEBEB" fill-opacity="0.74"/>
<path fill-rule="evenodd" clip-rule="evenodd" d="M51.6703 88.3575C51.6692 88.294 51.6368 88.2357 51.583 88.2025C51.5292 88.1692 51.4622 88.1662 51.406 88.1943L42.8523 92.4398C42.7722 92.4798 42.7318 92.5719 42.7589 92.6577C42.786 92.7434 42.8707 92.7965 42.9596 92.7834L45.9833 92.3341L51.5269 91.409C51.6157 91.3946 51.68 91.3181 51.6791 91.2283L51.6703 88.3575Z" fill="#C8D0DF" fill-opacity="0.5"/>
<path fill-rule="evenodd" clip-rule="evenodd" d="M74.8015 15.5813L93.5105 15.7261C100.528 13.5456 97.3692 5.34799 91.4088 7.12452C91.9542 -0.755038 82.0704 -1.54113 81.0747 6.35873C79.7152 5.96574 78.5877 7.02806 78.4272 7.85547C71.3817 3.33218 67.6528 14.072 74.8015 15.5813Z" fill="white" stroke="#3366CC" stroke-width="0.5" stroke-miterlimit="2" stroke-linecap="square"/>
<path d="M75.4517 14.2455L75.349 14.6135L75.7274 14.5602C76.6433 14.4312 77.3195 14.6252 77.7751 14.9619C78.2323 15.2997 78.4886 15.7963 78.5396 16.3147C78.5906 16.8339 78.4352 17.3706 78.0714 17.7854C77.7108 18.1966 77.1313 18.5039 76.304 18.54L65.864 18.5589C64.7683 17.9012 64.176 17.1222 63.9298 16.36C63.6789 15.5834 63.7787 14.7988 64.109 14.133C64.7776 12.7854 66.3428 11.9843 67.7811 12.6726L68.0356 12.7944L68.1259 12.5271C68.6105 11.0917 69.389 10.2429 70.2422 9.82194C71.0978 9.39979 72.058 9.39319 72.9326 9.69727C74.6933 10.3095 76.0374 12.1458 75.4517 14.2455Z" fill="white" stroke="#3366CC" stroke-width="0.5"/>
<path fill-rule="evenodd" clip-rule="evenodd" d="M86.383 94.124C86.7611 94.0192 85.984 92.9146 85.984 92.9146C85.984 92.9146 86.3545 93.0292 86.3167 92.9146C86.228 92.6459 85.4518 91.3021 85.4518 91.3021C85.4518 91.3021 85.8329 91.42 85.794 91.3021C85.6938 90.9986 84.8511 89.4815 84.8511 89.4815C84.8511 89.4815 85.337 89.8521 85.2833 89.6896C85.1227 89.2026 84.0349 86.5064 83.887 86.5597C83.7386 86.6132 82.8094 88.8332 82.5192 89.6896C82.4732 89.8253 82.9778 89.5565 82.9309 89.6896C82.7582 90.1795 82.2443 90.8495 82.1446 91.3021C82.13 91.3687 82.5108 91.2363 82.4968 91.3021C82.3933 91.7904 81.879 92.4724 81.7641 92.9146C81.7452 92.9873 82.1532 92.8431 82.1326 92.9146C82.0096 93.3405 81.418 93.977 81.6177 94.124C82.0885 94.4702 85.6553 94.3255 86.383 94.124Z" fill="#C5D6F8" stroke="#C5D6F8" stroke-width="0.00696155" stroke-miterlimit="2" stroke-linecap="round" stroke-linejoin="round"/>
<path d="M84.1376 94.5271H83.8164V96.2936H84.1376V94.5271Z" fill="#C5D6F8" stroke="#C5D6F8" stroke-width="0.5" stroke-miterlimit="2" stroke-linecap="round"/>
<path fill-rule="evenodd" clip-rule="evenodd" d="M82.8729 91.9376C82.8138 91.6219 82.2106 90.1124 82.2106 90.1124C82.2106 90.1124 82.8257 90.2854 82.7629 90.1124C82.6157 89.7068 81.3274 87.6788 81.3274 87.6788C81.3274 87.6788 81.9599 87.8567 81.8953 87.6788C81.7291 87.2208 80.3304 84.9312 80.3304 84.9312C80.3304 84.9312 81.1368 85.4905 81.0478 85.2452C80.7811 84.5102 78.9756 80.441 78.7301 80.5215C78.4838 80.6023 76.9415 83.9528 76.4599 85.2452C76.3836 85.45 77.2211 85.0444 77.1433 85.2452C76.8565 85.9845 76.0036 86.9957 75.8382 87.6788C75.8139 87.7793 76.4459 87.5796 76.4228 87.6788C76.251 88.4157 75.3973 89.445 75.2066 90.1124C75.1752 90.2222 75.8525 90.0045 75.8182 90.1124C75.614 90.7553 74.6321 91.7159 74.9637 91.9376C75.0468 91.9932 75.1879 92.0404 75.3753 92.08C75.4419 92.094 74.0468 93.5545 74.6218 93.6706C75.9348 93.9357 81.9288 93.9479 83.2528 93.6706C83.84 93.5476 82.5244 92.0144 82.5658 92.0068C82.686 91.9848 82.8924 92.0408 82.8729 91.9376Z" fill="#3366CC" stroke="#3366CC" stroke-width="0.00724433" stroke-miterlimit="3" stroke-linecap="round" stroke-linejoin="round"/>
<path d="M79.165 94.1677H78.5566V95.6058H79.165V94.1677Z" fill="#3366CC"/>
<path fill-rule="evenodd" clip-rule="evenodd" d="M79.8897 96.3304V93.4431H77.832V96.3304H79.8897ZM79.1651 94.1677H78.5567V95.6058H79.1651V94.1677Z" fill="#3366CC"/>
</g>
<defs>
<clipPath id="clip0_3090_1223">
<rect width="100" height="100" fill="white"/>
</clipPath>
</defs>
</svg>
