<svg width="100" height="100" viewBox="0 0 100 100" fill="none" xmlns="http://www.w3.org/2000/svg">
<g clip-path="url(#clip0_2813_1043)">
<path d="M46.5475 42.6653C45.3368 42.7031 44.6539 42.8193 44.2969 42.8911V48.8046L46.254 48.7845C48.7674 48.7607 50.2786 47.5119 50.2786 45.5954C50.2779 43.5846 48.8698 42.624 46.5475 42.6653Z" fill="#1F7BE7"/>
<path d="M91.6715 8.35936H61.3959C61.2616 8.35936 61.1309 8.3725 60.9984 8.38052V0L1.9082 7.88609V91.91L60.9984 100V91.367C61.1309 91.3759 61.2616 91.3865 61.3959 91.3865H91.6715C95.214 91.3865 98.0934 88.5042 98.0934 84.9646V14.7806C98.0934 11.2403 95.214 8.35936 91.6715 8.35936ZM16.7789 56.5115C18.0011 56.535 19.3695 56.2708 20.1777 55.9356L20.8035 59.4165C20.0459 59.8007 18.3467 60.1798 16.1749 60.1079C10.1908 59.9099 7.21526 55.8056 7.21526 50.4982C7.21526 44.1393 11.2971 40.4225 16.5667 40.187C18.6705 40.0933 20.2867 40.4871 21.0227 40.8653L20.1765 44.418C19.3402 44.0642 18.1857 43.7524 16.7526 43.7954C13.5959 43.891 11.194 46.0146 11.194 50.2263C11.195 54.0183 13.2354 56.4454 16.7789 56.5115ZM28.2285 60.5076C26.0285 60.4339 23.89 59.7727 22.8326 59.1243L23.6942 55.4328C24.8432 56.0727 26.624 56.7276 28.4896 56.7624C30.5255 56.8018 31.6146 55.942 31.6146 54.608C31.6146 53.3312 30.6744 52.5983 28.3153 51.7221C25.1226 50.5627 23.083 48.7476 23.083 45.8658C23.083 42.4841 25.773 39.7771 30.3513 39.5731C32.5943 39.4734 34.2696 39.8885 35.4831 40.3917L34.4527 44.206C33.6391 43.8302 32.2079 43.2922 30.2637 43.3521C28.3447 43.4109 27.4256 44.3354 27.4256 45.3825C27.4256 46.6676 28.5181 47.2172 31.0558 48.1759C34.6051 49.4822 36.306 51.3852 36.306 54.3183C36.306 57.8088 33.6702 60.6884 28.2285 60.5076ZM50.9927 60.9348C50.62 60.3052 50.079 58.5061 49.4057 55.8039C48.8035 53.0856 47.8377 52.3404 45.7946 52.3044L44.2979 52.3002V60.721L39.4908 60.5677V39.7905C41.034 39.4743 43.3594 39.1845 45.9917 39.0679C49.3044 38.9229 51.6737 39.3099 53.3166 40.4862C54.7016 41.486 55.4688 43.0137 55.4688 45.0604C55.4688 47.9 53.3506 49.8612 51.3653 50.5574V50.654C52.9725 51.2722 53.8687 52.747 54.46 54.7915C55.1891 57.308 55.9257 60.2315 56.3809 61.1051L50.9927 60.9348ZM91.6715 87.7171H61.3959C61.2599 87.7171 61.1291 87.6981 60.9984 87.6776V12.0703C61.1291 12.0512 61.2599 12.029 61.3959 12.029H91.6715C93.1893 12.029 94.4236 13.264 94.4236 14.7812V51.5345C94.3447 51.5193 94.2679 51.5122 94.1872 51.4959C92.0154 51.0553 90.7825 52.0006 89.0841 53.2035C88.4405 53.6587 86.2977 51.7146 85.3535 51.7146C83.7567 51.7146 82.4934 53.5619 81.6443 54.6264C81.4006 54.9309 81.1514 55.2285 80.8971 55.5132C80.2806 54.0098 78.6517 52.6751 77.4407 51.8185C74.8988 50.0236 71.1225 47.8999 70.731 44.4729C70.2668 40.4135 75.7131 41.2145 77.6477 41.8796C79.3302 42.4585 80.047 39.7989 78.3787 39.2255C73.0808 37.4049 66.2254 40.2299 68.4694 46.7968C69.6046 50.1208 73.3937 52.2431 76.0517 54.1946C78.1367 55.7269 77.9144 56.9315 76.6987 57.806C76.0947 57.7738 75.4498 57.5956 74.7527 57.2174C73.2208 56.3879 71.5473 55.1963 69.757 55.0261C66.8149 54.7491 64.8723 57.0805 65.2594 59.9401C65.795 63.8752 72.1688 62.6251 76.4909 60.8718C77.2417 61.0198 78.0266 61.0447 78.6321 60.7986C80.148 60.1803 81.2214 59.3569 82.3555 58.1638C83.4055 57.0563 84.7209 53.6454 86.2509 55.4822C86.9534 56.3244 88.2613 56.4436 89.236 56.1763C90.0245 55.9594 90.7164 55.4067 91.3665 54.9463C92.4436 54.1839 93.2427 54.3342 94.4234 54.4255V84.9644C94.4236 86.4821 93.1893 87.7171 91.6715 87.7171ZM72.726 59.2281C71.1956 59.5041 69.671 59.5795 68.7551 59.4457C69.2497 58.954 69.7444 58.4619 70.239 57.9709C71.0261 58.3032 71.7899 58.6859 72.5278 59.1206C72.5954 59.1562 72.6598 59.1912 72.726 59.2281Z" fill="#1F7BE7"/>
</g>
<defs>
<clipPath id="clip0_2813_1043">
<rect width="100" height="100" fill="white"/>
</clipPath>
</defs>
</svg>
