<svg width="11" height="14" viewBox="0 0 11 14" fill="none" xmlns="http://www.w3.org/2000/svg">
<path d="M3 3.25V2C3 1.66848 3.1317 1.35054 3.36612 1.11612C3.60054 0.881696 3.91848 0.75 4.25 0.75H6.75C7.08152 0.75 7.39946 0.881696 7.63388 1.11612C7.8683 1.35054 8 1.66848 8 2V3.25M9.875 3.25V12C9.875 12.3315 9.7433 12.6495 9.50888 12.8839C9.27446 13.1183 8.95652 13.25 8.625 13.25H2.375C2.04348 13.25 1.72554 13.1183 1.49112 12.8839C1.2567 12.6495 1.125 12.3315 1.125 12V3.25H9.875Z" stroke="#FF6666" stroke-linecap="round" stroke-linejoin="round"/>
</svg>
