<svg width="302" height="55" viewBox="0 0 302 55" fill="none" xmlns="http://www.w3.org/2000/svg">
<rect width="302" height="55" rx="3" fill="#3366CC"/>
<path d="M64.7027 32.096C66.0467 32.096 67.1187 31.68 67.9187 30.832C68.7187 29.984 69.1187 28.832 69.1187 27.376V20.64H67.7267V27.28C67.7267 28.368 67.4387 29.216 66.8787 29.84C66.3187 30.48 65.5987 30.784 64.7027 30.784C63.7747 30.784 63.0547 30.464 62.5107 29.824C61.9667 29.184 61.6947 28.336 61.6947 27.28V20.64H60.3027V27.376C60.3027 28.848 60.7027 30.016 61.5027 30.848C62.3027 31.68 63.3747 32.096 64.7027 32.096ZM71.5676 35.168H72.8636V30.656H72.8796C73.4876 31.616 74.4156 32.096 75.6476 32.096C76.7356 32.096 77.6316 31.744 78.3516 31.008C79.0716 30.272 79.4396 29.328 79.4396 28.16C79.4396 27.008 79.0716 26.032 78.3676 25.264C77.6476 24.496 76.7356 24.112 75.6476 24.112C74.4316 24.112 73.5036 24.608 72.8796 25.584H72.8636V24.208H71.5676V35.168ZM75.4716 30.912C74.7036 30.912 74.0796 30.656 73.5676 30.144C73.0556 29.632 72.7996 28.976 72.7996 28.16C72.7996 27.36 73.0396 26.672 73.5356 26.128C74.0316 25.584 74.6716 25.296 75.4556 25.296C76.2076 25.296 76.8476 25.568 77.3596 26.096C77.8716 26.64 78.1276 27.328 78.1276 28.16C78.1276 28.96 77.8716 29.616 77.3756 30.128C76.8796 30.656 76.2396 30.912 75.4716 30.912ZM81.4917 32H82.7877V20.224H81.4917V32ZM88.8536 32.096C90.0056 32.096 90.9656 31.728 91.7336 30.992C92.4856 30.256 92.8696 29.296 92.8696 28.112C92.8696 26.944 92.4856 25.984 91.7336 25.232C90.9656 24.496 90.0056 24.112 88.8536 24.112C87.6536 24.112 86.6776 24.496 85.9416 25.264C85.1896 26.032 84.8216 26.976 84.8216 28.112C84.8216 29.264 85.1896 30.208 85.9416 30.96C86.6776 31.728 87.6536 32.096 88.8536 32.096ZM88.8536 30.912C88.0536 30.912 87.4136 30.656 86.9016 30.112C86.3896 29.568 86.1496 28.912 86.1496 28.112C86.1496 27.328 86.3896 26.656 86.9016 26.112C87.3976 25.568 88.0536 25.296 88.8536 25.296C89.6056 25.296 90.2456 25.568 90.7576 26.096C91.2696 26.624 91.5416 27.296 91.5416 28.112C91.5416 28.944 91.2696 29.616 90.7576 30.128C90.2456 30.656 89.6056 30.912 88.8536 30.912ZM98.0819 32.096C99.3299 32.096 100.258 31.6 100.866 30.592H100.882V32H102.13V24.208H100.834V25.584L100.802 25.6C100.514 25.136 100.146 24.768 99.6659 24.512C99.1859 24.256 98.6579 24.112 98.0819 24.112C96.9779 24.112 96.0659 24.496 95.3619 25.264C94.6419 26.032 94.2899 27.008 94.2899 28.16C94.2899 29.328 94.6419 30.272 95.3619 31.008C96.0819 31.744 96.9939 32.096 98.0819 32.096ZM98.2739 30.912C97.4739 30.912 96.8339 30.656 96.3379 30.128C95.8419 29.616 95.6019 28.96 95.6019 28.16C95.6019 27.328 95.8579 26.64 96.3699 26.096C96.8819 25.568 97.5059 25.296 98.2739 25.296C99.0259 25.296 99.6499 25.584 100.146 26.128C100.626 26.672 100.882 27.36 100.882 28.16C100.882 28.976 100.626 29.632 100.13 30.144C99.6179 30.656 99.0099 30.912 98.2739 30.912ZM107.77 32.096C109.034 32.096 109.978 31.584 110.586 30.56H110.602V32H111.85V20.224H110.554V25.6H110.538C109.914 24.608 108.986 24.112 107.754 24.112C106.666 24.112 105.754 24.512 105.034 25.28C104.298 26.048 103.946 27.008 103.946 28.16C103.946 29.328 104.298 30.272 105.034 31.008C105.754 31.744 106.666 32.096 107.77 32.096ZM107.946 30.912C107.146 30.912 106.506 30.656 106.01 30.128C105.514 29.616 105.274 28.96 105.274 28.16C105.274 27.328 105.53 26.64 106.042 26.096C106.554 25.568 107.194 25.296 107.962 25.296C108.73 25.296 109.354 25.584 109.85 26.128C110.346 26.672 110.602 27.36 110.602 28.16C110.602 28.976 110.346 29.632 109.834 30.144C109.322 30.656 108.682 30.912 107.946 30.912ZM121.51 32H122.902V26.928L126.79 20.64H125.158L122.23 25.52H122.198L119.254 20.64H117.654L121.51 26.928V32ZM130.322 32.096C131.474 32.096 132.434 31.728 133.202 30.992C133.954 30.256 134.338 29.296 134.338 28.112C134.338 26.944 133.954 25.984 133.202 25.232C132.434 24.496 131.474 24.112 130.322 24.112C129.122 24.112 128.146 24.496 127.41 25.264C126.658 26.032 126.29 26.976 126.29 28.112C126.29 29.264 126.658 30.208 127.41 30.96C128.146 31.728 129.122 32.096 130.322 32.096ZM130.322 30.912C129.522 30.912 128.882 30.656 128.37 30.112C127.858 29.568 127.618 28.912 127.618 28.112C127.618 27.328 127.858 26.656 128.37 26.112C128.866 25.568 129.522 25.296 130.322 25.296C131.074 25.296 131.714 25.568 132.226 26.096C132.738 26.624 133.01 27.296 133.01 28.112C133.01 28.944 132.738 29.616 132.226 30.128C131.714 30.656 131.074 30.912 130.322 30.912ZM139.023 32.096C139.535 32.096 140.031 31.984 140.479 31.728C140.927 31.472 141.311 31.12 141.599 30.656H141.615V32H142.911V24.208H141.615V27.984C141.615 28.88 141.391 29.6 140.943 30.128C140.495 30.656 139.935 30.912 139.295 30.912C138.655 30.912 138.175 30.72 137.855 30.336C137.535 29.952 137.391 29.344 137.391 28.48V24.208H136.095V28.848C136.095 29.936 136.351 30.752 136.863 31.296C137.375 31.84 138.095 32.096 139.023 32.096ZM145.255 32H146.551V28.24C146.551 27.44 146.759 26.8 147.191 26.288C147.607 25.792 148.183 25.536 148.919 25.536C148.999 25.536 149.175 25.552 149.431 25.568V24.128C149.351 24.128 149.239 24.112 149.111 24.112C148.023 24.112 147.175 24.624 146.583 25.632H146.551V24.208H145.255V32ZM155.447 32H156.839V27.168H161.799V25.904H156.839V21.904H162.695V20.64H155.447V32ZM165.007 22.784C165.263 22.784 165.487 22.704 165.679 22.512C165.855 22.336 165.951 22.112 165.951 21.856C165.951 21.6 165.855 21.392 165.679 21.2C165.487 21.024 165.263 20.928 165.007 20.928C164.735 20.928 164.511 21.024 164.335 21.2C164.143 21.392 164.063 21.6 164.063 21.856C164.063 22.112 164.143 22.336 164.335 22.512C164.511 22.704 164.735 22.784 165.007 22.784ZM164.351 32H165.647V24.208H164.351V32ZM168.177 32H169.473V28.24C169.473 27.44 169.681 26.8 170.113 26.288C170.529 25.792 171.105 25.536 171.841 25.536C171.921 25.536 172.097 25.552 172.353 25.568V24.128C172.273 24.128 172.161 24.112 172.033 24.112C170.945 24.112 170.097 24.624 169.505 25.632H169.473V24.208H168.177V32ZM176.17 32.096C177.066 32.096 177.754 31.888 178.234 31.472C178.714 31.056 178.97 30.512 178.97 29.872C178.97 29.168 178.698 28.624 178.138 28.24C177.882 28.096 177.258 27.824 176.25 27.424C175.754 27.248 175.386 27.072 175.146 26.896C174.89 26.72 174.778 26.496 174.778 26.208C174.778 25.92 174.89 25.696 175.13 25.52C175.37 25.36 175.658 25.264 175.978 25.264C176.746 25.264 177.434 25.552 178.042 26.096L178.714 25.072C177.914 24.432 177.018 24.112 176.026 24.112C175.29 24.112 174.666 24.32 174.186 24.72C173.706 25.12 173.466 25.616 173.466 26.208C173.466 26.56 173.514 26.864 173.642 27.12C173.754 27.376 173.93 27.6 174.17 27.776C174.41 27.968 174.65 28.112 174.89 28.224C175.114 28.352 175.418 28.464 175.802 28.592C176.426 28.832 176.81 28.976 176.938 29.024C177.418 29.248 177.658 29.536 177.658 29.888C177.658 30.208 177.514 30.464 177.258 30.656C176.986 30.848 176.618 30.944 176.17 30.944C175.226 30.944 174.426 30.64 173.786 30L173.13 30.992C173.962 31.728 174.986 32.096 176.17 32.096ZM182.994 32.096C183.698 32.096 184.338 31.936 184.882 31.616L184.546 30.48C184.05 30.752 183.602 30.88 183.218 30.88C182.866 30.88 182.61 30.784 182.482 30.56C182.338 30.336 182.274 29.984 182.274 29.488V25.328H184.85V24.208H182.274V21.408L180.978 21.552V24.208H179.97V25.328H180.978V29.68C180.978 31.296 181.65 32.096 182.994 32.096ZM191.135 32H192.527V27.664H194.863C196.079 27.664 197.055 27.376 197.775 26.784C198.495 26.208 198.863 25.328 198.863 24.16C198.863 23.104 198.543 22.24 197.935 21.6C197.311 20.96 196.367 20.64 195.103 20.64H191.135V32ZM192.527 26.4V21.904H194.959C195.727 21.904 196.319 22.096 196.767 22.48C197.199 22.864 197.423 23.424 197.423 24.128C197.423 24.832 197.199 25.376 196.751 25.792C196.303 26.208 195.631 26.4 194.735 26.4H192.527ZM200.755 32H202.051V28.24C202.051 27.44 202.259 26.8 202.691 26.288C203.107 25.792 203.683 25.536 204.419 25.536C204.499 25.536 204.675 25.552 204.931 25.568V24.128C204.851 24.128 204.739 24.112 204.611 24.112C203.523 24.112 202.675 24.624 202.083 25.632H202.051V24.208H200.755V32ZM209.682 32.096C210.834 32.096 211.794 31.728 212.562 30.992C213.314 30.256 213.698 29.296 213.698 28.112C213.698 26.944 213.314 25.984 212.562 25.232C211.794 24.496 210.834 24.112 209.682 24.112C208.482 24.112 207.506 24.496 206.77 25.264C206.018 26.032 205.65 26.976 205.65 28.112C205.65 29.264 206.018 30.208 206.77 30.96C207.506 31.728 208.482 32.096 209.682 32.096ZM209.682 30.912C208.882 30.912 208.242 30.656 207.73 30.112C207.218 29.568 206.978 28.912 206.978 28.112C206.978 27.328 207.218 26.656 207.73 26.112C208.226 25.568 208.882 25.296 209.682 25.296C210.434 25.296 211.074 25.568 211.586 26.096C212.098 26.624 212.37 27.296 212.37 28.112C212.37 28.944 212.098 29.616 211.586 30.128C211.074 30.656 210.434 30.912 209.682 30.912ZM216.238 22.784C216.494 22.784 216.718 22.704 216.91 22.512C217.086 22.336 217.182 22.112 217.182 21.856C217.182 21.6 217.086 21.392 216.91 21.2C216.718 21.024 216.494 20.928 216.238 20.928C215.966 20.928 215.742 21.024 215.566 21.2C215.374 21.392 215.294 21.6 215.294 21.856C215.294 22.112 215.374 22.336 215.566 22.512C215.742 22.704 215.966 22.784 216.238 22.784ZM214.926 35.264C215.534 35.264 216.014 35.056 216.366 34.608C216.718 34.176 216.894 33.584 216.894 32.816V24.208H215.598V32.816C215.598 33.68 215.278 34.096 214.67 34.096C214.334 34.096 214.046 34.016 213.79 33.856L213.582 35.008C213.982 35.184 214.43 35.264 214.926 35.264ZM226.136 27.968C226.136 26.848 225.8 25.936 225.128 25.2C224.456 24.48 223.608 24.112 222.552 24.112C221.432 24.112 220.504 24.496 219.784 25.232C219.064 25.984 218.712 26.944 218.712 28.112C218.712 29.296 219.064 30.256 219.8 30.992C220.536 31.728 221.48 32.096 222.648 32.096C224.024 32.096 225.096 31.616 225.864 30.64L224.952 29.872C224.376 30.576 223.624 30.912 222.696 30.912C221.96 30.912 221.352 30.704 220.872 30.256C220.392 29.824 220.104 29.232 220.024 28.496H226.104C226.104 28.48 226.104 28.4 226.12 28.272C226.12 28.144 226.136 28.048 226.136 27.968ZM222.536 25.296C223.16 25.296 223.672 25.504 224.088 25.888C224.488 26.272 224.744 26.8 224.84 27.44H220.056C220.168 26.784 220.456 26.256 220.904 25.872C221.352 25.488 221.896 25.296 222.536 25.296ZM231.428 32.096C232.804 32.096 233.876 31.648 234.644 30.736L233.748 29.92C233.204 30.592 232.468 30.912 231.524 30.912C230.724 30.912 230.084 30.656 229.604 30.144C229.108 29.632 228.868 28.944 228.868 28.112C228.868 27.28 229.108 26.608 229.604 26.08C230.084 25.568 230.74 25.296 231.54 25.296C232.436 25.296 233.156 25.632 233.732 26.288L234.612 25.504C234.228 25.056 233.764 24.72 233.204 24.48C232.644 24.24 232.068 24.112 231.476 24.112C230.308 24.112 229.364 24.496 228.628 25.232C227.892 25.984 227.54 26.944 227.54 28.112C227.54 29.296 227.892 30.256 228.628 30.992C229.348 31.728 230.276 32.096 231.428 32.096ZM238.572 32.096C239.276 32.096 239.916 31.936 240.46 31.616L240.124 30.48C239.628 30.752 239.18 30.88 238.796 30.88C238.444 30.88 238.188 30.784 238.06 30.56C237.916 30.336 237.852 29.984 237.852 29.488V25.328H240.428V24.208H237.852V21.408L236.556 21.552V24.208H235.548V25.328H236.556V29.68C236.556 31.296 237.228 32.096 238.572 32.096Z" fill="white"/>
</svg>
