<svg width="100" height="100" viewBox="0 0 100 100" fill="none" xmlns="http://www.w3.org/2000/svg">
<g clip-path="url(#clip0_2813_1062)">
<path d="M74.8164 30.7473C71.8282 29.5494 70.9648 28.825 70.9648 27.517C70.9648 26.4702 71.7577 25.2472 73.9931 25.2472C75.9703 25.2472 77.4866 26.0268 77.5002 26.0336C77.6597 26.1187 77.8387 26.1641 78.016 26.1641C78.4486 26.1641 78.8313 25.9022 78.99 25.4969L79.5332 24.1085C79.7223 23.6026 79.4354 23.1618 79.0695 23.0037C77.8522 22.4738 75.4731 22.0637 75.4488 22.0595C75.4105 22.0527 75.2772 22.0242 75.2772 21.8684L75.2696 19.8543C75.2696 19.2477 74.7631 18.7539 74.1413 18.7539H73.167C72.5458 18.7539 72.0396 19.2474 72.0396 19.8545L72.0421 21.9721C72.0421 22.1344 71.8662 22.2049 71.8019 22.2198C68.7988 22.9352 66.922 25.135 66.922 27.9099C66.922 31.369 69.7814 32.9322 72.8688 34.1055C75.3369 35.0746 76.3437 36.0571 76.3437 37.4982C76.3437 39.0664 74.9178 40.1617 72.875 40.1617C71.1306 40.1617 68.7698 39.056 68.7464 39.0447C68.5953 38.9731 68.4352 38.9371 68.2706 38.9371C67.8213 38.9371 67.4301 39.2088 67.2737 39.6296L66.7551 41.0338C66.5708 41.558 66.8546 41.9836 67.2179 42.173C68.6678 42.9281 71.4733 43.3706 71.5982 43.39C71.6317 43.3948 71.8025 43.4549 71.8025 43.611V45.7193C71.8025 46.3258 72.309 46.8196 72.931 46.8196H73.9378C74.5602 46.8196 75.0666 46.3261 75.0666 45.7193V43.5005C75.0666 43.2931 75.2197 43.2748 75.2513 43.2671C78.4506 42.5484 80.4213 40.2076 80.4213 37.2685C80.4204 34.2496 78.744 32.2989 74.8164 30.7473Z" fill="#3366CC"/>
<path d="M73.558 6.34375C58.9536 6.34375 47.1152 18.1829 47.1152 32.7866C47.1152 47.3904 58.9536 59.2299 73.558 59.2299C88.1619 59.2299 100.001 47.3904 100.001 32.7866C100.001 18.1829 88.1619 6.34375 73.558 6.34375ZM73.558 53.1016C62.3381 53.1016 53.2433 44.006 53.2433 32.7868C53.2433 21.5677 62.3381 12.4723 73.558 12.4723C84.7775 12.4723 93.872 21.5677 93.872 32.7868C93.872 44.006 84.7775 53.1016 73.558 53.1016Z" fill="#3366CC"/>
<path d="M94.6275 72.0441C89.0045 75.1476 81.2708 78.0171 73.5582 79.2268C66.6962 80.3029 53.7868 77.7076 53.7868 74.6425C53.7868 73.481 65.1088 77.5044 71.9575 75.6772C77.2093 74.2761 76.4638 69.3634 73.6072 68.7154C70.7673 68.0708 54.129 61.9755 47.0221 61.7653C43.6743 61.6663 35.4089 62.9296 31.4095 63.5809C30.0394 63.8039 29.1803 63.7794 29.0946 65.0905C28.6966 71.1842 27.9122 83.6454 27.4847 90.1545C27.4756 90.2921 27.6667 92.1416 29.193 90.84C30.8635 89.4155 33.2065 87.8366 35.3737 88.3281C38.7737 89.0995 68.1881 94.4883 72.2453 93.5452C78.0495 92.196 94.4801 82.4588 97.6303 79.4323C102.513 74.7403 98.7174 69.7868 94.6275 72.0441Z" fill="#3366CC"/>
<path d="M20.9772 63.3431L5.56779 62.5838C4.3781 62.5251 3.16303 63.4217 2.86737 64.5753L0.0654787 90.0139C-0.229902 91.1678 0.502349 92.1498 1.69261 92.1957L18.77 92.194C19.9606 92.24 21.0085 91.3059 21.0998 90.1182L22.9753 65.6089C23.066 64.4215 22.1669 63.4017 20.9772 63.3431ZM11.9055 88.8239C9.55234 88.8239 7.64504 86.9163 7.64504 84.5634C7.64504 82.2103 9.55262 80.303 11.9055 80.303C14.2584 80.303 16.166 82.2105 16.166 84.5634C16.166 86.9166 14.2587 88.8239 11.9055 88.8239Z" fill="#3366CC"/>
</g>
<defs>
<clipPath id="clip0_2813_1062">
<rect width="100" height="100" fill="white"/>
</clipPath>
</defs>
</svg>
