<svg width="65" height="90" viewBox="0 0 65 90" fill="none" xmlns="http://www.w3.org/2000/svg">
<path d="M48.5962 57.9785C48.6223 57.9785 48.6485 58.0078 48.6485 58.0078C48.5962 57.9785 48.5438 57.9199 48.5177 57.8906C48.256 57.6563 47.9683 57.3926 47.6805 57.1582C47.5758 57.0703 47.4973 57.0117 47.3927 56.9238C47.0002 56.6309 46.5816 56.3379 46.1369 56.0449C46.1369 56.0449 46.1369 56.0449 46.1107 56.0449C45.1427 55.459 44.07 54.9316 42.8927 54.4629C41.3491 53.877 39.6485 53.4082 37.8433 53.0859V62.1973C37.8433 64.1016 36.4566 65.625 34.7822 65.625C33.8927 65.625 33.1078 65.1855 32.5584 64.5117C32.0089 65.1855 31.1979 65.625 30.3084 65.625C28.6078 65.625 27.2473 64.1016 27.2473 62.1973V53.0859C19.5293 54.4043 13.9043 58.5059 13.9043 63.3691C13.9043 69.2871 22.2502 74.0918 32.5584 74.0918C42.8665 74.0918 51.2124 69.2871 51.2124 63.3691C51.2124 61.4355 50.2444 59.5898 48.5962 57.9785Z" fill="#3366CC"/>
<path d="M37.6861 30.4101L42.6309 24.8437L35.6977 0.9375H28.9477L22.3809 24.8144L27.3256 30.4101H37.6861ZM32.7152 21.6211C34.5727 21.6211 36.0902 23.3203 36.0902 25.4004C36.0902 27.5098 34.5727 29.1797 32.7152 29.1797C30.8576 29.1797 29.3402 27.5098 29.3402 25.4004C29.3402 23.3203 30.8576 21.6211 32.7152 21.6211Z" fill="#3366CC"/>
<path d="M50.7947 58.7988L43.4953 28.418L36.7715 36.1816V51.7383L38.0011 51.9434C43.9663 52.9394 48.5709 55.4883 50.7947 58.7988Z" fill="#3366CC"/>
<path d="M28.293 51.7382V62.2558C28.293 63.457 29.1563 64.4238 30.229 64.4531C31.2494 64.3945 32.0604 63.457 32.0604 62.3144L32.0342 51.4453C30.7523 51.4745 29.4965 51.5624 28.293 51.7382Z" fill="#3366CC"/>
<path d="M28.2153 51.7382V36.123L21.5437 28.4472L14.7676 58.1542C17.1484 55.1659 21.4914 52.8808 27.0641 51.9433L28.2153 51.7382Z" fill="#3366CC"/>
<path d="M32.9239 51.3867V44.8242H32.0605V51.3867C32.296 51.3867 32.5053 51.3867 32.7408 51.3867C32.7931 51.3867 32.8716 51.3867 32.9239 51.3867Z" fill="#3366CC"/>
<path d="M32.9246 62.3144C32.9508 63.4863 33.8141 64.4531 34.8606 64.4531C35.9333 64.4531 36.7705 63.4863 36.7705 62.3144L36.7444 51.6797C35.5147 51.5039 34.2327 51.416 32.8984 51.416L32.9246 62.3144Z" fill="#3366CC"/>
<path d="M19.9733 26.6309L21.5431 28.4473L22.3803 24.8145L22.014 24.375C22.014 24.375 22.014 24.375 22.014 24.3457C21.4646 23.7305 20.5489 23.7305 19.9995 24.3457C19.4239 24.9902 19.4239 26.0156 19.9733 26.6309Z" fill="#3366CC"/>
<path d="M45.0378 26.6601C45.6134 26.0156 45.6134 25.0195 45.0378 24.4042C44.4884 23.789 43.5727 23.789 43.0233 24.4042L42.6309 24.8437L43.4942 28.4472L45.0378 26.6601Z" fill="#3366CC"/>
<path d="M14.4405 78.8696C14.5507 78.7406 14.6668 78.5937 14.7866 78.4315C15.383 77.6253 15.861 76.7279 16.2086 75.76C16.8878 75.462 17.3287 74.8193 17.3287 74.0938V72.2511C17.3287 71.8074 17.1554 71.3776 16.8473 71.0418L14.4405 78.8696ZM5.79173 68.538C5.7694 68.3284 5.67881 67.0051 6.67019 65.9229L6.67025 65.9228C7.5262 64.9888 8.96636 64.4589 11.0709 64.4589C13.1756 64.4589 14.6157 64.9889 15.4716 65.9232L15.4716 65.9233C16.4631 67.0055 16.3725 68.3284 16.3502 68.5385L16.3473 68.5649V68.5914V71.0418V71.2364L16.4789 71.3798C16.7067 71.6281 16.8287 71.9388 16.8287 72.2511V74.0938C16.8287 74.6084 16.5169 75.0787 16.0077 75.3022L15.8107 75.3886L15.738 75.5911C15.4066 76.5141 14.9514 77.368 14.3847 78.1341L14.3845 78.1343C14.2703 78.2888 14.1616 78.4263 14.0604 78.5448L13.9405 78.6851V78.8696V80.4272C13.9405 81.0927 14.3286 81.6805 14.9278 81.9676L14.928 81.9677L19.5264 84.1678C19.5264 84.1679 19.5265 84.1679 19.5265 84.1679C20.841 84.7971 21.6424 86.051 21.6429 87.4336C21.6429 87.4336 21.6429 87.4337 21.6429 87.4337V88.7961H0.5V87.3428C0.5 86.015 1.25622 84.7839 2.49428 84.1375C2.49429 84.1375 2.4943 84.1375 2.4943 84.1375L6.78855 81.8959L6.78891 81.8957C7.35489 81.5996 7.72002 81.0243 7.72002 80.3838V78.8595V78.6844L7.61078 78.5475C7.30749 78.1676 6.43267 76.9722 6.01724 75.398L5.97367 75.2329L5.8382 75.1289C5.50155 74.8705 5.31318 74.4917 5.31318 74.0933V72.2506C5.31318 71.9384 5.43521 71.6276 5.663 71.3793L5.79455 71.2359V71.0413V68.591V68.5644L5.79173 68.538Z" fill="#3366CC" stroke="white"/>
<path d="M57.2979 78.8696C57.4082 78.7406 57.5242 78.5937 57.644 78.4315C58.2405 77.6253 58.7184 76.7279 59.066 75.76C59.7452 75.462 60.1861 74.8193 60.1861 74.0938V72.2511C60.1861 71.8074 60.0128 71.3776 59.7048 71.0418L57.2979 78.8696ZM48.6492 68.538C48.6268 68.3284 48.5362 67.0051 49.5276 65.9229L49.5277 65.9228C50.3836 64.9888 51.8238 64.4589 53.9284 64.4589C56.033 64.4589 57.4731 64.9889 58.3291 65.9232L58.3291 65.9233C59.3205 67.0055 59.2299 68.3284 59.2076 68.5385L59.2048 68.5649V68.5914V71.0418V71.2364L59.3363 71.3798C59.5641 71.6281 59.6861 71.9388 59.6861 72.2511V74.0938C59.6861 74.6084 59.3743 75.0787 58.8651 75.3022L58.6681 75.3886L58.5954 75.5911C58.264 76.5141 57.8088 77.368 57.2421 78.1341L57.242 78.1343C57.1277 78.2888 57.019 78.4263 56.9178 78.5448L56.7979 78.6851V78.8696V80.4272C56.7979 81.0927 57.186 81.6805 57.7852 81.9676L57.7854 81.9677L62.3838 84.1678C62.3839 84.1679 62.3839 84.1679 62.3839 84.1679C63.6984 84.7971 64.4998 86.051 64.5003 87.4336C64.5003 87.4336 64.5003 87.4337 64.5003 87.4337V88.7961H43.3574V87.3428C43.3574 86.015 44.1136 84.7839 45.3517 84.1375C45.3517 84.1375 45.3517 84.1375 45.3517 84.1375L49.646 81.8959L49.6463 81.8957C50.2123 81.5996 50.5774 81.0243 50.5774 80.3838V78.8595V78.6844L50.4682 78.5475C50.1649 78.1676 49.2901 76.9722 48.8747 75.398L48.8311 75.2329L48.6956 75.1289C48.359 74.8705 48.1706 74.4917 48.1706 74.0933V72.2506C48.1706 71.9384 48.2926 71.6276 48.5204 71.3793L48.652 71.2359V71.0413V68.591V68.5644L48.6492 68.538Z" fill="#3366CC" stroke="white"/>
<path d="M54.7591 82.3639L48.8255 79.4915C48.2659 79.2202 47.9181 78.6753 47.9181 78.0691V76.0356C48.0603 75.8672 48.21 75.6753 48.3647 75.4636C49.1342 74.4111 49.751 73.2395 50.1994 71.9759C51.0758 71.5867 51.6448 70.7477 51.6448 69.8005V67.3947C51.6448 66.8155 51.4212 66.2544 51.0237 65.8159V62.6169C51.0585 62.2861 51.1951 60.317 49.7243 58.6925C48.4485 57.2833 46.3783 56.5688 43.5703 56.5688C40.7622 56.5688 38.692 57.2833 37.4162 58.6919M54.7591 82.3639L54.5411 82.8139M54.7591 82.3639C56.669 83.2889 57.856 85.1486 57.8566 87.2163M54.7591 82.3639L54.5412 82.814L54.5411 82.8139M54.5411 82.8139L48.6077 79.9415L48.6075 79.9414C47.8813 79.5894 47.4181 78.8733 47.4181 78.0691V76.0356V75.8527L47.5361 75.713C47.6694 75.5551 47.8118 75.3728 47.9609 75.1687L47.961 75.1685C48.7013 74.1561 49.2956 73.0278 49.7282 71.8086L49.8001 71.6061L49.9965 71.5189C50.7015 71.2059 51.1448 70.5401 51.1448 69.8005V67.3947C51.1448 66.9451 50.9711 66.5024 50.6532 66.1518L50.5237 66.0088V65.8159V62.6169V62.5906L50.5264 62.5646C50.5568 62.2759 50.678 60.4908 49.3536 59.0281L49.3536 59.028C48.2103 57.7652 46.3051 57.0688 43.5703 57.0688C40.8354 57.0688 38.9301 57.7652 37.7868 59.0275M54.5411 82.8139C56.2843 83.6582 57.356 85.3466 57.3566 87.2163H57.8566M37.7868 59.0275C37.7868 59.0275 37.7868 59.0275 37.7869 59.0275L37.4162 58.6919M37.7868 59.0275L37.4162 58.6919M37.7868 59.0275C36.4625 60.4902 36.5837 62.2759 36.6141 62.5639L36.6168 62.59V62.6163V65.8153V66.0082L36.4873 66.1512C36.1694 66.5018 35.9957 66.9445 35.9957 67.3941V69.7999C35.9957 70.3719 36.2634 70.9108 36.7322 71.2748L36.8664 71.3791L36.9093 71.5435C37.4533 73.6291 38.5969 75.2095 38.9938 75.7127L39.1013 75.8489V76.0224V78.0125C39.1013 78.7862 38.6654 79.487 37.9799 79.8498L37.9795 79.85L32.4386 82.7766M37.4162 58.6919C35.9454 60.3164 36.0821 62.2861 36.1168 62.6163V65.8153C35.7193 66.2538 35.4957 66.8149 35.4957 67.3941V69.7999C35.4957 70.5318 35.8392 71.2144 36.4255 71.6697C36.9945 73.8512 38.1852 75.4949 38.6013 76.0224V78.0125C38.6013 78.5947 38.2734 79.1288 37.746 79.4079L32.205 82.3345M32.4386 82.7766L32.205 82.3345M32.4386 82.7766L32.4385 82.7766L32.205 82.3345M32.4386 82.7766C30.796 83.6442 29.7852 85.3019 29.7852 87.0979V89.148M32.205 82.3345C30.4038 83.2859 29.2852 85.1107 29.2852 87.0979V89.148H29.7852M29.7852 89.148H57.3566M29.7852 89.148V89.648H57.3566V89.148M57.3566 89.148H57.8566V87.2163M57.3566 89.148V87.2165L57.8566 87.2163" fill="#33CCFF" stroke="white"/>
<path d="M33.3313 82.3639L27.3978 79.4915C26.8382 79.2202 26.4903 78.6753 26.4903 78.0691V76.0356C26.6326 75.8672 26.7823 75.6753 26.9369 75.4636C27.7065 74.4111 28.3233 73.2395 28.7717 71.9759C29.6481 71.5867 30.217 70.7477 30.217 69.8005V67.3947C30.217 66.8155 29.9934 66.2544 29.5959 65.8159V62.6169C29.6307 62.2861 29.7674 60.317 28.2966 58.6925C27.0208 57.2833 24.9506 56.5688 22.1425 56.5688C19.3344 56.5688 17.2643 57.2833 15.9885 58.6919M33.3313 82.3639L33.1134 82.8139M33.3313 82.3639C35.2413 83.2889 36.4282 85.1486 36.4288 87.2163M33.3313 82.3639L33.1135 82.814L33.1134 82.8139M33.1134 82.8139L27.1799 79.9415L27.1797 79.9414C26.4535 79.5894 25.9903 78.8733 25.9903 78.0691V76.0356V75.8527L26.1084 75.713C26.2417 75.5551 26.3841 75.3728 26.5332 75.1687L26.5333 75.1685C27.2735 74.1561 27.8678 73.0278 28.3005 71.8086L28.3724 71.6061L28.5688 71.5189C29.2738 71.2059 29.717 70.5401 29.717 69.8005V67.3947C29.717 66.9451 29.5434 66.5024 29.2255 66.1518L29.0959 66.0088V65.8159V62.6169V62.5906L29.0987 62.5646C29.129 62.2759 29.2502 60.4908 27.9259 59.0281L27.9259 59.028C26.7826 57.7652 24.8774 57.0688 22.1425 57.0688C19.4076 57.0688 17.5024 57.7652 16.3591 59.0275M33.1134 82.8139C34.8566 83.6582 35.9282 85.3466 35.9288 87.2163H36.4288M16.3591 59.0275C16.3591 59.0275 16.3591 59.0275 16.3591 59.0275L15.9885 58.6919M16.3591 59.0275L15.9885 58.6919M16.3591 59.0275C15.0348 60.4902 15.156 62.2759 15.1863 62.5639L15.1891 62.59V62.6163V65.8153V66.0082L15.0595 66.1512C14.7416 66.5018 14.568 66.9445 14.568 67.3941V69.7999C14.568 70.3719 14.8357 70.9108 15.3044 71.2748L15.4387 71.3791L15.4816 71.5435C16.0256 73.6291 17.1691 75.2095 17.5661 75.7127L17.6736 75.8489V76.0224V78.0125C17.6736 78.7862 17.2376 79.487 16.5522 79.8498L16.5518 79.85L11.0108 82.7766M15.9885 58.6919C14.5177 60.3164 14.6543 62.2861 14.6891 62.6163V65.8153C14.2916 66.2538 14.068 66.8149 14.068 67.3941V69.7999C14.068 70.5318 14.4115 71.2144 14.9978 71.6697C15.5667 73.8512 16.7574 75.4949 17.1736 76.0224V78.0125C17.1736 78.5947 16.8456 79.1288 16.3183 79.4079L10.7773 82.3345M11.0108 82.7766L10.7773 82.3345M11.0108 82.7766L11.0108 82.7766L10.7773 82.3345M11.0108 82.7766C9.3683 83.6442 8.35742 85.3019 8.35742 87.0979V89.148M10.7773 82.3345C8.97605 83.2859 7.85742 85.1107 7.85742 87.0979V89.148H8.35742M8.35742 89.148H35.9288M8.35742 89.148V89.648H35.9288V89.148M35.9288 89.148H36.4288V87.2163M35.9288 89.148V87.2165L36.4288 87.2163" fill="#33CCFF" stroke="white"/>
<path d="M38.5724 74.0705C38.736 73.8734 38.9081 73.6489 39.086 73.4012C39.971 72.1695 40.6802 70.7985 41.196 69.3198C42.2038 68.8644 42.8581 67.8826 42.8581 66.7741V63.9588C42.8581 63.2811 42.601 62.6244 42.1438 62.1113L38.5724 74.0705ZM25.4983 58.3156C25.4625 57.9698 25.3209 55.8467 26.8688 54.107C28.2041 52.6069 30.4187 51.7902 33.5724 51.7902C36.7261 51.7902 38.9407 52.6069 40.276 54.1077L40.276 54.1077C41.8238 55.8474 41.6823 57.9698 41.6465 58.3164L41.6438 58.342V58.3678V62.1113V62.3018L41.7705 62.444C42.149 62.8688 42.3581 63.4081 42.3581 63.9588V66.7741C42.3581 67.6799 41.8246 68.4871 40.9901 68.8641L40.7945 68.9525L40.7239 69.1551C40.2235 70.5899 39.5361 71.9179 38.6799 73.1094L38.6798 73.1096C38.5074 73.3497 38.3424 73.5647 38.1877 73.7512L38.0724 73.89V74.0705V76.4501C38.0724 77.3529 38.5832 78.1627 39.3948 78.563L39.395 78.5632L46.2185 81.9245C48.2467 82.9241 49.501 84.928 49.5017 87.1544C49.5017 87.1544 49.5017 87.1545 49.5017 87.1545V89.4999H17.6445V87.0157C17.6445 84.877 18.8275 82.9095 20.7391 81.882C20.7391 81.882 20.7391 81.882 20.7391 81.882L27.1112 78.4572L27.1116 78.457C27.8772 78.0447 28.3581 77.2522 28.3581 76.3839V74.055V73.8839L28.2532 73.7487C27.7937 73.156 26.4703 71.2955 25.8403 68.8374L25.7984 68.6739L25.6659 68.5692C25.1089 68.1291 24.7867 67.4735 24.7867 66.7734V63.9581C24.7867 63.4074 24.9958 62.8681 25.3743 62.4433L25.501 62.3011V62.1106V58.3671V58.3412L25.4983 58.3156Z" fill="#3366CC" stroke="white"/>
<g clip-path="url(#clip0_3988_2366)">
<path d="M43.345 82.906C43.193 82.7562 43.0125 82.6373 42.8138 82.5562C42.6152 82.4751 42.4023 82.4333 42.1872 82.4333C41.9722 82.4333 41.7593 82.4751 41.5606 82.5562C41.362 82.6373 41.1815 82.7562 41.0295 82.906L40.714 83.2169L40.3985 82.906C40.0915 82.6035 39.675 82.4335 39.2408 82.4335C38.8066 82.4335 38.3901 82.6035 38.0831 82.906C37.776 83.2086 37.6035 83.6189 37.6035 84.0468C37.6035 84.4747 37.776 84.885 38.0831 85.1876L38.3985 85.4984L40.714 87.7799L43.0295 85.4984L43.345 85.1876C43.4971 85.0378 43.6177 84.8599 43.7 84.6642C43.7823 84.4685 43.8247 84.2587 43.8247 84.0468C43.8247 83.8349 43.7823 83.6251 43.7 83.4294C43.6177 83.2336 43.4971 83.0558 43.345 82.906Z" fill="#FF6666"/>
</g>
<g clip-path="url(#clip1_3988_2366)">
<path d="M36.6859 33.9354C36.6008 33.8503 36.4997 33.7827 36.3885 33.7366C36.2772 33.6905 36.158 33.6668 36.0376 33.6668C35.9172 33.6668 35.7979 33.6905 35.6867 33.7366C35.5754 33.7827 35.4744 33.8503 35.3893 33.9354L35.2126 34.1121L35.0359 33.9354C34.864 33.7635 34.6308 33.6669 34.3876 33.6669C34.1444 33.6669 33.9112 33.7635 33.7393 33.9354C33.5673 34.1074 33.4707 34.3406 33.4707 34.5838C33.4707 34.827 33.5673 35.0602 33.7393 35.2321L33.9159 35.4088L35.2126 36.7054L36.5093 35.4088L36.6859 35.2321C36.7711 35.147 36.8386 35.0459 36.8847 34.9347C36.9308 34.8234 36.9546 34.7042 36.9546 34.5838C36.9546 34.4634 36.9308 34.3441 36.8847 34.2329C36.8386 34.1216 36.7711 34.0206 36.6859 33.9354Z" fill="#FF6666"/>
</g>
<defs>
<clipPath id="clip0_3988_2366">
<rect width="7.14286" height="7.03812" fill="white" transform="translate(37.1426 81.5541)"/>
</clipPath>
<clipPath id="clip1_3988_2366">
<rect width="4" height="4" fill="white" transform="translate(33.2129 33.1671)"/>
</clipPath>
</defs>
</svg>
