<svg width="250" height="40" viewBox="0 0 250 40" fill="none" xmlns="http://www.w3.org/2000/svg">
<rect x="0.5" y="0.5" width="249" height="39" rx="4.5" fill="white" stroke="#3366CC"/>
<path d="M31.826 26.108C33.338 26.108 34.544 25.64 35.444 24.686C36.344 23.732 36.794 22.436 36.794 20.798V13.22H35.228V20.69C35.228 21.914 34.904 22.868 34.274 23.57C33.644 24.29 32.834 24.632 31.826 24.632C30.782 24.632 29.972 24.272 29.36 23.552C28.748 22.832 28.442 21.878 28.442 20.69V13.22H26.876V20.798C26.876 22.454 27.326 23.768 28.226 24.704C29.126 25.64 30.332 26.108 31.826 26.108ZM39.9089 29.564H41.3669V24.488H41.3849C42.0689 25.568 43.1129 26.108 44.4989 26.108C45.7229 26.108 46.7309 25.712 47.5409 24.884C48.3509 24.056 48.7649 22.994 48.7649 21.68C48.7649 20.384 48.3509 19.286 47.5589 18.422C46.7489 17.558 45.7229 17.126 44.4989 17.126C43.1309 17.126 42.0869 17.684 41.3849 18.782H41.3669V17.234H39.9089V29.564ZM44.3009 24.776C43.4369 24.776 42.7349 24.488 42.1589 23.912C41.5829 23.336 41.2949 22.598 41.2949 21.68C41.2949 20.78 41.5649 20.006 42.1229 19.394C42.6809 18.782 43.4009 18.458 44.2829 18.458C45.1289 18.458 45.8489 18.764 46.4249 19.358C47.0009 19.97 47.2889 20.744 47.2889 21.68C47.2889 22.58 47.0009 23.318 46.4429 23.894C45.8849 24.488 45.1649 24.776 44.3009 24.776ZM51.4336 26H52.8916V12.752H51.4336V26ZM60.0757 26.108C61.3717 26.108 62.4517 25.694 63.3157 24.866C64.1617 24.038 64.5937 22.958 64.5937 21.626C64.5937 20.312 64.1617 19.232 63.3157 18.386C62.4517 17.558 61.3717 17.126 60.0757 17.126C58.7257 17.126 57.6277 17.558 56.7997 18.422C55.9537 19.286 55.5397 20.348 55.5397 21.626C55.5397 22.922 55.9537 23.984 56.7997 24.83C57.6277 25.694 58.7257 26.108 60.0757 26.108ZM60.0757 24.776C59.1757 24.776 58.4557 24.488 57.8797 23.876C57.3037 23.264 57.0337 22.526 57.0337 21.626C57.0337 20.744 57.3037 19.988 57.8797 19.376C58.4377 18.764 59.1757 18.458 60.0757 18.458C60.9217 18.458 61.6417 18.764 62.2177 19.358C62.7937 19.952 63.0997 20.708 63.0997 21.626C63.0997 22.562 62.7937 23.318 62.2177 23.894C61.6417 24.488 60.9217 24.776 60.0757 24.776ZM70.8176 26.108C72.2216 26.108 73.2656 25.55 73.9496 24.416H73.9676V26H75.3716V17.234H73.9136V18.782L73.8776 18.8C73.5536 18.278 73.1396 17.864 72.5996 17.576C72.0596 17.288 71.4656 17.126 70.8176 17.126C69.5756 17.126 68.5496 17.558 67.7576 18.422C66.9476 19.286 66.5516 20.384 66.5516 21.68C66.5516 22.994 66.9476 24.056 67.7576 24.884C68.5676 25.712 69.5936 26.108 70.8176 26.108ZM71.0336 24.776C70.1336 24.776 69.4136 24.488 68.8556 23.894C68.2976 23.318 68.0276 22.58 68.0276 21.68C68.0276 20.744 68.3156 19.97 68.8916 19.358C69.4676 18.764 70.1696 18.458 71.0336 18.458C71.8796 18.458 72.5816 18.782 73.1396 19.394C73.6796 20.006 73.9676 20.78 73.9676 21.68C73.9676 22.598 73.6796 23.336 73.1216 23.912C72.5456 24.488 71.8616 24.776 71.0336 24.776ZM82.0769 26.108C83.4989 26.108 84.5609 25.532 85.2449 24.38H85.2629V26H86.6669V12.752H85.2089V18.8H85.1909C84.4889 17.684 83.4449 17.126 82.0589 17.126C80.8349 17.126 79.8089 17.576 78.9989 18.44C78.1709 19.304 77.7749 20.384 77.7749 21.68C77.7749 22.994 78.1709 24.056 78.9989 24.884C79.8089 25.712 80.8349 26.108 82.0769 26.108ZM82.2749 24.776C81.3749 24.776 80.6549 24.488 80.0969 23.894C79.5389 23.318 79.2689 22.58 79.2689 21.68C79.2689 20.744 79.5569 19.97 80.1329 19.358C80.7089 18.764 81.4289 18.458 82.2929 18.458C83.1569 18.458 83.8589 18.782 84.4169 19.394C84.9749 20.006 85.2629 20.78 85.2629 21.68C85.2629 22.598 84.9749 23.336 84.3989 23.912C83.8229 24.488 83.1029 24.776 82.2749 24.776ZM101.062 26.09C103.096 26.09 104.752 25.55 106.03 24.47V19.412H100.756V20.834H104.464V23.588C103.528 24.308 102.394 24.65 101.062 24.65C99.6402 24.65 98.4882 24.182 97.6242 23.246C96.7422 22.31 96.3102 21.104 96.3102 19.628C96.3102 18.116 96.7422 16.91 97.6242 15.974C98.5062 15.056 99.6222 14.588 100.99 14.588C102.484 14.588 103.744 15.092 104.77 16.064L105.868 15.092C104.572 13.76 102.952 13.094 101.008 13.094C99.1002 13.094 97.5522 13.706 96.4002 14.93C95.2482 16.154 94.6722 17.72 94.6722 19.628C94.6722 21.59 95.2662 23.156 96.4722 24.326C97.6602 25.514 99.1902 26.09 101.062 26.09ZM112.938 26.108C114.126 26.108 115.134 25.802 115.962 25.154C116.79 24.506 117.222 23.624 117.222 22.508C117.204 21.374 116.736 20.492 115.8 19.844C115.404 19.592 114.558 19.214 113.262 18.692C112.758 18.512 112.38 18.35 112.128 18.242C111.876 18.134 111.606 17.972 111.318 17.792C111.012 17.612 110.796 17.396 110.688 17.18C110.58 16.964 110.526 16.712 110.526 16.406C110.526 15.83 110.76 15.362 111.192 15.038C111.624 14.714 112.164 14.534 112.812 14.534C113.82 14.534 114.846 14.966 115.89 15.83L116.844 14.588C115.602 13.598 114.252 13.094 112.812 13.094C111.696 13.094 110.778 13.436 110.022 14.084C109.266 14.732 108.906 15.542 108.906 16.478C108.906 16.91 108.978 17.306 109.14 17.666C109.284 18.026 109.464 18.332 109.68 18.566C109.896 18.818 110.184 19.052 110.562 19.268C110.94 19.502 111.282 19.682 111.57 19.808C111.858 19.934 112.254 20.078 112.722 20.24C113.622 20.582 114.216 20.834 114.522 20.996C115.224 21.41 115.584 21.968 115.584 22.688C115.584 23.3 115.332 23.786 114.864 24.128C114.378 24.488 113.748 24.65 112.956 24.65C112.308 24.65 111.66 24.506 111.03 24.2C110.4 23.912 109.86 23.48 109.428 22.922L108.42 24.128C109.644 25.46 111.156 26.108 112.938 26.108ZM122.576 26H124.142V14.642H128.012V13.22H118.76V14.642H122.576V26ZM141.56 26.09C143.576 26.09 145.25 25.298 146.546 23.678L145.376 22.688C144.35 23.984 143.072 24.614 141.56 24.614C140.174 24.614 139.04 24.164 138.158 23.264C137.258 22.364 136.826 21.158 136.826 19.646C136.826 18.17 137.24 16.946 138.104 16.01C138.968 15.074 140.102 14.588 141.542 14.588C143.054 14.588 144.314 15.236 145.358 16.514L146.528 15.542C145.196 13.922 143.522 13.094 141.542 13.094C139.562 13.094 137.996 13.724 136.88 14.966C135.746 16.208 135.188 17.774 135.188 19.646C135.188 21.662 135.782 23.246 137.006 24.38C138.23 25.532 139.742 26.09 141.56 26.09ZM156.657 21.464C156.657 20.204 156.279 19.178 155.523 18.35C154.767 17.54 153.813 17.126 152.625 17.126C151.365 17.126 150.321 17.558 149.511 18.386C148.701 19.232 148.305 20.312 148.305 21.626C148.305 22.958 148.701 24.038 149.529 24.866C150.357 25.694 151.419 26.108 152.733 26.108C154.281 26.108 155.487 25.568 156.351 24.47L155.325 23.606C154.677 24.398 153.831 24.776 152.787 24.776C151.959 24.776 151.275 24.542 150.735 24.038C150.195 23.552 149.871 22.886 149.781 22.058H156.621C156.621 22.04 156.621 21.95 156.639 21.806C156.639 21.662 156.657 21.554 156.657 21.464ZM152.607 18.458C153.309 18.458 153.885 18.692 154.353 19.124C154.803 19.556 155.091 20.15 155.199 20.87H149.817C149.943 20.132 150.267 19.538 150.771 19.106C151.275 18.674 151.887 18.458 152.607 18.458ZM159.155 26H160.613V21.77C160.613 20.87 160.847 20.15 161.333 19.574C161.801 19.016 162.449 18.728 163.277 18.728C163.367 18.728 163.565 18.746 163.853 18.764V17.144C163.763 17.144 163.637 17.126 163.493 17.126C162.269 17.126 161.315 17.702 160.649 18.836H160.613V17.234H159.155V26ZM168.326 26.108C169.118 26.108 169.838 25.928 170.45 25.568L170.072 24.29C169.514 24.596 169.01 24.74 168.578 24.74C168.182 24.74 167.894 24.632 167.75 24.38C167.588 24.128 167.516 23.732 167.516 23.174V18.494H170.414V17.234H167.516V14.084L166.058 14.246V17.234H164.924V18.494H166.058V23.39C166.058 25.208 166.814 26.108 168.326 26.108ZM173.518 15.632C173.806 15.632 174.058 15.542 174.274 15.326C174.472 15.128 174.58 14.876 174.58 14.588C174.58 14.3 174.472 14.066 174.274 13.85C174.058 13.652 173.806 13.544 173.518 13.544C173.212 13.544 172.96 13.652 172.762 13.85C172.546 14.066 172.456 14.3 172.456 14.588C172.456 14.876 172.546 15.128 172.762 15.326C172.96 15.542 173.212 15.632 173.518 15.632ZM172.78 26H174.238V17.234H172.78V26ZM177.804 26H179.262V18.494H181.746V17.234H179.262V15.596C179.262 14.516 179.658 13.976 180.45 13.976C180.864 13.976 181.368 14.138 181.98 14.444L182.304 13.202C181.692 12.824 181.008 12.626 180.27 12.626C179.478 12.626 178.866 12.878 178.434 13.346C178.002 13.832 177.804 14.534 177.804 15.452V17.234H176.742V18.494H177.804V26ZM184.626 15.632C184.914 15.632 185.166 15.542 185.382 15.326C185.58 15.128 185.688 14.876 185.688 14.588C185.688 14.3 185.58 14.066 185.382 13.85C185.166 13.652 184.914 13.544 184.626 13.544C184.32 13.544 184.068 13.652 183.87 13.85C183.654 14.066 183.564 14.3 183.564 14.588C183.564 14.876 183.654 15.128 183.87 15.326C184.068 15.542 184.32 15.632 184.626 15.632ZM183.888 26H185.346V17.234H183.888V26ZM192.368 26.108C193.916 26.108 195.122 25.604 195.986 24.578L194.978 23.66C194.366 24.416 193.538 24.776 192.476 24.776C191.576 24.776 190.856 24.488 190.316 23.912C189.758 23.336 189.488 22.562 189.488 21.626C189.488 20.69 189.758 19.934 190.316 19.34C190.856 18.764 191.594 18.458 192.494 18.458C193.502 18.458 194.312 18.836 194.96 19.574L195.95 18.692C195.518 18.188 194.996 17.81 194.366 17.54C193.736 17.27 193.088 17.126 192.422 17.126C191.108 17.126 190.046 17.558 189.218 18.386C188.39 19.232 187.994 20.312 187.994 21.626C187.994 22.958 188.39 24.038 189.218 24.866C190.028 25.694 191.072 26.108 192.368 26.108ZM201.989 26.108C203.393 26.108 204.437 25.55 205.121 24.416H205.139V26H206.543V17.234H205.085V18.782L205.049 18.8C204.725 18.278 204.311 17.864 203.771 17.576C203.231 17.288 202.637 17.126 201.989 17.126C200.747 17.126 199.721 17.558 198.929 18.422C198.119 19.286 197.723 20.384 197.723 21.68C197.723 22.994 198.119 24.056 198.929 24.884C199.739 25.712 200.765 26.108 201.989 26.108ZM202.205 24.776C201.305 24.776 200.585 24.488 200.027 23.894C199.469 23.318 199.199 22.58 199.199 21.68C199.199 20.744 199.487 19.97 200.063 19.358C200.639 18.764 201.341 18.458 202.205 18.458C203.051 18.458 203.753 18.782 204.311 19.394C204.851 20.006 205.139 20.78 205.139 21.68C205.139 22.598 204.851 23.336 204.293 23.912C203.717 24.488 203.033 24.776 202.205 24.776ZM211.988 26.108C212.78 26.108 213.5 25.928 214.112 25.568L213.734 24.29C213.176 24.596 212.672 24.74 212.24 24.74C211.844 24.74 211.556 24.632 211.412 24.38C211.25 24.128 211.178 23.732 211.178 23.174V18.494H214.076V17.234H211.178V14.084L209.72 14.246V17.234H208.586V18.494H209.72V23.39C209.72 25.208 210.476 26.108 211.988 26.108ZM223.758 21.464C223.758 20.204 223.38 19.178 222.624 18.35C221.868 17.54 220.914 17.126 219.726 17.126C218.466 17.126 217.422 17.558 216.612 18.386C215.802 19.232 215.406 20.312 215.406 21.626C215.406 22.958 215.802 24.038 216.63 24.866C217.458 25.694 218.52 26.108 219.834 26.108C221.382 26.108 222.588 25.568 223.452 24.47L222.426 23.606C221.778 24.398 220.932 24.776 219.888 24.776C219.06 24.776 218.376 24.542 217.836 24.038C217.296 23.552 216.972 22.886 216.882 22.058H223.722C223.722 22.04 223.722 21.95 223.74 21.806C223.74 21.662 223.758 21.554 223.758 21.464ZM219.708 18.458C220.41 18.458 220.986 18.692 221.454 19.124C221.904 19.556 222.192 20.15 222.3 20.87H216.918C217.044 20.132 217.368 19.538 217.872 19.106C218.376 18.674 218.988 18.458 219.708 18.458Z" fill="#3366CC"/>
</svg>
