<svg width="60" height="48" viewBox="0 0 60 48" fill="none" xmlns="http://www.w3.org/2000/svg">
<path d="M50.9906 23.5691C50.9906 23.466 51 23.3629 51 23.2504C51 18.6941 47.3063 15.0004 42.75 15.0004H39H30H28.5V16.5004V23.2504C28.5 25.3223 26.8219 27.0004 24.75 27.0004C22.6781 27.0004 21 25.3223 21 23.2504V12.0004H21.0375C21.4125 8.62539 24.2719 6.00039 27.75 6.00039H38.25C38.5125 6.00039 38.775 6.01914 39.0281 6.04727L42.7875 2.28789C44.8406 0.234766 48.1594 0.234766 50.2125 2.28789L57.5344 9.60977C59.5875 11.6629 59.5875 14.9816 57.5344 17.0348L51 23.5691H50.9906ZM18 12.0004V23.2504C18 26.9816 21.0187 30.0004 24.75 30.0004C28.4813 30.0004 31.5 26.9816 31.5 23.2504V18.0004H39H42.75C45.6469 18.0004 48 20.3535 48 23.2504C48 25.8004 46.1813 27.9285 43.7625 28.4066C44.5312 29.2129 45 30.3004 45 31.5004C45 33.9848 42.9844 36.0004 40.5 36.0004H40.2469C40.4156 36.4691 40.5 36.9754 40.5 37.5004C40.5 39.9848 38.4844 42.0004 36 42.0004H21C20.9156 42.0004 20.8313 42.0004 20.7469 41.991L17.2125 45.5254C15.1594 47.5785 11.8406 47.5785 9.7875 45.5254L2.46562 38.2129C0.4125 36.1598 0.4125 32.841 2.46562 30.7879L9 24.2535V21.0004C9 16.0316 13.0312 12.0004 18 12.0004Z" fill="#FF6666"/>
</svg>
