<svg width="80" height="80" viewBox="0 0 80 80" fill="none" xmlns="http://www.w3.org/2000/svg">
<path d="M69.4664 15.3666C67.7639 13.6633 65.7425 12.3121 63.5176 11.3903C61.2927 10.4684 58.908 9.9939 56.4998 9.9939C54.0915 9.9939 51.7068 10.4684 49.4819 11.3903C47.257 12.3121 45.2356 13.6633 43.5331 15.3666L39.9997 18.9L36.4664 15.3666C33.0274 11.9277 28.3632 9.99568 23.4997 9.99568C18.6363 9.99568 13.9721 11.9277 10.5331 15.3666C7.09411 18.8056 5.16211 23.4699 5.16211 28.3333C5.16211 33.1968 7.09411 37.861 10.5331 41.3L14.0664 44.8333L39.9997 70.7666L65.9331 44.8333L69.4664 41.3C71.1697 39.5975 72.5209 37.576 73.4428 35.3512C74.3647 33.1263 74.8392 30.7416 74.8392 28.3333C74.8392 25.925 74.3647 23.5403 73.4428 21.3155C72.5209 19.0906 71.1697 17.0692 69.4664 15.3666V15.3666Z" stroke="#3366CC" stroke-width="2" stroke-linecap="round" stroke-linejoin="round"/>
</svg>
