<svg width="107" height="107" viewBox="0 0 107 107" fill="none" xmlns="http://www.w3.org/2000/svg">
<g clip-path="url(#clip0_4924_20386)">
<path fill-rule="evenodd" clip-rule="evenodd" d="M58.7598 25.3711H38.5708C32.2718 33.14 31.3463 54.4024 4.92263 67.1056C2.38493 68.3256 5.29772 70.8722 11.0216 72.9505C12.4008 73.4513 9.20692 75.6643 10.0051 78.2871C10.7561 80.7549 16.9577 78.7831 18.1371 79.7196C21.2774 82.2133 21.6837 84.2893 23.7279 84.6402C26.0404 85.0372 26.8173 83.7371 27.7939 83.1155C28.7883 82.4824 39.4117 76.8251 42.8534 79.82C53.7996 89.3454 52.7978 80.6954 55.089 81.0436C55.5014 81.1061 55.9398 81.0606 56.3126 81.225C68.7757 86.7284 71.4867 86.7746 80.1724 82.2669C80.2583 82.2225 82.4303 80.7208 83.843 78.5964C84.8404 77.0965 84.7934 74.6722 86.2902 74.9255C94.5984 76.3321 88.479 63.2879 94.8553 60.8546C107.144 56.165 101.835 47.6574 101.754 47.7011C84.8923 56.7052 77.8091 46.2493 74.6663 42.5009C74.5184 42.4163 72.2701 39.6969 71.3014 38.5244C70.4697 37.5178 69.7365 36.5155 68.8542 35.4655C67.8052 34.2167 58.5573 26.6194 58.7598 25.3711Z" fill="#3366CC"/>
<path fill-rule="evenodd" clip-rule="evenodd" d="M48.3107 57.8274C48.2455 57.8496 47.4215 57.8274 47.4215 57.8274C47.6542 59.0542 43.2102 70.3793 40.4561 73.3883C39.9042 73.9912 39.6481 75.2862 39.5669 76.3523C39.2234 80.8549 37.0197 88.7711 34.7555 93.5435C33.9703 95.198 32.8816 98.5496 32.1569 99.175C32.1569 99.175 33.2026 101.288 32.4533 101.843C30.6927 103.144 31.7618 105.646 30.6749 105.992C29.588 106.338 26.3202 105.171 25.9326 103.917C25.5656 102.73 26.6525 102.513 28.8965 98.1376C29.5803 96.8041 28.6165 88.4297 29.1929 84.6515C30.1877 78.134 32.6493 76.5927 33.0461 74.2775C33.9626 68.9338 35.1541 58.0005 37.4921 51.4548C37.4746 51.4412 37.4921 51.4548 37.4921 51.4548C37.4921 51.4548 35.5667 50.632 34.8245 49.6764C34.7949 48.2931 34.8977 46.9101 35.1209 45.5268C31.1776 43.2028 25.7194 39.5319 24.747 37.2277C23.4437 34.1404 33.3286 19.3922 34.8245 19.1473L42.5309 16.7762C43.2257 16.5506 43.7227 16.2065 44.0129 15.7385C44.4246 14.5037 44.4907 13.2686 44.0129 12.0338L43.1237 9.51439L42.5309 9.06979C41.457 7.63166 40.6784 6.3447 42.5309 6.4022C42.5309 6.4022 42.7677 3.46577 42.9755 2.54901C43.1341 1.8501 42.3762 2.7144 42.3827 2.25261C42.3833 2.20489 43.0831 1.9245 42.9755 1.65982C42.8993 1.47249 42.343 1.57979 42.5309 1.45204C42.621 1.39068 42.9927 1.25108 43.1237 1.21522C44.4945 0.840569 43.1187 0.948162 43.5683 0.918819C44.2053 0.877026 44.8736 0.599004 45.7913 0.47422C45.9134 0.457622 46.6526 0.173375 47.4087 0.47422C47.6737 0.579738 48.2274 0.357736 49.2082 0.177821C50.1676 0.00176057 49.1486 0.676661 49.3481 0.62242C49.7746 0.506231 51.8577 -0.0865663 50.2373 0.770619C50.0046 0.893625 50.5793 0.969799 51.2747 0.62242C51.5485 0.48578 51.9256 0.302605 52.4603 0.326021C52.5483 0.329874 51.0945 1.15861 51.4229 1.06702C52.6434 0.726456 52.8062 0.597819 53.0531 0.62242C53.2558 0.642575 53.0323 0.922672 52.9049 1.21522C52.8776 1.27776 52.914 1.63018 52.9049 1.65982L53.0009 6.5504C54.6364 6.66896 54.1385 7.80357 53.0531 9.21799L52.6085 9.36619L51.4229 12.0338C50.7785 13.5158 50.8541 14.405 51.4229 15.887C51.8829 16.2566 52.4514 16.5625 53.2013 16.7762L61.7968 19.4437C62.8674 19.3545 71.5294 33.5805 70.9852 35.7457C70.3278 38.3617 60.5416 46.2219 60.1666 45.675L60.0184 49.5282C59.3133 50.1735 58.9401 50.6987 57.9436 51.4548C57.9786 51.5538 58.0133 51.6525 58.0474 51.7512C60.736 59.5465 60.3086 66.6684 62.3896 74.2775C63.7791 79.3581 66.9144 83.2214 66.8356 90.2831C66.7911 94.2613 66.4168 96.2425 66.5392 99.4714C67.3101 101.691 70.1947 103.325 70.096 104.51C69.9973 105.696 67.132 106.881 65.9464 106.585C64.7608 106.289 65.3154 103.938 62.9824 102.732C61.7378 102.089 63.5752 99.4714 63.5752 99.4714C59.5513 93.9285 57.5358 85.7565 56.352 78.1307C56.1567 76.8716 56.0147 75.3878 55.276 74.2775C53.5833 71.7329 48.6963 62.5461 48.3107 57.8274ZM37.4921 51.4548C38.3327 48.0785 39.1724 46.1561 38.9741 45.5268C36.6551 41.3936 34.1046 37.9779 31.2677 35.4493C33.5817 33.6786 35.4135 31.2452 36.8993 28.3357C36.8735 29.4271 38.5141 34.5776 39.3046 37.9687C39.9018 40.531 38.7877 45.6665 38.9741 45.5268L37.4921 51.4548ZM57.9436 51.4548C57.2492 47.9997 55.9996 45.9024 56.1652 45.2304C58.3287 41.4508 61.0751 38.3641 64.4644 36.0421C63.4673 35.5761 61.5499 32.517 59.1292 28.0393C58.7478 29.454 58.3079 31.2926 55.7841 37.2277C55.5802 39.7966 55.7393 42.6616 56.1652 45.2304" fill="white"/>
<path d="M57.9436 51.4548C57.2492 47.9997 55.9996 45.9024 56.1652 45.2304C58.3287 41.4508 61.0751 38.3641 64.4644 36.0421C63.4673 35.5761 61.5499 32.517 59.1292 28.0393C58.7478 29.454 58.3079 31.2926 55.7841 37.2277C55.5802 39.7966 55.7393 42.6616 56.1652 45.2304M48.3107 57.8274C48.2455 57.8496 47.4215 57.8274 47.4215 57.8274C47.6542 59.0542 43.2102 70.3793 40.4561 73.3883C39.9042 73.9912 39.6481 75.2862 39.5669 76.3523C39.2234 80.8549 37.0197 88.7711 34.7555 93.5435C33.9703 95.198 32.8816 98.5496 32.1569 99.175C32.1569 99.175 33.2026 101.288 32.4533 101.843C30.6927 103.144 31.7618 105.646 30.6749 105.992C29.588 106.338 26.3202 105.171 25.9326 103.917C25.5656 102.73 26.6525 102.513 28.8965 98.1376C29.5803 96.8041 28.6165 88.4297 29.1929 84.6515C30.1877 78.134 32.6493 76.5927 33.0461 74.2775C33.9626 68.9338 35.1541 58.0005 37.4921 51.4548C37.4746 51.4412 37.4921 51.4548 37.4921 51.4548C37.4921 51.4548 35.5667 50.632 34.8245 49.6764C34.7949 48.2931 34.8977 46.9101 35.1209 45.5268C31.1776 43.2028 25.7194 39.5319 24.747 37.2277C23.4437 34.1404 33.3286 19.3922 34.8245 19.1473L42.5309 16.7762C43.2257 16.5506 43.7227 16.2065 44.0129 15.7385C44.4246 14.5037 44.4907 13.2686 44.0129 12.0338L43.1237 9.51439L42.5309 9.06979C41.457 7.63166 40.6784 6.3447 42.5309 6.4022C42.5309 6.4022 42.7677 3.46577 42.9755 2.54901C43.1341 1.8501 42.3762 2.7144 42.3827 2.25261C42.3833 2.20489 43.0831 1.9245 42.9755 1.65982C42.8993 1.47249 42.343 1.57979 42.5309 1.45204C42.621 1.39068 42.9927 1.25108 43.1237 1.21522C44.4945 0.840569 43.1187 0.948162 43.5683 0.918819C44.2053 0.877026 44.8736 0.599004 45.7913 0.47422C45.9134 0.457622 46.6526 0.173375 47.4087 0.47422C47.6737 0.579738 48.2274 0.357736 49.2082 0.177821C50.1676 0.00176058 49.1486 0.676661 49.3481 0.62242C49.7746 0.506231 51.8577 -0.0865663 50.2373 0.770619C50.0046 0.893625 50.5793 0.969799 51.2747 0.62242C51.5485 0.48578 51.9256 0.302605 52.4603 0.326021C52.5483 0.329874 51.0945 1.15861 51.4229 1.06702C52.6434 0.726456 52.8062 0.597819 53.0531 0.62242C53.2558 0.642575 53.0323 0.922672 52.9049 1.21522C52.8776 1.27776 52.914 1.63018 52.9049 1.65982L53.0009 6.5504C54.6364 6.66896 54.1385 7.80357 53.0531 9.21799L52.6085 9.36619L51.4229 12.0338C50.7785 13.5158 50.8541 14.405 51.4229 15.887C51.8829 16.2566 52.4514 16.5625 53.2013 16.7762L61.7968 19.4437C62.8674 19.3545 71.5294 33.5805 70.9852 35.7457C70.3278 38.3617 60.5416 46.2219 60.1666 45.675L60.0184 49.5282C59.3133 50.1735 58.9401 50.6987 57.9436 51.4548C57.9786 51.5538 58.0133 51.6525 58.0474 51.7512C60.736 59.5465 60.3086 66.6684 62.3896 74.2775C63.7791 79.3581 66.9144 83.2214 66.8356 90.2831C66.7911 94.2613 66.4168 96.2425 66.5392 99.4714C67.3101 101.691 70.1947 103.325 70.096 104.51C69.9973 105.696 67.132 106.881 65.9464 106.585C64.7608 106.289 65.3154 103.938 62.9824 102.732C61.7378 102.089 63.5752 99.4714 63.5752 99.4714C59.5513 93.9285 57.5358 85.7565 56.352 78.1307C56.1567 76.8716 56.0147 75.3878 55.276 74.2775C53.5833 71.7329 48.6963 62.5461 48.3107 57.8274ZM37.4921 51.4548C38.3327 48.0785 39.1724 46.1561 38.9741 45.5268C36.6551 41.3936 34.1046 37.9779 31.2677 35.4493C33.5817 33.6786 35.4135 31.2452 36.8993 28.3357C36.8735 29.4271 38.5141 34.5776 39.3046 37.9687C39.9018 40.531 38.7877 45.6664 38.9741 45.5268L37.4921 51.4548Z" stroke="black" stroke-width="0.5" stroke-miterlimit="1.5" stroke-linecap="round" stroke-linejoin="round"/>
<path fill-rule="evenodd" clip-rule="evenodd" d="M50.4632 24.4824H50.368C49.7805 24.5143 49.2088 24.8655 48.8595 25.3921C48.542 25.8869 48.4626 26.4774 48.6531 26.9881C48.8754 27.5946 49.4311 28.1373 49.9234 28.616C50.0345 28.7278 50.1457 28.8395 50.2409 28.9352C50.5903 29.2864 50.9396 29.6215 51.273 29.9407C51.4636 30.1163 51.6541 30.3078 51.8447 30.4993L52.0511 30.7068L52.2734 30.5153C52.9085 29.9726 53.5436 29.3662 54.1629 28.7118C54.2264 28.648 54.2899 28.5682 54.3693 28.5043C54.8298 28.0255 55.4173 27.435 55.5443 26.7168C55.6396 26.1263 55.4967 25.5517 55.1474 25.1368C54.8139 24.7378 54.3217 24.5143 53.7818 24.5143H53.7024C52.845 24.5463 52.3369 24.9772 52.0352 25.3602C51.7494 24.9612 51.2254 24.4824 50.4632 24.4824Z" fill="#FF6666"/>
<path fill-rule="evenodd" clip-rule="evenodd" d="M56.0125 45.2129C50.4046 46.1264 44.7224 46.172 39.1148 45.2739C39.1 45.418 39.1009 45.4447 39.1006 45.4497C39.1006 45.4497 39.1169 45.4752 39.1216 45.5057C39.18 45.8896 39.1323 46.0155 39.049 46.4483C38.966 46.8778 38.7431 47.4987 38.5039 48.3695C44.1622 49.179 51.3371 49.0406 56.8919 48.1935C56.42 46.798 55.9654 45.8504 56.0125 45.2129Z" fill="#F59033"/>
</g>
<defs>
<clipPath id="clip0_4924_20386">
<rect width="107" height="107" fill="white"/>
</clipPath>
</defs>
</svg>
