<svg width="100" height="100" viewBox="0 0 100 100" fill="none" xmlns="http://www.w3.org/2000/svg">
<path d="M75 37.5V28.125C75 20.6658 72.0368 13.5121 66.7624 8.23762C61.4879 2.96316 54.3342 0 46.875 0C39.4158 0 32.2621 2.96316 26.9876 8.23762C21.7132 13.5121 18.75 20.6658 18.75 28.125V37.5C16.2636 37.5 13.879 38.4877 12.1209 40.2459C10.3627 42.004 9.375 44.3886 9.375 46.875V50.5625C7.55141 51.2072 5.97187 52.4002 4.85293 53.9779C3.734 55.5556 3.13044 57.4408 3.125 59.375V78.125C3.13044 80.0592 3.734 81.9444 4.85293 83.5221C5.97187 85.0998 7.55141 86.2928 9.375 86.9375V90.625C9.375 93.1114 10.3627 95.496 12.1209 97.2541C13.879 99.0123 16.2636 100 18.75 100H75C77.4864 100 79.871 99.0123 81.6291 97.2541C83.3873 95.496 84.375 93.1114 84.375 90.625V46.875C84.375 44.3886 83.3873 42.004 81.6291 40.2459C79.871 38.4877 77.4864 37.5 75 37.5ZM25 28.125C25 22.3234 27.3047 16.7594 31.407 12.657C35.5094 8.55468 41.0734 6.25 46.875 6.25C52.6766 6.25 58.2406 8.55468 62.343 12.657C66.4453 16.7594 68.75 22.3234 68.75 28.125V37.5H62.5V28.125C62.5 23.981 60.8538 20.0067 57.9235 17.0765C54.9933 14.1462 51.019 12.5 46.875 12.5C42.731 12.5 38.7567 14.1462 35.8265 17.0765C32.8962 20.0067 31.25 23.981 31.25 28.125V37.5H25V28.125ZM37.5 37.5V28.125C37.5 25.6386 38.4877 23.254 40.2459 21.4959C42.004 19.7377 44.3886 18.75 46.875 18.75C49.3614 18.75 51.746 19.7377 53.5041 21.4959C55.2623 23.254 56.25 25.6386 56.25 28.125V37.5H37.5ZM9.375 59.375C9.375 58.5462 9.70424 57.7513 10.2903 57.1653C10.8763 56.5792 11.6712 56.25 12.5 56.25C13.3288 56.25 14.1237 56.5792 14.7097 57.1653C15.2958 57.7513 15.625 58.5462 15.625 59.375V78.125C15.625 78.9538 15.2958 79.7487 14.7097 80.3347C14.1237 80.9208 13.3288 81.25 12.5 81.25C11.6712 81.25 10.8763 80.9208 10.2903 80.3347C9.70424 79.7487 9.375 78.9538 9.375 78.125V59.375ZM78.125 90.625C78.125 91.4538 77.7958 92.2487 77.2097 92.8347C76.6237 93.4208 75.8288 93.75 75 93.75H18.75C17.9212 93.75 17.1263 93.4208 16.5403 92.8347C15.9542 92.2487 15.625 91.4538 15.625 90.625V86.9375C17.4486 86.2928 19.0281 85.0998 20.1471 83.5221C21.266 81.9444 21.8696 80.0592 21.875 78.125V59.375C21.8696 57.4408 21.266 55.5556 20.1471 53.9779C19.0281 52.4002 17.4486 51.2072 15.625 50.5625V46.875C15.625 46.0462 15.9542 45.2513 16.5403 44.6653C17.1263 44.0792 17.9212 43.75 18.75 43.75H75C75.8288 43.75 76.6237 44.0792 77.2097 44.6653C77.7958 45.2513 78.125 46.0462 78.125 46.875V90.625Z" fill="#3366CC"/>
<path d="M46.875 59.375H53.125C53.9538 59.375 54.7487 59.0458 55.3347 58.4597C55.9208 57.8737 56.25 57.0788 56.25 56.25C56.25 55.4212 55.9208 54.6263 55.3347 54.0403C54.7487 53.4542 53.9538 53.125 53.125 53.125H50C50 52.2962 49.6708 51.5013 49.0847 50.9153C48.4987 50.3292 47.7038 50 46.875 50C46.0462 50 45.2513 50.3292 44.6653 50.9153C44.0792 51.5013 43.75 52.2962 43.75 53.125V53.6875C41.6832 54.4374 39.9458 55.8899 38.8413 57.791C37.7369 59.6922 37.3358 61.921 37.7081 64.0878C38.0804 66.2547 39.2025 68.2218 40.8781 69.6453C42.5538 71.0687 44.6764 71.8579 46.875 71.875C47.7038 71.875 48.4987 72.2042 49.0847 72.7903C49.6708 73.3763 50 74.1712 50 75C50 75.8288 49.6708 76.6237 49.0847 77.2097C48.4987 77.7958 47.7038 78.125 46.875 78.125H40.625C39.7962 78.125 39.0013 78.4542 38.4153 79.0403C37.8292 79.6263 37.5 80.4212 37.5 81.25C37.5 82.0788 37.8292 82.8737 38.4153 83.4597C39.0013 84.0458 39.7962 84.375 40.625 84.375H43.75C43.75 85.2038 44.0792 85.9987 44.6653 86.5847C45.2513 87.1708 46.0462 87.5 46.875 87.5C47.7038 87.5 48.4987 87.1708 49.0847 86.5847C49.6708 85.9987 50 85.2038 50 84.375V83.8125C52.0668 83.0626 53.8042 81.6101 54.9087 79.709C56.0131 77.8078 56.4142 75.579 56.0419 73.4122C55.6696 71.2453 54.5475 69.2782 52.8719 67.8547C51.1962 66.4313 49.0736 65.6421 46.875 65.625C46.0462 65.625 45.2513 65.2958 44.6653 64.7097C44.0792 64.1237 43.75 63.3288 43.75 62.5C43.75 61.6712 44.0792 60.8763 44.6653 60.2903C45.2513 59.7042 46.0462 59.375 46.875 59.375V59.375Z" fill="#3366CC"/>
<path d="M93.75 28.125H87.5C86.6712 28.125 85.8763 28.4542 85.2903 29.0403C84.7042 29.6263 84.375 30.4212 84.375 31.25C84.375 32.0788 84.7042 32.8737 85.2903 33.4597C85.8763 34.0458 86.6712 34.375 87.5 34.375H93.75C94.5788 34.375 95.3737 34.0458 95.9597 33.4597C96.5458 32.8737 96.875 32.0788 96.875 31.25C96.875 30.4212 96.5458 29.6263 95.9597 29.0403C95.3737 28.4542 94.5788 28.125 93.75 28.125Z" fill="#3366CC"/>
<path d="M84.3754 21.8751C84.8656 21.881 85.3494 21.7627 85.7816 21.5314L92.0316 18.4064C92.4283 18.2412 92.7867 17.9959 93.0844 17.686C93.382 17.376 93.6125 17.008 93.7615 16.6049C93.9105 16.2018 93.9747 15.7723 93.9502 15.3433C93.9257 14.9143 93.813 14.4949 93.6191 14.1114C93.4252 13.7279 93.1543 13.3885 92.8233 13.1145C92.4923 12.8404 92.1083 12.6376 91.6954 12.5186C91.2825 12.3996 90.8494 12.3671 90.4234 12.4231C89.9973 12.4791 89.5873 12.6223 89.2191 12.8439L82.9691 15.9689C82.2331 16.3435 81.6753 16.9943 81.4177 17.7789C81.16 18.5636 81.2235 19.4183 81.5941 20.1564C81.8538 20.6717 82.2511 21.1051 82.7421 21.4085C83.233 21.7118 83.7983 21.8734 84.3754 21.8751Z" fill="#3366CC"/>
</svg>
