<svg width="80" height="80" viewBox="0 0 80 80" fill="none" xmlns="http://www.w3.org/2000/svg">
<path d="M79.9997 8.66697C79.9997 5.35901 77.3077 2.66699 73.9997 2.66699H5.99998C2.69202 2.66699 0 5.35901 0 8.66697V48.0001H79.9997V8.66697ZM13.3332 13.3335H15.9999C16.7359 13.3335 17.3332 13.9308 17.3332 14.6668C17.3332 15.4027 16.7359 16.0001 15.9999 16.0001H13.3332C12.5973 16.0001 12 15.4027 12 14.6668C12 13.9308 12.5973 13.3335 13.3332 13.3335ZM9.33325 42.6668C9.33325 43.4028 8.7359 44.0001 7.99997 44.0001C7.26403 44.0001 6.66669 43.4028 6.66669 42.6668V13.3335C6.66669 12.5976 7.26403 12.0002 7.99997 12.0002C8.7359 12.0002 9.33325 12.5976 9.33325 13.3335V42.6668ZM18.6666 42.6668H13.3332C12.5973 42.6668 12 42.0695 12 41.3335C12 40.5976 12.5973 40.0003 13.3332 40.0003H18.6665C19.4024 40.0003 19.9998 40.5976 19.9998 41.3335C19.9998 42.0695 19.4026 42.6668 18.6666 42.6668ZM12 36.0001C12 35.2642 12.5973 34.6668 13.3332 34.6668H15.9999C16.7359 34.6668 17.3332 35.2642 17.3332 36.0001C17.3332 36.7361 16.7359 37.3334 15.9999 37.3334H13.3332C12.5973 37.3334 12 36.7361 12 36.0001ZM18.6666 32.0001H13.3332C12.5973 32.0001 12 31.4028 12 30.6669C12 29.9309 12.5973 29.3336 13.3332 29.3336H18.6665C19.4024 29.3336 19.9998 29.9309 19.9998 30.6669C19.9998 31.4028 19.4026 32.0001 18.6666 32.0001ZM12 25.3335C12 24.5975 12.5973 24.0002 13.3332 24.0002H15.9999C16.7359 24.0002 17.3332 24.5975 17.3332 25.3335C17.3332 26.0694 16.7359 26.6667 15.9999 26.6667H13.3332C12.5973 26.6669 12 26.0695 12 25.3335ZM18.6666 21.3335H13.3332C12.5973 21.3335 12 20.7361 12 20.0002C12 19.2643 12.5973 18.6669 13.3332 18.6669H18.6665C19.4024 18.6669 19.9998 19.2643 19.9998 20.0002C19.9999 20.7361 19.4026 21.3335 18.6666 21.3335ZM73.333 26.6669C73.333 27.4028 72.7357 28.0002 71.9997 28.0002C71.2638 28.0002 70.6664 27.4028 70.6664 26.6669V20.5522L53.7424 37.4761C53.4824 37.7361 53.141 37.8667 52.7998 37.8667C52.4584 37.8667 52.1171 37.7361 51.8571 37.4761L40.8398 26.4588L26.3146 42.236C26.0519 42.5228 25.6932 42.6667 25.3332 42.6667C25.0105 42.6667 24.6865 42.5507 24.4305 42.3146C23.8891 41.816 23.8532 40.972 24.3519 40.4306L39.8186 23.6307C39.8253 23.6227 39.8359 23.62 39.8427 23.6133C39.8494 23.6066 39.8506 23.5974 39.8573 23.5906C39.9159 23.5321 39.9894 23.5053 40.0547 23.46C40.128 23.4094 40.1947 23.348 40.2747 23.3133C40.3573 23.2774 40.4427 23.2706 40.5294 23.2519C40.6108 23.236 40.6894 23.2066 40.772 23.2052C40.8587 23.2039 40.9414 23.2292 41.0253 23.2438C41.1092 23.2583 41.1933 23.2611 41.2733 23.2917C41.3547 23.3224 41.4227 23.3797 41.4973 23.4277C41.5653 23.4703 41.6414 23.4956 41.7027 23.5517C41.7106 23.5585 41.7133 23.5677 41.72 23.5744C41.7267 23.5811 41.7359 23.5838 41.7426 23.5903L52.7999 34.6476L68.7813 18.6663H62.6666C61.9307 18.6663 61.3334 18.069 61.3334 17.333C61.3334 16.5971 61.9307 15.9997 62.6666 15.9997H71.9997C72.173 15.9997 72.3464 16.0357 72.5091 16.1024C72.8358 16.2383 73.0944 16.4971 73.2305 16.8238C73.2972 16.9865 73.3332 17.1597 73.3332 17.3332V26.6669H73.333Z" fill="#3366CC"/>
<path d="M0 50.667V55.3337C0 58.6416 2.69061 61.3337 5.99998 61.3337H31.6252L29.6252 69.3336H29.3332C25.6572 69.3336 22.6665 72.3243 22.6665 76.0003C22.6665 76.7363 23.2638 77.3336 23.9997 77.3336H55.9996C56.7355 77.3336 57.3329 76.7363 57.3329 76.0003C57.3329 72.3244 54.3423 69.3336 50.6662 69.3336H50.3745L48.3745 61.3337H73.9997C77.3076 61.3337 79.9997 58.6416 79.9997 55.3337V50.667H0V50.667ZM32.3746 69.3335L34.3745 61.3335H45.6251L47.6251 69.3335H32.3746Z" fill="#3366CC"/>
</svg>
