<svg width="15" height="16" viewBox="0 0 15 16" fill="none" xmlns="http://www.w3.org/2000/svg">
<path d="M14.5862 4.66479L13.2356 6.01538C13.0979 6.15308 12.8753 6.15308 12.7376 6.01538L9.48563 2.76343C9.34794 2.62573 9.34794 2.40308 9.48563 2.26538L10.8362 0.914795C11.3841 0.366943 12.2747 0.366943 12.8255 0.914795L14.5862 2.67554C15.137 3.22339 15.137 4.11401 14.5862 4.66479ZM8.32548 3.42554L0.632118 11.1189L0.0110246 14.6785C-0.0739364 15.1589 0.345009 15.5749 0.825478 15.4929L4.38505 14.8689L12.0784 7.17554C12.2161 7.03784 12.2161 6.81519 12.0784 6.67749L8.82645 3.42554C8.68583 3.28784 8.46317 3.28784 8.32548 3.42554ZM3.63505 10.4597C3.47391 10.2986 3.47391 10.0408 3.63505 9.87964L8.14677 5.36792C8.3079 5.20679 8.56571 5.20679 8.72684 5.36792C8.88798 5.52905 8.88798 5.78686 8.72684 5.948L4.21513 10.4597C4.05399 10.6208 3.79618 10.6208 3.63505 10.4597ZM2.57743 12.9236H3.98368V13.9871L2.09403 14.3181L1.1829 13.407L1.51395 11.5173H2.57743V12.9236Z" fill="#3366CC"/>
</svg>
