<svg width="50" height="50" viewBox="0 0 50 50" fill="none" xmlns="http://www.w3.org/2000/svg">
<path d="M31.9043 39.4238C29.7461 40.2051 27.4219 40.625 25 40.625C22.5781 40.625 20.2441 40.1953 18.0957 39.4238C18.0664 39.4141 18.0469 39.4043 18.0176 39.3945C15.0879 38.3203 12.4707 36.5918 10.3418 34.375C6.83594 30.7227 4.6875 25.7715 4.6875 20.3125C4.6875 9.0918 13.7793 0 25 0C36.2207 0 45.3125 9.0918 45.3125 20.3125C45.3125 25.7715 43.1641 30.7227 39.6582 34.375C39.5605 34.4727 39.4629 34.5801 39.3652 34.6777C37.2754 36.7676 34.7363 38.3984 31.9141 39.4238H31.9043ZM25 8.97461C23.916 8.97461 23.0371 9.85352 23.0371 10.9375V11.5234C22.4902 11.6406 21.9727 11.8066 21.4844 12.0215C20.0195 12.6855 18.7598 13.916 18.4473 15.7031C18.2715 16.6992 18.3691 17.6562 18.7793 18.5352C19.1895 19.3945 19.8242 20 20.4688 20.4395C21.6016 21.2109 23.0957 21.6602 24.2383 22.002L24.4531 22.0703C25.8105 22.4805 26.7383 22.793 27.3145 23.2129C27.5586 23.3887 27.6465 23.5254 27.6855 23.6035C27.7148 23.6816 27.7734 23.8574 27.7051 24.2578C27.6465 24.5996 27.4609 24.8828 26.9238 25.1172C26.3281 25.3711 25.3613 25.498 24.1113 25.3027C23.5254 25.2051 22.4805 24.8535 21.5527 24.5312C21.3379 24.4629 21.1328 24.3848 20.9277 24.3262C19.9023 23.9844 18.7988 24.541 18.457 25.5664C18.1152 26.5918 18.6719 27.6953 19.6973 28.0371C19.8145 28.0762 19.9609 28.125 20.127 28.1836C20.8984 28.4473 22.1094 28.8574 23.0371 29.0723V29.6875C23.0371 30.7715 23.916 31.6504 25 31.6504C26.084 31.6504 26.9629 30.7715 26.9629 29.6875V29.1504C27.4902 29.0527 27.9883 28.9062 28.4668 28.7012C30 28.0469 31.2402 26.7773 31.5527 24.9219C31.7285 23.9062 31.6504 22.9395 31.2598 22.0508C30.8789 21.1719 30.2637 20.5273 29.6094 20.0488C28.418 19.1895 26.8457 18.7109 25.6641 18.3496L25.5859 18.3301C24.1992 17.9102 23.2617 17.6172 22.666 17.2168C22.4121 17.041 22.334 16.9238 22.3145 16.875C22.2949 16.8457 22.2461 16.7188 22.3047 16.3867C22.334 16.2012 22.4902 15.8789 23.1055 15.5957C23.7305 15.3125 24.707 15.1563 25.8984 15.3418C26.3184 15.4102 27.6465 15.6641 28.0176 15.7617C29.0625 16.0352 30.127 15.4199 30.4102 14.375C30.6934 13.3301 30.0684 12.2656 29.0234 11.9824C28.5938 11.8652 27.6172 11.6699 26.9727 11.5527V10.9375C26.9727 9.85352 26.0938 8.97461 25.0098 8.97461H25ZM4.6875 34.375H6.25C8.1543 36.9043 10.5469 39.0332 13.3008 40.625H6.25V43.75H25H43.75V40.625H36.6992C39.4531 39.0332 41.8555 36.9043 43.75 34.375H45.3125C47.9004 34.375 50 36.4746 50 39.0625V45.3125C50 47.9004 47.9004 50 45.3125 50H4.6875C2.09961 50 0 47.9004 0 45.3125V39.0625C0 36.4746 2.09961 34.375 4.6875 34.375Z" fill="#3366CC"/>
</svg>
