<svg width="300" height="40" viewBox="0 0 300 40" fill="none" xmlns="http://www.w3.org/2000/svg">
<rect x="0.5" y="0.5" width="299" height="39" rx="4.5" fill="white" stroke="#3366CC"/>
<path d="M22.7427 26.108C24.2547 26.108 25.4607 25.64 26.3607 24.686C27.2607 23.732 27.7107 22.436 27.7107 20.798V13.22H26.1447V20.69C26.1447 21.914 25.8207 22.868 25.1907 23.57C24.5607 24.29 23.7507 24.632 22.7427 24.632C21.6987 24.632 20.8887 24.272 20.2767 23.552C19.6647 22.832 19.3587 21.878 19.3587 20.69V13.22H17.7927V20.798C17.7927 22.454 18.2427 23.768 19.1427 24.704C20.0427 25.64 21.2487 26.108 22.7427 26.108ZM30.8257 29.564H32.2837V24.488H32.3017C32.9857 25.568 34.0297 26.108 35.4157 26.108C36.6397 26.108 37.6477 25.712 38.4577 24.884C39.2677 24.056 39.6817 22.994 39.6817 21.68C39.6817 20.384 39.2677 19.286 38.4757 18.422C37.6657 17.558 36.6397 17.126 35.4157 17.126C34.0477 17.126 33.0037 17.684 32.3017 18.782H32.2837V17.234H30.8257V29.564ZM35.2177 24.776C34.3537 24.776 33.6517 24.488 33.0757 23.912C32.4997 23.336 32.2117 22.598 32.2117 21.68C32.2117 20.78 32.4817 20.006 33.0397 19.394C33.5977 18.782 34.3177 18.458 35.1997 18.458C36.0457 18.458 36.7657 18.764 37.3417 19.358C37.9177 19.97 38.2057 20.744 38.2057 21.68C38.2057 22.58 37.9177 23.318 37.3597 23.894C36.8017 24.488 36.0817 24.776 35.2177 24.776ZM42.3504 26H43.8084V12.752H42.3504V26ZM50.9925 26.108C52.2885 26.108 53.3685 25.694 54.2325 24.866C55.0785 24.038 55.5105 22.958 55.5105 21.626C55.5105 20.312 55.0785 19.232 54.2325 18.386C53.3685 17.558 52.2885 17.126 50.9925 17.126C49.6425 17.126 48.5445 17.558 47.7165 18.422C46.8705 19.286 46.4565 20.348 46.4565 21.626C46.4565 22.922 46.8705 23.984 47.7165 24.83C48.5445 25.694 49.6425 26.108 50.9925 26.108ZM50.9925 24.776C50.0925 24.776 49.3725 24.488 48.7965 23.876C48.2205 23.264 47.9505 22.526 47.9505 21.626C47.9505 20.744 48.2205 19.988 48.7965 19.376C49.3545 18.764 50.0925 18.458 50.9925 18.458C51.8385 18.458 52.5585 18.764 53.1345 19.358C53.7105 19.952 54.0165 20.708 54.0165 21.626C54.0165 22.562 53.7105 23.318 53.1345 23.894C52.5585 24.488 51.8385 24.776 50.9925 24.776ZM61.7344 26.108C63.1384 26.108 64.1824 25.55 64.8664 24.416H64.8844V26H66.2884V17.234H64.8304V18.782L64.7944 18.8C64.4704 18.278 64.0564 17.864 63.5164 17.576C62.9764 17.288 62.3824 17.126 61.7344 17.126C60.4924 17.126 59.4664 17.558 58.6744 18.422C57.8644 19.286 57.4684 20.384 57.4684 21.68C57.4684 22.994 57.8644 24.056 58.6744 24.884C59.4844 25.712 60.5104 26.108 61.7344 26.108ZM61.9504 24.776C61.0504 24.776 60.3304 24.488 59.7724 23.894C59.2144 23.318 58.9444 22.58 58.9444 21.68C58.9444 20.744 59.2324 19.97 59.8084 19.358C60.3844 18.764 61.0864 18.458 61.9504 18.458C62.7964 18.458 63.4984 18.782 64.0564 19.394C64.5964 20.006 64.8844 20.78 64.8844 21.68C64.8844 22.598 64.5964 23.336 64.0384 23.912C63.4624 24.488 62.7784 24.776 61.9504 24.776ZM72.9937 26.108C74.4157 26.108 75.4777 25.532 76.1617 24.38H76.1797V26H77.5837V12.752H76.1257V18.8H76.1077C75.4057 17.684 74.3617 17.126 72.9757 17.126C71.7517 17.126 70.7257 17.576 69.9157 18.44C69.0877 19.304 68.6917 20.384 68.6917 21.68C68.6917 22.994 69.0877 24.056 69.9157 24.884C70.7257 25.712 71.7517 26.108 72.9937 26.108ZM73.1917 24.776C72.2917 24.776 71.5717 24.488 71.0137 23.894C70.4557 23.318 70.1857 22.58 70.1857 21.68C70.1857 20.744 70.4737 19.97 71.0497 19.358C71.6257 18.764 72.3457 18.458 73.2097 18.458C74.0737 18.458 74.7757 18.782 75.3337 19.394C75.8917 20.006 76.1797 20.78 76.1797 21.68C76.1797 22.598 75.8917 23.336 75.3157 23.912C74.7397 24.488 74.0197 24.776 73.1917 24.776ZM86.147 26H87.713V21.122H89.999L93.383 26H95.255L91.727 20.978C93.851 20.546 94.913 19.286 94.913 17.18C94.913 15.992 94.553 15.02 93.851 14.3C93.149 13.58 92.087 13.22 90.683 13.22H86.147V26ZM87.713 19.7V14.642H90.467C91.349 14.642 92.033 14.858 92.537 15.29C93.041 15.722 93.293 16.352 93.293 17.144C93.293 17.936 93.041 18.548 92.537 19.016C92.033 19.484 91.259 19.7 90.251 19.7H87.713ZM105.476 21.464C105.476 20.204 105.098 19.178 104.342 18.35C103.586 17.54 102.632 17.126 101.444 17.126C100.184 17.126 99.1397 17.558 98.3297 18.386C97.5197 19.232 97.1237 20.312 97.1237 21.626C97.1237 22.958 97.5197 24.038 98.3477 24.866C99.1757 25.694 100.238 26.108 101.552 26.108C103.1 26.108 104.306 25.568 105.17 24.47L104.144 23.606C103.496 24.398 102.65 24.776 101.606 24.776C100.778 24.776 100.094 24.542 99.5537 24.038C99.0137 23.552 98.6897 22.886 98.5997 22.058H105.44C105.44 22.04 105.44 21.95 105.458 21.806C105.458 21.662 105.476 21.554 105.476 21.464ZM101.426 18.458C102.128 18.458 102.704 18.692 103.172 19.124C103.622 19.556 103.91 20.15 104.018 20.87H98.6357C98.7617 20.132 99.0857 19.538 99.5897 19.106C100.094 18.674 100.706 18.458 101.426 18.458ZM111.843 29.672C113.301 29.672 114.381 29.294 115.101 28.52C115.803 27.746 116.163 26.684 116.163 25.352V17.234H114.705V18.638H114.669C113.913 17.63 112.887 17.126 111.591 17.126C110.367 17.126 109.359 17.54 108.567 18.368C107.775 19.196 107.397 20.24 107.397 21.5C107.397 22.796 107.793 23.84 108.603 24.632C109.413 25.442 110.421 25.838 111.645 25.838C112.959 25.838 113.967 25.334 114.687 24.308H114.723V25.712C114.723 26.504 114.471 27.134 113.967 27.62C113.463 28.106 112.725 28.34 111.789 28.34C110.745 28.34 109.701 28.034 108.639 27.422L108.279 28.718C109.323 29.366 110.511 29.672 111.843 29.672ZM111.825 24.488C110.961 24.488 110.259 24.218 109.701 23.66C109.143 23.12 108.873 22.382 108.873 21.464C108.873 20.6 109.143 19.898 109.701 19.322C110.241 18.764 110.961 18.476 111.843 18.476C112.671 18.476 113.355 18.764 113.913 19.304C114.471 19.862 114.759 20.564 114.759 21.428C114.759 22.328 114.489 23.048 113.949 23.624C113.409 24.2 112.689 24.488 111.825 24.488ZM119.972 15.632C120.26 15.632 120.512 15.542 120.728 15.326C120.926 15.128 121.034 14.876 121.034 14.588C121.034 14.3 120.926 14.066 120.728 13.85C120.512 13.652 120.26 13.544 119.972 13.544C119.666 13.544 119.414 13.652 119.216 13.85C119 14.066 118.91 14.3 118.91 14.588C118.91 14.876 119 15.128 119.216 15.326C119.414 15.542 119.666 15.632 119.972 15.632ZM119.234 26H120.692V17.234H119.234V26ZM126.544 26.108C127.552 26.108 128.326 25.874 128.866 25.406C129.406 24.938 129.694 24.326 129.694 23.606C129.694 22.814 129.388 22.202 128.758 21.77C128.47 21.608 127.768 21.302 126.634 20.852C126.076 20.654 125.662 20.456 125.392 20.258C125.104 20.06 124.978 19.808 124.978 19.484C124.978 19.16 125.104 18.908 125.374 18.71C125.644 18.53 125.968 18.422 126.328 18.422C127.192 18.422 127.966 18.746 128.65 19.358L129.406 18.206C128.506 17.486 127.498 17.126 126.382 17.126C125.554 17.126 124.852 17.36 124.312 17.81C123.772 18.26 123.502 18.818 123.502 19.484C123.502 19.88 123.556 20.222 123.7 20.51C123.826 20.798 124.024 21.05 124.294 21.248C124.564 21.464 124.834 21.626 125.104 21.752C125.356 21.896 125.698 22.022 126.13 22.166C126.832 22.436 127.264 22.598 127.408 22.652C127.948 22.904 128.218 23.228 128.218 23.624C128.218 23.984 128.056 24.272 127.768 24.488C127.462 24.704 127.048 24.812 126.544 24.812C125.482 24.812 124.582 24.47 123.862 23.75L123.124 24.866C124.06 25.694 125.212 26.108 126.544 26.108ZM134.582 26.108C135.374 26.108 136.094 25.928 136.706 25.568L136.328 24.29C135.77 24.596 135.266 24.74 134.834 24.74C134.438 24.74 134.15 24.632 134.006 24.38C133.844 24.128 133.772 23.732 133.772 23.174V18.494H136.67V17.234H133.772V14.084L132.314 14.246V17.234H131.18V18.494H132.314V23.39C132.314 25.208 133.07 26.108 134.582 26.108ZM138.98 26H140.438V21.77C140.438 20.87 140.672 20.15 141.158 19.574C141.626 19.016 142.274 18.728 143.102 18.728C143.192 18.728 143.39 18.746 143.678 18.764V17.144C143.588 17.144 143.462 17.126 143.318 17.126C142.094 17.126 141.14 17.702 140.474 18.836H140.438V17.234H138.98V26ZM149.112 26.108C150.516 26.108 151.56 25.55 152.244 24.416H152.262V26H153.666V17.234H152.208V18.782L152.172 18.8C151.848 18.278 151.434 17.864 150.894 17.576C150.354 17.288 149.76 17.126 149.112 17.126C147.87 17.126 146.844 17.558 146.052 18.422C145.242 19.286 144.846 20.384 144.846 21.68C144.846 22.994 145.242 24.056 146.052 24.884C146.862 25.712 147.888 26.108 149.112 26.108ZM149.328 24.776C148.428 24.776 147.708 24.488 147.15 23.894C146.592 23.318 146.322 22.58 146.322 21.68C146.322 20.744 146.61 19.97 147.186 19.358C147.762 18.764 148.464 18.458 149.328 18.458C150.174 18.458 150.876 18.782 151.434 19.394C151.974 20.006 152.262 20.78 152.262 21.68C152.262 22.598 151.974 23.336 151.416 23.912C150.84 24.488 150.156 24.776 149.328 24.776ZM159.111 26.108C159.903 26.108 160.623 25.928 161.235 25.568L160.857 24.29C160.299 24.596 159.795 24.74 159.363 24.74C158.967 24.74 158.679 24.632 158.535 24.38C158.373 24.128 158.301 23.732 158.301 23.174V18.494H161.199V17.234H158.301V14.084L156.843 14.246V17.234H155.709V18.494H156.843V23.39C156.843 25.208 157.599 26.108 159.111 26.108ZM164.302 15.632C164.59 15.632 164.842 15.542 165.058 15.326C165.256 15.128 165.364 14.876 165.364 14.588C165.364 14.3 165.256 14.066 165.058 13.85C164.842 13.652 164.59 13.544 164.302 13.544C163.996 13.544 163.744 13.652 163.546 13.85C163.33 14.066 163.24 14.3 163.24 14.588C163.24 14.876 163.33 15.128 163.546 15.326C163.744 15.542 163.996 15.632 164.302 15.632ZM163.564 26H165.022V17.234H163.564V26ZM172.206 26.108C173.502 26.108 174.582 25.694 175.446 24.866C176.292 24.038 176.724 22.958 176.724 21.626C176.724 20.312 176.292 19.232 175.446 18.386C174.582 17.558 173.502 17.126 172.206 17.126C170.856 17.126 169.758 17.558 168.93 18.422C168.084 19.286 167.67 20.348 167.67 21.626C167.67 22.922 168.084 23.984 168.93 24.83C169.758 25.694 170.856 26.108 172.206 26.108ZM172.206 24.776C171.306 24.776 170.586 24.488 170.01 23.876C169.434 23.264 169.164 22.526 169.164 21.626C169.164 20.744 169.434 19.988 170.01 19.376C170.568 18.764 171.306 18.458 172.206 18.458C173.052 18.458 173.772 18.764 174.348 19.358C174.924 19.952 175.23 20.708 175.23 21.626C175.23 22.562 174.924 23.318 174.348 23.894C173.772 24.488 173.052 24.776 172.206 24.776ZM179.258 26H180.716V21.626C180.716 20.654 180.95 19.88 181.454 19.304C181.94 18.746 182.606 18.458 183.452 18.458C184.892 18.458 185.612 19.376 185.612 21.212V26H187.07V20.798C187.07 19.592 186.782 18.674 186.224 18.062C185.648 17.45 184.892 17.126 183.92 17.126C182.516 17.126 181.454 17.702 180.734 18.818H180.716V17.234H179.258V26ZM201.284 26.09C203.3 26.09 204.974 25.298 206.27 23.678L205.1 22.688C204.074 23.984 202.796 24.614 201.284 24.614C199.898 24.614 198.764 24.164 197.882 23.264C196.982 22.364 196.55 21.158 196.55 19.646C196.55 18.17 196.964 16.946 197.828 16.01C198.692 15.074 199.826 14.588 201.266 14.588C202.778 14.588 204.038 15.236 205.082 16.514L206.252 15.542C204.92 13.922 203.246 13.094 201.266 13.094C199.286 13.094 197.72 13.724 196.604 14.966C195.47 16.208 194.912 17.774 194.912 19.646C194.912 21.662 195.506 23.246 196.73 24.38C197.954 25.532 199.466 26.09 201.284 26.09ZM216.38 21.464C216.38 20.204 216.002 19.178 215.246 18.35C214.49 17.54 213.536 17.126 212.348 17.126C211.088 17.126 210.044 17.558 209.234 18.386C208.424 19.232 208.028 20.312 208.028 21.626C208.028 22.958 208.424 24.038 209.252 24.866C210.08 25.694 211.142 26.108 212.456 26.108C214.004 26.108 215.21 25.568 216.074 24.47L215.048 23.606C214.4 24.398 213.554 24.776 212.51 24.776C211.682 24.776 210.998 24.542 210.458 24.038C209.918 23.552 209.594 22.886 209.504 22.058H216.344C216.344 22.04 216.344 21.95 216.362 21.806C216.362 21.662 216.38 21.554 216.38 21.464ZM212.33 18.458C213.032 18.458 213.608 18.692 214.076 19.124C214.526 19.556 214.814 20.15 214.922 20.87H209.54C209.666 20.132 209.99 19.538 210.494 19.106C210.998 18.674 211.61 18.458 212.33 18.458ZM218.878 26H220.336V21.77C220.336 20.87 220.57 20.15 221.056 19.574C221.524 19.016 222.172 18.728 223 18.728C223.09 18.728 223.288 18.746 223.576 18.764V17.144C223.486 17.144 223.36 17.126 223.216 17.126C221.992 17.126 221.038 17.702 220.372 18.836H220.336V17.234H218.878V26ZM228.05 26.108C228.842 26.108 229.562 25.928 230.174 25.568L229.796 24.29C229.238 24.596 228.734 24.74 228.302 24.74C227.906 24.74 227.618 24.632 227.474 24.38C227.312 24.128 227.24 23.732 227.24 23.174V18.494H230.138V17.234H227.24V14.084L225.782 14.246V17.234H224.648V18.494H225.782V23.39C225.782 25.208 226.538 26.108 228.05 26.108ZM233.241 15.632C233.529 15.632 233.781 15.542 233.997 15.326C234.195 15.128 234.303 14.876 234.303 14.588C234.303 14.3 234.195 14.066 233.997 13.85C233.781 13.652 233.529 13.544 233.241 13.544C232.935 13.544 232.683 13.652 232.485 13.85C232.269 14.066 232.179 14.3 232.179 14.588C232.179 14.876 232.269 15.128 232.485 15.326C232.683 15.542 232.935 15.632 233.241 15.632ZM232.503 26H233.961V17.234H232.503V26ZM237.527 26H238.985V18.494H241.469V17.234H238.985V15.596C238.985 14.516 239.381 13.976 240.173 13.976C240.587 13.976 241.091 14.138 241.703 14.444L242.027 13.202C241.415 12.824 240.731 12.626 239.993 12.626C239.201 12.626 238.589 12.878 238.157 13.346C237.725 13.832 237.527 14.534 237.527 15.452V17.234H236.465V18.494H237.527V26ZM244.349 15.632C244.637 15.632 244.889 15.542 245.105 15.326C245.303 15.128 245.411 14.876 245.411 14.588C245.411 14.3 245.303 14.066 245.105 13.85C244.889 13.652 244.637 13.544 244.349 13.544C244.043 13.544 243.791 13.652 243.593 13.85C243.377 14.066 243.287 14.3 243.287 14.588C243.287 14.876 243.377 15.128 243.593 15.326C243.791 15.542 244.043 15.632 244.349 15.632ZM243.611 26H245.069V17.234H243.611V26ZM252.092 26.108C253.64 26.108 254.846 25.604 255.71 24.578L254.702 23.66C254.09 24.416 253.262 24.776 252.2 24.776C251.3 24.776 250.58 24.488 250.04 23.912C249.482 23.336 249.212 22.562 249.212 21.626C249.212 20.69 249.482 19.934 250.04 19.34C250.58 18.764 251.318 18.458 252.218 18.458C253.226 18.458 254.036 18.836 254.684 19.574L255.674 18.692C255.242 18.188 254.72 17.81 254.09 17.54C253.46 17.27 252.812 17.126 252.146 17.126C250.832 17.126 249.77 17.558 248.942 18.386C248.114 19.232 247.718 20.312 247.718 21.626C247.718 22.958 248.114 24.038 248.942 24.866C249.752 25.694 250.796 26.108 252.092 26.108ZM261.712 26.108C263.116 26.108 264.16 25.55 264.844 24.416H264.862V26H266.266V17.234H264.808V18.782L264.772 18.8C264.448 18.278 264.034 17.864 263.494 17.576C262.954 17.288 262.36 17.126 261.712 17.126C260.47 17.126 259.444 17.558 258.652 18.422C257.842 19.286 257.446 20.384 257.446 21.68C257.446 22.994 257.842 24.056 258.652 24.884C259.462 25.712 260.488 26.108 261.712 26.108ZM261.928 24.776C261.028 24.776 260.308 24.488 259.75 23.894C259.192 23.318 258.922 22.58 258.922 21.68C258.922 20.744 259.21 19.97 259.786 19.358C260.362 18.764 261.064 18.458 261.928 18.458C262.774 18.458 263.476 18.782 264.034 19.394C264.574 20.006 264.862 20.78 264.862 21.68C264.862 22.598 264.574 23.336 264.016 23.912C263.44 24.488 262.756 24.776 261.928 24.776ZM271.712 26.108C272.504 26.108 273.224 25.928 273.836 25.568L273.458 24.29C272.9 24.596 272.396 24.74 271.964 24.74C271.568 24.74 271.28 24.632 271.136 24.38C270.974 24.128 270.902 23.732 270.902 23.174V18.494H273.8V17.234H270.902V14.084L269.444 14.246V17.234H268.31V18.494H269.444V23.39C269.444 25.208 270.2 26.108 271.712 26.108ZM283.482 21.464C283.482 20.204 283.104 19.178 282.348 18.35C281.592 17.54 280.638 17.126 279.45 17.126C278.19 17.126 277.146 17.558 276.336 18.386C275.526 19.232 275.13 20.312 275.13 21.626C275.13 22.958 275.526 24.038 276.354 24.866C277.182 25.694 278.244 26.108 279.558 26.108C281.106 26.108 282.312 25.568 283.176 24.47L282.15 23.606C281.502 24.398 280.656 24.776 279.612 24.776C278.784 24.776 278.1 24.542 277.56 24.038C277.02 23.552 276.696 22.886 276.606 22.058H283.446C283.446 22.04 283.446 21.95 283.464 21.806C283.464 21.662 283.482 21.554 283.482 21.464ZM279.432 18.458C280.134 18.458 280.71 18.692 281.178 19.124C281.628 19.556 281.916 20.15 282.024 20.87H276.642C276.768 20.132 277.092 19.538 277.596 19.106C278.1 18.674 278.712 18.458 279.432 18.458Z" fill="#3366CC"/>
</svg>
