<svg width="100" height="100" viewBox="0 0 100 100" fill="none" xmlns="http://www.w3.org/2000/svg">
<path d="M100 6.66667H51.6667V1.66667C51.6667 0.745 50.9217 0 50 0C49.0783 0 48.3333 0.745 48.3333 1.66667V6.66667H0V76.6667H45.9767L25.4883 97.155C24.8367 97.8067 24.8367 98.86 25.4883 99.5117C25.8133 99.8367 26.24 100 26.6667 100C27.0933 100 27.52 99.8367 27.845 99.5117L48.3333 79.0233V95C48.3333 95.9217 49.0783 96.6667 50 96.6667C50.9217 96.6667 51.6667 95.9217 51.6667 95V79.0233L72.155 99.5117C72.48 99.8367 72.9067 100 73.3333 100C73.76 100 74.1867 99.8367 74.5117 99.5117C75.1633 98.86 75.1633 97.8067 74.5117 97.155L54.0233 76.6667H100V6.66667ZM96.6667 73.3333H3.33333V10H96.6667V73.3333Z" fill="#3366CC"/>
<path d="M60.0007 70.0003C60.9223 70.0003 61.6673 69.2553 61.6673 68.3337V63.3337C61.6673 62.412 60.9223 61.667 60.0007 61.667C59.079 61.667 58.334 62.412 58.334 63.3337V68.3337C58.334 69.2553 59.079 70.0003 60.0007 70.0003Z" fill="#3366CC"/>
<path d="M66.6667 55C65.745 55 65 55.745 65 56.6667V68.3333C65 69.255 65.745 70 66.6667 70C67.5883 70 68.3333 69.255 68.3333 68.3333V56.6667C68.3333 55.745 67.5883 55 66.6667 55Z" fill="#3366CC"/>
<path d="M73.3327 58.333C72.411 58.333 71.666 59.078 71.666 59.9997V68.333C71.666 69.2547 72.411 69.9997 73.3327 69.9997C74.2544 69.9997 74.9994 69.2547 74.9994 68.333V59.9997C74.9994 59.078 74.2544 58.333 73.3327 58.333Z" fill="#3366CC"/>
<path d="M80.0007 46.667C79.079 46.667 78.334 47.412 78.334 48.3337V68.3337C78.334 69.2553 79.079 70.0003 80.0007 70.0003C80.9223 70.0003 81.6673 69.2553 81.6673 68.3337V48.3337C81.6673 47.412 80.9223 46.667 80.0007 46.667Z" fill="#3366CC"/>
<path d="M86.6667 53.333C85.745 53.333 85 54.078 85 54.9997V68.333C85 69.2547 85.745 69.9997 86.6667 69.9997C87.5883 69.9997 88.3333 69.2547 88.3333 68.333V54.9997C88.3333 54.078 87.5883 53.333 86.6667 53.333Z" fill="#3366CC"/>
<path d="M13.3327 63.3333H29.9993C30.921 63.3333 31.666 62.5883 31.666 61.6667C31.666 60.745 30.921 60 29.9993 60H13.3327C12.411 60 11.666 60.745 11.666 61.6667C11.666 62.5883 12.411 63.3333 13.3327 63.3333Z" fill="#3366CC"/>
<path d="M13.3327 70.0003H38.3327C39.2544 70.0003 39.9994 69.2553 39.9994 68.3337C39.9994 67.412 39.2544 66.667 38.3327 66.667H13.3327C12.411 66.667 11.666 67.412 11.666 68.3337C11.666 69.2553 12.411 70.0003 13.3327 70.0003Z" fill="#3366CC"/>
<path d="M65.0007 25.0003H78.334C79.2557 25.0003 80.0007 24.2553 80.0007 23.3337C80.0007 22.412 79.2557 21.667 78.334 21.667H65.0007C64.079 21.667 63.334 22.412 63.334 23.3337C63.334 24.2553 64.079 25.0003 65.0007 25.0003Z" fill="#3366CC"/>
<path d="M85.5 22.1496C85.1817 22.4496 85 22.8813 85 23.333C85 23.783 85.1817 24.2163 85.4833 24.4996C85.7983 24.8163 86.215 24.9996 86.6667 24.9996C87.1 24.9996 87.5333 24.8163 87.85 24.5163C88.15 24.1996 88.3333 23.7663 88.3333 23.333C88.3333 22.8996 88.15 22.4646 87.85 22.1496C87.2167 21.533 86.0817 21.5496 85.5 22.1496Z" fill="#3366CC"/>
<path d="M81.6667 16.6663H86.6667C87.5883 16.6663 88.3333 15.9213 88.3333 14.9997C88.3333 14.078 87.5883 13.333 86.6667 13.333H81.6667C80.745 13.333 80 14.078 80 14.9997C80 15.9213 80.745 16.6663 81.6667 16.6663Z" fill="#3366CC"/>
<path d="M65.0007 16.6663H68.334C69.2557 16.6663 70.0007 15.9213 70.0007 14.9997C70.0007 14.078 69.2557 13.333 68.334 13.333H65.0007C64.079 13.333 63.334 14.078 63.334 14.9997C63.334 15.9213 64.079 16.6663 65.0007 16.6663Z" fill="#3366CC"/>
<path d="M75.0006 16.667C75.4506 16.667 75.8673 16.4837 76.184 16.1837C76.484 15.867 76.6673 15.4503 76.6673 15.0003C76.6673 14.5487 76.484 14.132 76.184 13.817C75.5673 13.2003 74.4157 13.2003 73.8173 13.817C73.5157 14.132 73.334 14.5487 73.334 15.0003C73.334 15.4503 73.5157 15.867 73.8173 16.1837C74.1323 16.4837 74.549 16.667 75.0006 16.667Z" fill="#3366CC"/>
<path d="M44.7495 45.6413C47.4762 42.7747 49.3195 39.0713 49.8595 34.958L34.0762 34.968L44.7495 45.6413Z" fill="#3366CC"/>
<path d="M30.8756 51.6253C35.134 51.6253 39.0606 50.212 42.2456 47.852L29.5173 34.9636L28.3756 34.9586V33.427C28.3773 33.322 28.3873 31.9736 28.3773 31.6836L28.3756 13.4736C18.9873 14.7053 11.709 22.7386 11.709 32.4586C11.709 43.0253 20.309 51.6253 30.8756 51.6253Z" fill="#3366CC"/>
<path d="M31.709 13.333V31.6247H50.0007C49.5723 21.723 41.6107 13.7613 31.709 13.333Z" fill="#3366CC"/>
</svg>
