<svg width="100" height="100" viewBox="0 0 100 100" fill="none" xmlns="http://www.w3.org/2000/svg">
<path d="M98.3327 33.333H48.3327C47.3327 33.333 46.666 33.9997 46.666 34.9997V98.333C46.666 99.333 47.3327 99.9997 48.3327 99.9997H98.3327C99.3327 99.9997 99.9993 99.333 99.9993 98.333V34.9997C99.9993 33.9997 99.3327 33.333 98.3327 33.333ZM96.666 36.6663V46.6663H49.9993C49.9993 45.6663 49.9993 43.9997 49.9993 43.333H69.9993V39.9997H49.9993C49.9993 39.6663 49.9993 36.6663 49.9993 36.6663H96.666ZM49.9993 96.6663C49.9993 96.6663 49.9993 66.1663 49.9993 49.9997H96.666V96.6663H49.9993Z" fill="#3366CC"/>
<path d="M63.334 53.333H58.334V56.6663H63.334V53.333Z" fill="#3366CC"/>
<path d="M71.666 53.333H66.666V56.6663H71.666V53.333Z" fill="#3366CC"/>
<path d="M80 53.333H75V56.6663H80V53.333Z" fill="#3366CC"/>
<path d="M88.334 53.333H83.334V56.6663H88.334V53.333Z" fill="#3366CC"/>
<path d="M61.6667 61.667H55V65.0003H61.6667V61.667Z" fill="#3366CC"/>
<path d="M71.6667 61.667H65V65.0003H71.6667V61.667Z" fill="#3366CC"/>
<path d="M81.6667 61.667H75V65.0003H81.6667V61.667Z" fill="#3366CC"/>
<path d="M91.6667 61.667H85V65.0003H91.6667V61.667Z" fill="#3366CC"/>
<path d="M61.6667 68.333H55V71.6663H61.6667V68.333Z" fill="#3366CC"/>
<path d="M71.6667 68.333H65V71.6663H71.6667V68.333Z" fill="#3366CC"/>
<path d="M81.6667 68.333H75V71.6663H81.6667V68.333Z" fill="#3366CC"/>
<path d="M91.6667 68.333H85V71.6663H91.6667V68.333Z" fill="#3366CC"/>
<path d="M61.6667 75H55V78.3333H61.6667V75Z" fill="#3366CC"/>
<path d="M71.6667 75H65V78.3333H71.6667V75Z" fill="#3366CC"/>
<path d="M81.6667 75H75V78.3333H81.6667V75Z" fill="#3366CC"/>
<path d="M91.6667 75H85V78.3333H91.6667V75Z" fill="#3366CC"/>
<path d="M61.6667 81.667H55V85.0003H61.6667V81.667Z" fill="#3366CC"/>
<path d="M71.6667 81.667H65V85.0003H71.6667V81.667Z" fill="#3366CC"/>
<path d="M81.6667 81.667H75V85.0003H81.6667V81.667Z" fill="#3366CC"/>
<path d="M91.6667 81.667H85V85.0003H91.6667V81.667Z" fill="#3366CC"/>
<path d="M61.6667 88.333H55V91.6663H61.6667V88.333Z" fill="#3366CC"/>
<path d="M71.6667 88.333H65V91.6663H71.6667V88.333Z" fill="#3366CC"/>
<path d="M81.6667 88.333H75V91.6663H81.6667V88.333Z" fill="#3366CC"/>
<path d="M91.6667 88.333H85V91.6663H91.6667V88.333Z" fill="#3366CC"/>
<path d="M3.33333 23.3333H21.6667C22.6667 23.3333 23.3333 22.6667 23.3333 21.6667V3.33333H80V26.6667H83.3333V1.66667C83.3333 0.666667 82.6667 0 81.6667 0H21.6667C21.5 0 21.3333 0 21.1667 0.166667H21C20.8333 0.333333 20.6667 0.333333 20.5 0.5L0.5 20.5C0.333333 20.6667 0.333333 20.8333 0.166667 21V21.1667C0.166667 21.3333 0 21.5 0 21.6667V40H3.33333C3.33333 40 3.33333 25.1667 3.33333 23.3333ZM20 20H5.66667L12.8333 12.8333L20 5.66667V20Z" fill="#3366CC"/>
<path d="M41.6667 71.667H23.3333V65.0003V56.667V48.3337C23.3333 47.3337 22.6667 46.667 21.6667 46.667H1.66667C0.666667 46.667 0 47.3337 0 48.3337V56.667V65.0003V73.3337V81.667V90.0003V98.3337C0 99.3337 0.666667 100 1.66667 100H21.6667H41.6667C42.6667 100 43.3333 99.3337 43.3333 98.3337V90.0003V81.667V73.3337C43.3333 72.3337 42.6667 71.667 41.6667 71.667ZM3.33333 75.0003H20V80.0003H3.33333V75.0003ZM20 71.667H3.33333V66.667H20V71.667ZM20 63.3337H3.33333V58.3337H20V63.3337ZM3.33333 83.3337H20V88.3337H3.33333V83.3337ZM23.3333 83.3337H40V88.3337H23.3333V83.3337ZM40 80.0003H23.3333V75.0003H40V80.0003ZM3.33333 50.0003H20V55.0003H3.33333V50.0003ZM3.33333 91.667H20V96.667H3.33333V91.667ZM40 96.667H23.3333V91.667H40V96.667Z" fill="#3366CC"/>
<path d="M75.0007 8.33301H63.334V11.6663H75.0007V8.33301Z" fill="#3366CC"/>
<path d="M75 16.667H45V20.0003H75V16.667Z" fill="#3366CC"/>
<path d="M78.334 40H73.334V43.3333H78.334V40Z" fill="#3366CC"/>
</svg>
