<svg width="190" height="40" viewBox="0 0 190 40" fill="none" xmlns="http://www.w3.org/2000/svg">
<rect x="0.5" y="0.5" width="189" height="39" rx="2.5" fill="white" stroke="#3366CC"/>
<path d="M21.6654 11.668H14.9987C14.5567 11.668 14.1327 11.8436 13.8202 12.1561C13.5076 12.4687 13.332 12.8926 13.332 13.3346V26.668C13.332 27.11 13.5076 27.5339 13.8202 27.8465C14.1327 28.159 14.5567 28.3346 14.9987 28.3346H24.9987C25.4407 28.3346 25.8646 28.159 26.1772 27.8465C26.4898 27.5339 26.6654 27.11 26.6654 26.668V16.668L21.6654 11.668Z" stroke="#3366CC" stroke-linecap="round" stroke-linejoin="round"/>
<path d="M21.668 11.668V16.668H26.668" stroke="#3366CC" stroke-linecap="round" stroke-linejoin="round"/>
<path d="M20 25V20" stroke="#3366CC" stroke-linecap="round" stroke-linejoin="round"/>
<path d="M17.5 22.5H22.5" stroke="#3366CC" stroke-linecap="round" stroke-linejoin="round"/>
<path d="M41.0074 24.084C42.1834 24.084 43.1214 23.72 43.8214 22.978C44.5214 22.236 44.8714 21.228 44.8714 19.954V14.06H43.6534V19.87C43.6534 20.822 43.4014 21.564 42.9114 22.11C42.4214 22.67 41.7914 22.936 41.0074 22.936C40.1954 22.936 39.5654 22.656 39.0894 22.096C38.6134 21.536 38.3754 20.794 38.3754 19.87V14.06H37.1574V19.954C37.1574 21.242 37.5074 22.264 38.2074 22.992C38.9074 23.72 39.8454 24.084 41.0074 24.084ZM47.0142 26.772H48.1482V22.824H48.1622C48.6942 23.664 49.5062 24.084 50.5842 24.084C51.5362 24.084 52.3202 23.776 52.9502 23.132C53.5802 22.488 53.9022 21.662 53.9022 20.64C53.9022 19.632 53.5802 18.778 52.9642 18.106C52.3342 17.434 51.5362 17.098 50.5842 17.098C49.5202 17.098 48.7082 17.532 48.1622 18.386H48.1482V17.182H47.0142V26.772ZM50.4302 23.048C49.7582 23.048 49.2122 22.824 48.7642 22.376C48.3162 21.928 48.0922 21.354 48.0922 20.64C48.0922 19.94 48.3022 19.338 48.7362 18.862C49.1702 18.386 49.7302 18.134 50.4162 18.134C51.0742 18.134 51.6342 18.372 52.0822 18.834C52.5302 19.31 52.7542 19.912 52.7542 20.64C52.7542 21.34 52.5302 21.914 52.0962 22.362C51.6622 22.824 51.1022 23.048 50.4302 23.048ZM55.6978 24H56.8318V13.696H55.6978V24ZM62.1394 24.084C63.1474 24.084 63.9874 23.762 64.6594 23.118C65.3174 22.474 65.6534 21.634 65.6534 20.598C65.6534 19.576 65.3174 18.736 64.6594 18.078C63.9874 17.434 63.1474 17.098 62.1394 17.098C61.0894 17.098 60.2354 17.434 59.5914 18.106C58.9334 18.778 58.6114 19.604 58.6114 20.598C58.6114 21.606 58.9334 22.432 59.5914 23.09C60.2354 23.762 61.0894 24.084 62.1394 24.084ZM62.1394 23.048C61.4394 23.048 60.8794 22.824 60.4314 22.348C59.9834 21.872 59.7734 21.298 59.7734 20.598C59.7734 19.912 59.9834 19.324 60.4314 18.848C60.8654 18.372 61.4394 18.134 62.1394 18.134C62.7974 18.134 63.3574 18.372 63.8054 18.834C64.2534 19.296 64.4914 19.884 64.4914 20.598C64.4914 21.326 64.2534 21.914 63.8054 22.362C63.3574 22.824 62.7974 23.048 62.1394 23.048ZM70.2143 24.084C71.3063 24.084 72.1183 23.65 72.6503 22.768H72.6643V24H73.7563V17.182H72.6223V18.386L72.5943 18.4C72.3423 17.994 72.0203 17.672 71.6003 17.448C71.1803 17.224 70.7183 17.098 70.2143 17.098C69.2483 17.098 68.4503 17.434 67.8343 18.106C67.2043 18.778 66.8963 19.632 66.8963 20.64C66.8963 21.662 67.2043 22.488 67.8343 23.132C68.4643 23.776 69.2623 24.084 70.2143 24.084ZM70.3823 23.048C69.6823 23.048 69.1223 22.824 68.6883 22.362C68.2543 21.914 68.0443 21.34 68.0443 20.64C68.0443 19.912 68.2683 19.31 68.7163 18.834C69.1643 18.372 69.7103 18.134 70.3823 18.134C71.0403 18.134 71.5863 18.386 72.0203 18.862C72.4403 19.338 72.6643 19.94 72.6643 20.64C72.6643 21.354 72.4403 21.928 72.0063 22.376C71.5583 22.824 71.0263 23.048 70.3823 23.048ZM78.6915 24.084C79.7975 24.084 80.6235 23.636 81.1555 22.74H81.1695V24H82.2615V13.696H81.1275V18.4H81.1135C80.5675 17.532 79.7555 17.098 78.6775 17.098C77.7255 17.098 76.9275 17.448 76.2975 18.12C75.6535 18.792 75.3455 19.632 75.3455 20.64C75.3455 21.662 75.6535 22.488 76.2975 23.132C76.9275 23.776 77.7255 24.084 78.6915 24.084ZM78.8455 23.048C78.1455 23.048 77.5855 22.824 77.1515 22.362C76.7175 21.914 76.5075 21.34 76.5075 20.64C76.5075 19.912 76.7315 19.31 77.1795 18.834C77.6275 18.372 78.1875 18.134 78.8595 18.134C79.5315 18.134 80.0775 18.386 80.5115 18.862C80.9455 19.338 81.1695 19.94 81.1695 20.64C81.1695 21.354 80.9455 21.928 80.4975 22.376C80.0495 22.824 79.4895 23.048 78.8455 23.048ZM88.3619 24H89.5799V19.772H93.9199V18.666H89.5799V15.166H94.7039V14.06H88.3619V24ZM96.7269 15.936C96.9509 15.936 97.1469 15.866 97.3149 15.698C97.4689 15.544 97.5529 15.348 97.5529 15.124C97.5529 14.9 97.4689 14.718 97.3149 14.55C97.1469 14.396 96.9509 14.312 96.7269 14.312C96.4889 14.312 96.2929 14.396 96.1389 14.55C95.9709 14.718 95.9009 14.9 95.9009 15.124C95.9009 15.348 95.9709 15.544 96.1389 15.698C96.2929 15.866 96.4889 15.936 96.7269 15.936ZM96.1529 24H97.2869V17.182H96.1529V24ZM99.5845 24H100.719V13.696H99.5845V24ZM108.994 20.472C108.994 19.492 108.7 18.694 108.112 18.05C107.524 17.42 106.782 17.098 105.858 17.098C104.878 17.098 104.066 17.434 103.436 18.078C102.806 18.736 102.498 19.576 102.498 20.598C102.498 21.634 102.806 22.474 103.45 23.118C104.094 23.762 104.92 24.084 105.942 24.084C107.146 24.084 108.084 23.664 108.756 22.81L107.958 22.138C107.454 22.754 106.796 23.048 105.984 23.048C105.34 23.048 104.808 22.866 104.388 22.474C103.968 22.096 103.716 21.578 103.646 20.934H108.966C108.966 20.92 108.966 20.85 108.98 20.738C108.98 20.626 108.994 20.542 108.994 20.472ZM105.844 18.134C106.39 18.134 106.838 18.316 107.202 18.652C107.552 18.988 107.776 19.45 107.86 20.01H103.674C103.772 19.436 104.024 18.974 104.416 18.638C104.808 18.302 105.284 18.134 105.844 18.134ZM113.953 25.582L119.329 13.654L118.433 13.22L113.043 25.162L113.953 25.582ZM123.314 24H124.588L125.47 21.578H129.908L130.804 24H132.078L128.298 14.06H127.08L123.314 24ZM125.862 20.514L127.668 15.53H127.696L129.53 20.514H125.862ZM136.387 24.084C137.493 24.084 138.319 23.636 138.851 22.74H138.865V24H139.957V13.696H138.823V18.4H138.809C138.263 17.532 137.451 17.098 136.373 17.098C135.421 17.098 134.623 17.448 133.993 18.12C133.349 18.792 133.041 19.632 133.041 20.64C133.041 21.662 133.349 22.488 133.993 23.132C134.623 23.776 135.421 24.084 136.387 24.084ZM136.541 23.048C135.841 23.048 135.281 22.824 134.847 22.362C134.413 21.914 134.203 21.34 134.203 20.64C134.203 19.912 134.427 19.31 134.875 18.834C135.323 18.372 135.883 18.134 136.555 18.134C137.227 18.134 137.773 18.386 138.207 18.862C138.641 19.338 138.865 19.94 138.865 20.64C138.865 21.354 138.641 21.928 138.193 22.376C137.745 22.824 137.185 23.048 136.541 23.048ZM144.973 24.084C146.079 24.084 146.905 23.636 147.437 22.74H147.451V24H148.543V13.696H147.409V18.4H147.395C146.849 17.532 146.037 17.098 144.959 17.098C144.007 17.098 143.209 17.448 142.579 18.12C141.935 18.792 141.627 19.632 141.627 20.64C141.627 21.662 141.935 22.488 142.579 23.132C143.209 23.776 144.007 24.084 144.973 24.084ZM145.127 23.048C144.427 23.048 143.867 22.824 143.433 22.362C142.999 21.914 142.789 21.34 142.789 20.64C142.789 19.912 143.013 19.31 143.461 18.834C143.909 18.372 144.469 18.134 145.141 18.134C145.813 18.134 146.359 18.386 146.793 18.862C147.227 19.338 147.451 19.94 147.451 20.64C147.451 21.354 147.227 21.928 146.779 22.376C146.331 22.824 145.771 23.048 145.127 23.048ZM154.643 24H160.775V22.894H155.861V14.06H154.643V24ZM162.926 15.936C163.15 15.936 163.346 15.866 163.514 15.698C163.668 15.544 163.752 15.348 163.752 15.124C163.752 14.9 163.668 14.718 163.514 14.55C163.346 14.396 163.15 14.312 162.926 14.312C162.688 14.312 162.492 14.396 162.338 14.55C162.17 14.718 162.1 14.9 162.1 15.124C162.1 15.348 162.17 15.544 162.338 15.698C162.492 15.866 162.688 15.936 162.926 15.936ZM162.352 24H163.486V17.182H162.352V24ZM165.7 24H166.834V20.598C166.834 19.842 167.016 19.24 167.408 18.792C167.786 18.358 168.304 18.134 168.962 18.134C170.082 18.134 170.642 18.848 170.642 20.276V24H171.776V19.954C171.776 19.016 171.552 18.302 171.118 17.826C170.67 17.35 170.082 17.098 169.326 17.098C168.234 17.098 167.408 17.546 166.848 18.414H166.834V17.182H165.7V24ZM173.766 24H174.9V22.306L176.3 20.794L178.358 24H179.66L177.084 19.996L179.632 17.182H178.26L174.914 20.92L174.9 20.906V13.696H173.766V24Z" fill="#3366CC"/>
</svg>
