<svg width="81" height="12" viewBox="0 0 81 12" fill="none" xmlns="http://www.w3.org/2000/svg">
<path d="M3.7203 9.072C4.7283 9.072 5.5323 8.76 6.1323 8.124C6.7323 7.488 7.0323 6.624 7.0323 5.532V0.48H5.9883V5.46C5.9883 6.276 5.7723 6.912 5.3523 7.38C4.9323 7.86 4.3923 8.088 3.7203 8.088C3.0243 8.088 2.4843 7.848 2.0763 7.368C1.6683 6.888 1.4643 6.252 1.4643 5.46V0.48H0.420299V5.532C0.420299 6.636 0.720299 7.512 1.3203 8.136C1.9203 8.76 2.7243 9.072 3.7203 9.072ZM8.86896 11.376H9.84096V7.992H9.85296C10.309 8.712 11.005 9.072 11.929 9.072C12.745 9.072 13.417 8.808 13.957 8.256C14.497 7.704 14.773 6.996 14.773 6.12C14.773 5.256 14.497 4.524 13.969 3.948C13.429 3.372 12.745 3.084 11.929 3.084C11.017 3.084 10.321 3.456 9.85296 4.188H9.84096V3.156H8.86896V11.376ZM11.797 8.184C11.221 8.184 10.753 7.992 10.369 7.608C9.98496 7.224 9.79296 6.732 9.79296 6.12C9.79296 5.52 9.97296 5.004 10.345 4.596C10.717 4.188 11.197 3.972 11.785 3.972C12.349 3.972 12.829 4.176 13.213 4.572C13.597 4.98 13.789 5.496 13.789 6.12C13.789 6.72 13.597 7.212 13.225 7.596C12.853 7.992 12.373 8.184 11.797 8.184ZM16.312 9H17.284V0.167999H16.312V9ZM21.8335 9.072C22.6975 9.072 23.4175 8.796 23.9935 8.244C24.5575 7.692 24.8455 6.972 24.8455 6.084C24.8455 5.208 24.5575 4.488 23.9935 3.924C23.4175 3.372 22.6975 3.084 21.8335 3.084C20.9335 3.084 20.2015 3.372 19.6495 3.948C19.0855 4.524 18.8095 5.232 18.8095 6.084C18.8095 6.948 19.0855 7.656 19.6495 8.22C20.2015 8.796 20.9335 9.072 21.8335 9.072ZM21.8335 8.184C21.2335 8.184 20.7535 7.992 20.3695 7.584C19.9855 7.176 19.8055 6.684 19.8055 6.084C19.8055 5.496 19.9855 4.992 20.3695 4.584C20.7415 4.176 21.2335 3.972 21.8335 3.972C22.3975 3.972 22.8775 4.176 23.2615 4.572C23.6455 4.968 23.8495 5.472 23.8495 6.084C23.8495 6.708 23.6455 7.212 23.2615 7.596C22.8775 7.992 22.3975 8.184 21.8335 8.184ZM28.7547 9.072C29.6907 9.072 30.3867 8.7 30.8427 7.944H30.8547V9H31.7907V3.156H30.8187V4.188L30.7947 4.2C30.5787 3.852 30.3027 3.576 29.9427 3.384C29.5827 3.192 29.1867 3.084 28.7547 3.084C27.9267 3.084 27.2427 3.372 26.7147 3.948C26.1747 4.524 25.9107 5.256 25.9107 6.12C25.9107 6.996 26.1747 7.704 26.7147 8.256C27.2547 8.808 27.9387 9.072 28.7547 9.072ZM28.8987 8.184C28.2987 8.184 27.8187 7.992 27.4467 7.596C27.0747 7.212 26.8947 6.72 26.8947 6.12C26.8947 5.496 27.0867 4.98 27.4707 4.572C27.8547 4.176 28.3227 3.972 28.8987 3.972C29.4627 3.972 29.9307 4.188 30.3027 4.596C30.6627 5.004 30.8547 5.52 30.8547 6.12C30.8547 6.732 30.6627 7.224 30.2907 7.608C29.9067 7.992 29.4507 8.184 28.8987 8.184ZM36.0209 9.072C36.9689 9.072 37.6769 8.688 38.1329 7.92H38.1449V9H39.0809V0.167999H38.1089V4.2H38.0969C37.6289 3.456 36.9329 3.084 36.0089 3.084C35.1929 3.084 34.5089 3.384 33.9689 3.96C33.4169 4.536 33.1529 5.256 33.1529 6.12C33.1529 6.996 33.4169 7.704 33.9689 8.256C34.5089 8.808 35.1929 9.072 36.0209 9.072ZM36.1529 8.184C35.5529 8.184 35.0729 7.992 34.7009 7.596C34.3289 7.212 34.1489 6.72 34.1489 6.12C34.1489 5.496 34.3409 4.98 34.7249 4.572C35.1089 4.176 35.5889 3.972 36.1649 3.972C36.7409 3.972 37.2089 4.188 37.5809 4.596C37.9529 5.004 38.1449 5.52 38.1449 6.12C38.1449 6.732 37.9529 7.224 37.5689 7.608C37.1849 7.992 36.7049 8.184 36.1529 8.184ZM44.3098 9H45.3538V5.748H46.8778L49.1338 9H50.3818L48.0298 5.652C49.4458 5.364 50.1538 4.524 50.1538 3.12C50.1538 2.328 49.9138 1.68 49.4458 1.2C48.9778 0.719999 48.2698 0.48 47.3338 0.48H44.3098V9ZM45.3538 4.8V1.428H47.1898C47.7778 1.428 48.2338 1.572 48.5698 1.86C48.9058 2.148 49.0738 2.568 49.0738 3.096C49.0738 3.624 48.9058 4.032 48.5698 4.344C48.2338 4.656 47.7178 4.8 47.0458 4.8H45.3538ZM56.9556 5.976C56.9556 5.136 56.7036 4.452 56.1996 3.9C55.6956 3.36 55.0596 3.084 54.2676 3.084C53.4276 3.084 52.7316 3.372 52.1916 3.924C51.6516 4.488 51.3876 5.208 51.3876 6.084C51.3876 6.972 51.6516 7.692 52.2036 8.244C52.7556 8.796 53.4636 9.072 54.3396 9.072C55.3716 9.072 56.1756 8.712 56.7516 7.98L56.0676 7.404C55.6356 7.932 55.0716 8.184 54.3756 8.184C53.8236 8.184 53.3676 8.028 53.0076 7.692C52.6476 7.368 52.4316 6.924 52.3716 6.372H56.9316C56.9316 6.36 56.9316 6.3 56.9436 6.204C56.9436 6.108 56.9556 6.036 56.9556 5.976ZM54.2556 3.972C54.7236 3.972 55.1076 4.128 55.4196 4.416C55.7196 4.704 55.9116 5.1 55.9836 5.58H52.3956C52.4796 5.088 52.6956 4.692 53.0316 4.404C53.3676 4.116 53.7756 3.972 54.2556 3.972ZM58.3807 11.376H59.3527V7.992H59.3647C59.8207 8.712 60.5167 9.072 61.4407 9.072C62.2567 9.072 62.9287 8.808 63.4687 8.256C64.0087 7.704 64.2847 6.996 64.2847 6.12C64.2847 5.256 64.0087 4.524 63.4807 3.948C62.9407 3.372 62.2567 3.084 61.4407 3.084C60.5287 3.084 59.8327 3.456 59.3647 4.188H59.3527V3.156H58.3807V11.376ZM61.3087 8.184C60.7327 8.184 60.2647 7.992 59.8807 7.608C59.4967 7.224 59.3047 6.732 59.3047 6.12C59.3047 5.52 59.4847 5.004 59.8567 4.596C60.2287 4.188 60.7087 3.972 61.2967 3.972C61.8607 3.972 62.3407 4.176 62.7247 4.572C63.1087 4.98 63.3007 5.496 63.3007 6.12C63.3007 6.72 63.1087 7.212 62.7367 7.596C62.3647 7.992 61.8847 8.184 61.3087 8.184ZM68.4038 9.072C69.2678 9.072 69.9878 8.796 70.5638 8.244C71.1278 7.692 71.4158 6.972 71.4158 6.084C71.4158 5.208 71.1278 4.488 70.5638 3.924C69.9878 3.372 69.2678 3.084 68.4038 3.084C67.5038 3.084 66.7718 3.372 66.2198 3.948C65.6558 4.524 65.3798 5.232 65.3798 6.084C65.3798 6.948 65.6558 7.656 66.2198 8.22C66.7718 8.796 67.5038 9.072 68.4038 9.072ZM68.4038 8.184C67.8038 8.184 67.3238 7.992 66.9398 7.584C66.5558 7.176 66.3758 6.684 66.3758 6.084C66.3758 5.496 66.5558 4.992 66.9398 4.584C67.3118 4.176 67.8038 3.972 68.4038 3.972C68.9678 3.972 69.4478 4.176 69.8318 4.572C70.2158 4.968 70.4198 5.472 70.4198 6.084C70.4198 6.708 70.2158 7.212 69.8318 7.596C69.4478 7.992 68.9678 8.184 68.4038 8.184ZM72.865 9H73.837V6.18C73.837 5.58 73.993 5.1 74.317 4.716C74.629 4.344 75.061 4.152 75.613 4.152C75.673 4.152 75.805 4.164 75.997 4.176V3.096C75.937 3.096 75.853 3.084 75.757 3.084C74.941 3.084 74.305 3.468 73.861 4.224H73.837V3.156H72.865V9ZM78.7395 9.072C79.2675 9.072 79.7475 8.952 80.1555 8.712L79.9035 7.86C79.5315 8.064 79.1955 8.16 78.9075 8.16C78.6435 8.16 78.4515 8.088 78.3555 7.92C78.2475 7.752 78.1995 7.488 78.1995 7.116V3.996H80.1315V3.156H78.1995V1.056L77.2275 1.164V3.156H76.4715V3.996H77.2275V7.26C77.2275 8.472 77.7315 9.072 78.7395 9.072Z" fill="#3366CC"/>
</svg>
