<?xml version="1.0" encoding="UTF-8" standalone="no"?><!DOCTYPE svg PUBLIC "-//W3C//DTD SVG 1.1//EN" "http://www.w3.org/Graphics/SVG/1.1/DTD/svg11.dtd"><svg width="100%" height="100%" viewBox="0 0 5282 1438" version="1.1" xmlns="http://www.w3.org/2000/svg" xmlns:xlink="http://www.w3.org/1999/xlink" xml:space="preserve" xmlns:serif="http://www.serif.com/" style="fill-rule:evenodd;clip-rule:evenodd;stroke-miterlimit:2.61313;"><g id="TRU"><text x="4008.96px" y="1396.69px" style="font-family:'Averta-Semibold';font-size:208.325px;fill:#3cf;">Utilit<tspan x="4476.44px " y="1396.69px ">a</tspan>rian</text><text x="2876.59px" y="1393.04px" style="font-family:'Averta-Semibold';font-size:205.399px;fill:#3cf;">|</text><text x="3020.68px" y="1402.87px" style="font-family:'Averta-Semibold';font-size:207.013px;fill:#fff;">R<tspan x="3155.24px " y="1402.87px ">e</tspan>liable</text><text x="3897.42px" y="1393.04px" style="font-family:'Averta-Semibold';font-size:205.399px;fill:#3cf;">|</text><text x="1651.71px" y="1396.43px" style="font-family:'Averta-Semibold';font-size:206.498px;fill:#3cf;">T<tspan x="1760.85px 1834.99px 1961.53px 2084.35px 2177.34px 2305.95px 2432.49px 2506.63px 2623.02px 2745.84px " y="1396.43px 1396.43px 1396.43px 1396.43px 1396.43px 1396.43px 1396.43px 1396.43px 1396.43px 1396.43px ">ransparent</tspan></text></g><g id="Logo-word" serif:id="Logo word"><path d="M3334.22,1018.82c-38.925,-10.663 -74.863,-26.863 -107.813,-48.388c-33.025,-21.612 -61.712,-47.687 -86.025,-78.475c-24.387,-30.662 -43.537,-67.112 -57.375,-109.425c-13.912,-42.25 -20.8,-88.15 -20.8,-137.625c0,-43.837 5.475,-85.55 16.525,-125.175c11.063,-39.65 27.688,-75.887 49.775,-108.712c22.113,-32.813 48.713,-61.275 79.95,-85.475c31.275,-24.2 68.025,-43.013 110.25,-56.35c42.325,-13.338 88.138,-20.013 137.6,-20.013c36.15,0 71.925,5.075 107.363,15.013c35.45,9.987 70.987,26.3 106.562,48.937c35.65,22.675 67.1,50.663 94.513,83.925l-132.138,112.625c-21.025,-24.912 -46.95,-45.812 -77.587,-62.85c-30.675,-17.05 -63.625,-25.55 -98.713,-25.55c-18.587,0 -36.637,2.25 -54.15,6.838c-17.575,4.562 -33.875,11.137 -49,19.725c-15.037,8.65 -28.862,19.4 -41.525,32.375c-12.637,13.037 -23.387,27.637 -32.362,44c-8.975,16.25 -15.925,34.675 -20.838,55.187c-4.862,20.55 -7.362,42.375 -7.362,65.5c-0,40.363 8.375,77.05 25,110.038c16.65,32.937 40.85,59.15 72.412,78.625c31.563,19.462 67.513,29.2 107.813,29.2c33.7,-0 66.225,-7.963 97.6,-23.875c31.475,-16.038 57.675,-37.175 78.7,-63.475l132.137,113.125c-35.162,43.837 -79.187,79.2 -132.137,106.037c-52.988,26.825 -111.763,40.263 -176.3,40.263c-42.413,-0 -83.125,-5.375 -122.088,-16.038l0.013,0.013Z" style="fill:#3cf;fill-rule:nonzero;"/><path d="M3938.6,1005.39c-48.588,-20.312 -93.025,-50.887 -133.4,-91.562l106.325,-131.575c27.687,30.175 57.6,52.975 89.725,68.4c32.087,15.45 62.325,23.212 90.75,23.212c20,0 36.737,-2.875 50,-8.662c13.312,-5.8 22.775,-13.25 28.137,-22.413c5.475,-9.137 8.163,-19.625 8.163,-31.575c-0,-20.7 -7.85,-37.1 -23.675,-49.187c-15.738,-12.113 -45.9,-25.463 -90.513,-40.225c-18.537,-6.363 -35.162,-12.425 -49.725,-18.213c-14.537,-5.787 -30.262,-12.962 -47.1,-21.512c-16.8,-8.65 -31.462,-17.425 -43.887,-26.388c-12.45,-8.85 -24.788,-19.6 -36.863,-32.062c-12.137,-12.45 -21.887,-25.713 -29.475,-39.738c-7.55,-14.025 -13.7,-30.175 -18.45,-48.4c-4.725,-18.2 -7.037,-37.9 -7.037,-58.962c-0,-41.7 11.087,-79.825 33.375,-114.388c22.287,-34.55 52.675,-61.737 91.025,-81.562c38.425,-19.838 80.637,-30.125 126.562,-30.838c95.763,-1.412 184.538,31.925 266.275,99.975l-102.587,133.7c-61.063,-49.112 -113.675,-73.712 -157.9,-73.712c-21.35,-0 -38.288,5.3 -50.788,15.775c-12.45,10.537 -18.85,25.087 -19.125,43.675c-0.412,16.837 7.25,30.95 22.813,42.387c15.65,11.388 45.175,25.538 88.712,42.363c64.513,24.9 108,43.675 130.45,56.275c47.063,26.387 78.05,59.375 93.163,99.012c8.787,23.488 13.175,50.488 13.175,81.038c-0,34.675 -5.763,66.225 -17.338,94.7c-11.612,28.362 -26.787,51.7 -45.55,70.012c-18.762,18.225 -40.5,33.613 -65.262,46.3c-24.7,12.6 -49.588,21.513 -74.675,26.775c-25.113,5.25 -50.5,7.913 -76.088,7.913c-50.887,-0 -100.6,-10.213 -149.187,-30.538l-0.025,0Z" style="fill:#3cf;fill-rule:nonzero;"/><path d="M4640.29,620.711l83.175,0c38.562,0 69,-9.025 91.3,-27.087c22.275,-18.113 33.387,-42.725 33.387,-73.963c0,-29.812 -10.575,-54 -31.775,-72.6c-21.262,-18.625 -51.2,-27.875 -89.725,-27.875l-86.362,0l-0,201.525Zm219.975,404.688l-156.825,-246.825l-63.15,-0l-0,246.825l-177.338,-0l0,-765.663l298.363,0c45.975,0 86.725,6.563 122.087,19.725c35.438,13.163 64.013,31.65 85.8,55.538c21.713,23.85 38.163,51.65 49.188,83.375c11.062,31.762 16.562,66.925 16.562,105.55c0,56.762 -12.287,104.475 -36.837,143.087c-24.538,38.638 -59.588,67.35 -105.175,86.338l-0,2.587l179.45,269.45l-212.125,0l-0,0.013Z" style="fill:#3cf;fill-rule:nonzero;"/><path d="M1734.62,990.636c-28.075,-29.775 -42.112,-73.475 -42.112,-131.025l-0,-224.15l-59.425,0l-0,-137.287l59.425,-0l-0,-168.425l168.4,-17.938l-0.001,186.35l127.888,0l0,137.288l-127.888,-0l0,192.587c0,18.938 2.888,33.663 8.676,44.2c5.812,10.575 16.212,15.8 31.324,15.8c17.55,0 34.9,-4.412 52.125,-13.175l41.575,124.225c-21.387,11.913 -42.912,20.938 -64.487,27.138c-21.563,6.062 -49.2,9.162 -82.9,9.162c-46.975,0 -84.525,-14.925 -112.6,-44.75Z" style="fill:#fff;fill-rule:nonzero;"/><path d="M2401.89,488.599l-0,181.587c-10.175,-0.712 -23.313,-1.025 -39.45,-1.025c-25.988,0 -48.175,5.163 -66.575,15.463c-18.45,10.387 -32.126,24.475 -41.063,42.412c-8.937,17.9 -13.438,38.438 -13.438,61.513l0.001,236.825l-168.388,-0l0,-527.275l168.387,-0l0,70.5l2.101,-0c13.349,-17.538 28.174,-32.275 44.474,-44.188c16.338,-11.9 33.588,-20.937 51.825,-27.125c18.3,-6.112 37.038,-9.15 56.338,-9.15c2.8,0 4.7,0.1 5.787,0.463Z" style="fill:#fff;fill-rule:nonzero;"/><path d="M2971.23,498.099l0,527.275l-168.875,-0l0,-59.425l-2.687,-0c-38.538,46.287 -88.25,69.425 -148.85,69.425c-126.725,-0 -190,-74.888 -190,-224.688l-0,-312.587l168.362,-0l0,271.012c0,42.088 6.263,72.063 18.725,89.725c12.45,17.713 33.05,26.575 61.825,26.575c26.613,0 48.713,-10.8 66.263,-32.375c17.6,-21.487 26.35,-52.875 26.35,-93.925l-0,-261.012l168.887,-0Z" style="fill:#fff;fill-rule:nonzero;"/><text x="5080.25px" y="398.636px" style="font-family:'Averta-Semibold';font-size:291.888px;fill:#fff;stroke:#36c;stroke-width:3.75px;">®</text></g><g id="Logo"><path d="M1330.16,1301.51c-479.199,-0 -869.062,-389.858 -869.062,-869.071l283.075,0c0,323.113 262.875,585.988 585.988,585.988l-0.001,283.083Z" style="fill:#3cf;fill-rule:nonzero;"/><path d="M1140.17,776.374c-94.95,-0 -172.175,-77.25 -172.175,-172.188c0,-94.95 77.225,-172.2 172.175,-172.2c94.963,0 172.225,77.263 172.225,172.2c0,94.95 -77.25,172.188 -172.225,172.188Z" style="fill:#3cf;fill-rule:nonzero;"/><path d="M189.988,405.836c-94.95,0 -172.201,-77.237 -172.201,-172.187c0,-94.95 77.25,-172.2 172.201,-172.2c94.962,-0 172.225,77.25 172.225,172.2c-0,94.95 -77.25,172.187 -172.225,172.187Z" style="fill:#fff;fill-rule:nonzero;"/><path d="M0,930.974l0,-283.075c323.125,-0 586.013,-262.9 586.013,-586.013l283.075,0c-0,479.225 -389.875,869.075 -869.075,869.075l-0.013,0.013Z" style="fill:#fff;fill-rule:nonzero;"/><text x="1104.54px" y="190.303px" style="font-family:'Averta-Semibold';font-size:291.888px;fill:#fff;stroke:#36c;stroke-width:3.75px;">®</text></g></svg>