<svg width="250" height="40" viewBox="0 0 250 40" fill="none" xmlns="http://www.w3.org/2000/svg">
<rect x="0.5" y="0.5" width="249" height="39" rx="4.5" fill="white" stroke="#3366CC"/>
<path d="M23.5961 26.108C25.1081 26.108 26.3141 25.64 27.2141 24.686C28.1141 23.732 28.5641 22.436 28.5641 20.798V13.22H26.9982V20.69C26.9982 21.914 26.6742 22.868 26.0441 23.57C25.4141 24.29 24.6041 24.632 23.5961 24.632C22.5521 24.632 21.7421 24.272 21.1301 23.552C20.5181 22.832 20.2121 21.878 20.2121 20.69V13.22H18.6461V20.798C18.6461 22.454 19.0961 23.768 19.9961 24.704C20.8961 25.64 22.1021 26.108 23.5961 26.108ZM31.6791 29.564H33.1371V24.488H33.1551C33.8391 25.568 34.8831 26.108 36.2691 26.108C37.4931 26.108 38.5011 25.712 39.3111 24.884C40.1211 24.056 40.5351 22.994 40.5351 21.68C40.5351 20.384 40.1211 19.286 39.3291 18.422C38.5191 17.558 37.4931 17.126 36.2691 17.126C34.9011 17.126 33.8571 17.684 33.1551 18.782H33.1371V17.234H31.6791V29.564ZM36.0711 24.776C35.2071 24.776 34.5051 24.488 33.9291 23.912C33.3531 23.336 33.0651 22.598 33.0651 21.68C33.0651 20.78 33.3351 20.006 33.8931 19.394C34.4511 18.782 35.1711 18.458 36.0531 18.458C36.8991 18.458 37.6191 18.764 38.1951 19.358C38.7711 19.97 39.0591 20.744 39.0591 21.68C39.0591 22.58 38.7711 23.318 38.2131 23.894C37.6551 24.488 36.9351 24.776 36.0711 24.776ZM43.2038 26H44.6618V12.752H43.2038V26ZM51.8459 26.108C53.1419 26.108 54.2219 25.694 55.0859 24.866C55.9319 24.038 56.3639 22.958 56.3639 21.626C56.3639 20.312 55.9319 19.232 55.0859 18.386C54.2219 17.558 53.1419 17.126 51.8459 17.126C50.4959 17.126 49.3979 17.558 48.5699 18.422C47.7239 19.286 47.3099 20.348 47.3099 21.626C47.3099 22.922 47.7239 23.984 48.5699 24.83C49.3979 25.694 50.4959 26.108 51.8459 26.108ZM51.8459 24.776C50.9459 24.776 50.2259 24.488 49.6499 23.876C49.0739 23.264 48.8039 22.526 48.8039 21.626C48.8039 20.744 49.0739 19.988 49.6499 19.376C50.2079 18.764 50.9459 18.458 51.8459 18.458C52.6919 18.458 53.4119 18.764 53.9879 19.358C54.5639 19.952 54.8699 20.708 54.8699 21.626C54.8699 22.562 54.5639 23.318 53.9879 23.894C53.4119 24.488 52.6919 24.776 51.8459 24.776ZM62.5878 26.108C63.9918 26.108 65.0358 25.55 65.7198 24.416H65.7378V26H67.1418V17.234H65.6838V18.782L65.6478 18.8C65.3238 18.278 64.9098 17.864 64.3698 17.576C63.8298 17.288 63.2358 17.126 62.5878 17.126C61.3458 17.126 60.3198 17.558 59.5278 18.422C58.7178 19.286 58.3218 20.384 58.3218 21.68C58.3218 22.994 58.7178 24.056 59.5278 24.884C60.3378 25.712 61.3638 26.108 62.5878 26.108ZM62.8038 24.776C61.9038 24.776 61.1838 24.488 60.6258 23.894C60.0678 23.318 59.7978 22.58 59.7978 21.68C59.7978 20.744 60.0858 19.97 60.6618 19.358C61.2378 18.764 61.9398 18.458 62.8038 18.458C63.6498 18.458 64.3518 18.782 64.9098 19.394C65.4498 20.006 65.7378 20.78 65.7378 21.68C65.7378 22.598 65.4498 23.336 64.8918 23.912C64.3158 24.488 63.6318 24.776 62.8038 24.776ZM73.8471 26.108C75.2691 26.108 76.3311 25.532 77.0151 24.38H77.0331V26H78.4371V12.752H76.9791V18.8H76.9611C76.2591 17.684 75.2151 17.126 73.8291 17.126C72.6051 17.126 71.5791 17.576 70.7691 18.44C69.9411 19.304 69.5451 20.384 69.5451 21.68C69.5451 22.994 69.9411 24.056 70.7691 24.884C71.5791 25.712 72.6051 26.108 73.8471 26.108ZM74.0451 24.776C73.1451 24.776 72.4251 24.488 71.8671 23.894C71.3091 23.318 71.0391 22.58 71.0391 21.68C71.0391 20.744 71.3271 19.97 71.9031 19.358C72.4791 18.764 73.1991 18.458 74.0631 18.458C74.9271 18.458 75.6291 18.782 76.1871 19.394C76.7451 20.006 77.0331 20.78 77.0331 21.68C77.0331 22.598 76.7451 23.336 76.1691 23.912C75.5931 24.488 74.8731 24.776 74.0451 24.776ZM89.7724 26H91.3384V14.642H95.2084V13.22H85.9564V14.642H89.7724V26ZM96.373 26H97.831V21.77C97.831 20.87 98.065 20.15 98.551 19.574C99.019 19.016 99.667 18.728 100.495 18.728C100.585 18.728 100.783 18.746 101.071 18.764V17.144C100.981 17.144 100.855 17.126 100.711 17.126C99.487 17.126 98.533 17.702 97.867 18.836H97.831V17.234H96.373V26ZM106.175 26.108C106.751 26.108 107.309 25.982 107.813 25.694C108.317 25.406 108.749 25.01 109.073 24.488H109.091V26H110.549V17.234H109.091V21.482C109.091 22.49 108.839 23.3 108.335 23.894C107.831 24.488 107.201 24.776 106.481 24.776C105.761 24.776 105.221 24.56 104.861 24.128C104.501 23.696 104.339 23.012 104.339 22.04V17.234H102.881V22.454C102.881 23.678 103.169 24.596 103.745 25.208C104.321 25.82 105.131 26.108 106.175 26.108ZM116.192 26.108C117.2 26.108 117.974 25.874 118.514 25.406C119.054 24.938 119.342 24.326 119.342 23.606C119.342 22.814 119.036 22.202 118.406 21.77C118.118 21.608 117.416 21.302 116.282 20.852C115.724 20.654 115.31 20.456 115.04 20.258C114.752 20.06 114.626 19.808 114.626 19.484C114.626 19.16 114.752 18.908 115.022 18.71C115.292 18.53 115.616 18.422 115.976 18.422C116.84 18.422 117.614 18.746 118.298 19.358L119.054 18.206C118.154 17.486 117.146 17.126 116.03 17.126C115.202 17.126 114.5 17.36 113.96 17.81C113.42 18.26 113.15 18.818 113.15 19.484C113.15 19.88 113.204 20.222 113.348 20.51C113.474 20.798 113.672 21.05 113.942 21.248C114.212 21.464 114.482 21.626 114.752 21.752C115.004 21.896 115.346 22.022 115.778 22.166C116.48 22.436 116.912 22.598 117.056 22.652C117.596 22.904 117.866 23.228 117.866 23.624C117.866 23.984 117.704 24.272 117.416 24.488C117.11 24.704 116.696 24.812 116.192 24.812C115.13 24.812 114.23 24.47 113.51 23.75L112.772 24.866C113.708 25.694 114.86 26.108 116.192 26.108ZM124.23 26.108C125.022 26.108 125.742 25.928 126.354 25.568L125.976 24.29C125.418 24.596 124.914 24.74 124.482 24.74C124.086 24.74 123.798 24.632 123.654 24.38C123.492 24.128 123.42 23.732 123.42 23.174V18.494H126.318V17.234H123.42V14.084L121.962 14.246V17.234H120.828V18.494H121.962V23.39C121.962 25.208 122.718 26.108 124.23 26.108ZM134.108 26H137.978C139.994 26 141.596 25.424 142.784 24.254C143.972 23.084 144.566 21.536 144.566 19.628C144.566 17.72 143.954 16.19 142.748 15.002C141.524 13.814 139.922 13.22 137.924 13.22H134.108V26ZM135.674 24.578V14.642H137.942C139.418 14.642 140.624 15.11 141.56 16.046C142.478 16.982 142.946 18.17 142.946 19.628C142.946 21.104 142.478 22.292 141.56 23.21C140.642 24.128 139.418 24.578 137.888 24.578H135.674ZM155.106 21.464C155.106 20.204 154.728 19.178 153.972 18.35C153.216 17.54 152.262 17.126 151.074 17.126C149.814 17.126 148.77 17.558 147.96 18.386C147.15 19.232 146.754 20.312 146.754 21.626C146.754 22.958 147.15 24.038 147.978 24.866C148.806 25.694 149.868 26.108 151.182 26.108C152.73 26.108 153.936 25.568 154.8 24.47L153.774 23.606C153.126 24.398 152.28 24.776 151.236 24.776C150.408 24.776 149.724 24.542 149.184 24.038C148.644 23.552 148.32 22.886 148.23 22.058H155.07C155.07 22.04 155.07 21.95 155.088 21.806C155.088 21.662 155.106 21.554 155.106 21.464ZM151.056 18.458C151.758 18.458 152.334 18.692 152.802 19.124C153.252 19.556 153.54 20.15 153.648 20.87H148.266C148.392 20.132 148.716 19.538 149.22 19.106C149.724 18.674 150.336 18.458 151.056 18.458ZM165.398 21.464C165.398 20.204 165.02 19.178 164.264 18.35C163.508 17.54 162.554 17.126 161.366 17.126C160.106 17.126 159.062 17.558 158.252 18.386C157.442 19.232 157.046 20.312 157.046 21.626C157.046 22.958 157.442 24.038 158.27 24.866C159.098 25.694 160.16 26.108 161.474 26.108C163.022 26.108 164.228 25.568 165.092 24.47L164.066 23.606C163.418 24.398 162.572 24.776 161.528 24.776C160.7 24.776 160.016 24.542 159.476 24.038C158.936 23.552 158.612 22.886 158.522 22.058H165.362C165.362 22.04 165.362 21.95 165.38 21.806C165.38 21.662 165.398 21.554 165.398 21.464ZM161.348 18.458C162.05 18.458 162.626 18.692 163.094 19.124C163.544 19.556 163.832 20.15 163.94 20.87H158.558C158.684 20.132 159.008 19.538 159.512 19.106C160.016 18.674 160.628 18.458 161.348 18.458ZM171.622 26.108C173.044 26.108 174.106 25.532 174.79 24.38H174.808V26H176.212V12.752H174.754V18.8H174.736C174.034 17.684 172.99 17.126 171.604 17.126C170.38 17.126 169.354 17.576 168.544 18.44C167.716 19.304 167.32 20.384 167.32 21.68C167.32 22.994 167.716 24.056 168.544 24.884C169.354 25.712 170.38 26.108 171.622 26.108ZM171.82 24.776C170.92 24.776 170.2 24.488 169.642 23.894C169.084 23.318 168.814 22.58 168.814 21.68C168.814 20.744 169.102 19.97 169.678 19.358C170.254 18.764 170.974 18.458 171.838 18.458C172.702 18.458 173.404 18.782 173.962 19.394C174.52 20.006 174.808 20.78 174.808 21.68C174.808 22.598 174.52 23.336 173.944 23.912C173.368 24.488 172.648 24.776 171.82 24.776ZM183.893 28.034L190.805 12.698L189.653 12.14L182.723 27.494L183.893 28.034ZM197.782 26H199.348V21.122H201.634L205.018 26H206.89L203.362 20.978C205.486 20.546 206.548 19.286 206.548 17.18C206.548 15.992 206.188 15.02 205.486 14.3C204.784 13.58 203.722 13.22 202.318 13.22H197.782V26ZM199.348 19.7V14.642H202.102C202.984 14.642 203.668 14.858 204.172 15.29C204.676 15.722 204.928 16.352 204.928 17.144C204.928 17.936 204.676 18.548 204.172 19.016C203.668 19.484 202.894 19.7 201.886 19.7H199.348ZM213.039 26.108C214.479 26.108 215.667 25.676 216.567 24.794H216.603L217.629 26H219.375L217.611 23.876V23.84C218.331 22.778 218.709 21.518 218.709 20.06L217.287 20.078C217.287 21.014 217.071 21.86 216.639 22.634H216.585L211.401 16.478C211.473 15.884 211.707 15.398 212.103 15.002C212.499 14.624 213.039 14.426 213.759 14.426C214.839 14.426 215.631 14.948 216.117 15.992L217.377 15.506C217.071 14.822 216.603 14.264 215.991 13.796C215.361 13.328 214.587 13.094 213.651 13.094C212.607 13.094 211.725 13.436 211.041 14.12C210.339 14.804 209.943 15.668 209.871 16.712L211.383 18.548V18.584C210.663 18.98 210.069 19.502 209.637 20.168C209.187 20.852 208.971 21.572 208.971 22.346C208.971 23.462 209.349 24.38 210.141 25.064C210.915 25.766 211.887 26.108 213.039 26.108ZM213.183 24.722C212.373 24.722 211.725 24.506 211.239 24.038C210.735 23.57 210.501 22.994 210.501 22.274C210.501 21.734 210.663 21.23 210.987 20.744C211.311 20.276 211.743 19.898 212.283 19.628L215.721 23.714V23.75C215.037 24.398 214.191 24.722 213.183 24.722ZM221.793 26H223.359V21.122H225.645L229.029 26H230.901L227.373 20.978C229.497 20.546 230.559 19.286 230.559 17.18C230.559 15.992 230.199 15.02 229.497 14.3C228.795 13.58 227.733 13.22 226.329 13.22H221.793V26ZM223.359 19.7V14.642H226.113C226.995 14.642 227.679 14.858 228.183 15.29C228.687 15.722 228.939 16.352 228.939 17.144C228.939 17.936 228.687 18.548 228.183 19.016C227.679 19.484 226.905 19.7 225.897 19.7H223.359Z" fill="#3366CC"/>
</svg>
