<svg width="100" height="100" viewBox="0 0 100 100" fill="none" xmlns="http://www.w3.org/2000/svg">
<g clip-path="url(#clip0_2813_1150)">
<path d="M98.353 64.539L93.5829 57.6996L96.9111 35.2367C97.1778 33.4368 96.6473 31.6098 95.4586 30.2319C94.3451 28.941 92.7564 28.1641 91.0639 28.0719V15.0239C91.0639 8.66724 85.892 3.49609 79.5354 3.49609H60.8166C54.5874 3.49609 51.2798 6.12644 48.8653 8.04721C46.9242 9.59116 45.7524 10.5229 43.2388 10.5229H16.1875C10.5228 10.5229 5.91471 15.0143 5.91471 20.5351V28.0719C4.2215 28.1641 2.63326 28.941 1.51946 30.2319C0.331273 31.6098 -0.198957 33.4366 0.0675036 35.2365L7.57611 85.9141C8.03 88.9822 10.664 91.2546 13.7654 91.2546H67.9831C69.4444 94.354 72.5984 96.5048 76.2466 96.5048H82.6382C87.6733 96.5048 91.7696 92.4088 91.7696 87.3734V78.8501C94.8205 78.5501 97.5223 76.7439 98.9593 73.9873C100.539 70.9603 100.307 67.3397 98.353 64.539ZM13.4478 28.0618V20.5351C13.4478 18.9836 14.8405 18.056 16.1873 18.056H43.2385C48.3827 18.056 51.2507 15.7755 53.5546 13.9431C55.6807 12.2514 57.218 11.0292 60.8163 11.0292H79.5351C81.7378 11.0292 83.5298 12.8212 83.5298 15.0239V28.0618H13.4478ZM93.672 71.3821C93.0815 72.5133 91.9117 73.2226 90.6357 73.2226H85.8343V87.4089C85.8343 89.3003 84.3006 90.833 82.4092 90.833H76.018C74.1266 90.833 72.5932 89.3003 72.5932 87.4089V73.2224H67.7913C66.5158 73.2224 65.3457 72.513 64.7553 71.3819C64.1653 70.2509 64.2532 68.8854 64.9828 67.8393L76.4056 51.4658C77.046 50.5473 78.0942 50.0004 79.2144 50.0004C80.3333 50.0004 81.3818 50.5473 82.0226 51.4658L93.4449 67.8396C94.1741 68.8856 94.2621 70.2512 93.672 71.3821Z" fill="#3366CC"/>
</g>
<defs>
<clipPath id="clip0_2813_1150">
<rect width="100" height="100" fill="white"/>
</clipPath>
</defs>
</svg>
