<svg width="232" height="42" viewBox="0 0 232 42" fill="none" xmlns="http://www.w3.org/2000/svg">
<rect x="1" y="1" width="230" height="40" rx="5" fill="white" stroke="#3366CC"/>
<path d="M49.6553 16.0059V22.4727C49.6553 23.2109 49.4889 23.8581 49.1562 24.4141C48.8281 24.9701 48.3519 25.3962 47.7275 25.6924C47.1032 25.9886 46.3649 26.1367 45.5127 26.1367C44.2275 26.1367 43.2295 25.8086 42.5186 25.1523C41.8076 24.4915 41.4521 23.5892 41.4521 22.4453V16.0059H43.5645V22.124C43.5645 22.8942 43.7194 23.4593 44.0293 23.8193C44.3392 24.1794 44.8519 24.3594 45.5674 24.3594C46.2601 24.3594 46.7614 24.1794 47.0713 23.8193C47.3857 23.4548 47.543 22.8851 47.543 22.1104V16.0059H49.6553ZM56.1357 26.1367C55.238 26.1367 54.5339 25.8109 54.0234 25.1592H53.9141C53.987 25.7972 54.0234 26.1663 54.0234 26.2666V29.3633H51.9385V18.3574H53.6338L53.9277 19.3486H54.0234C54.5111 18.5921 55.2334 18.2139 56.1904 18.2139C57.0928 18.2139 57.7992 18.5625 58.3096 19.2598C58.82 19.957 59.0752 20.9255 59.0752 22.165C59.0752 22.9808 58.9544 23.6895 58.7129 24.291C58.4759 24.8926 58.1364 25.3506 57.6943 25.665C57.2523 25.9795 56.7327 26.1367 56.1357 26.1367ZM55.5205 19.8818C55.0055 19.8818 54.6296 20.0413 54.3926 20.3604C54.1556 20.6748 54.0326 21.1966 54.0234 21.9258V22.1514C54.0234 22.9717 54.1442 23.5596 54.3857 23.915C54.6318 24.2705 55.0192 24.4482 55.5479 24.4482C56.4821 24.4482 56.9492 23.6781 56.9492 22.1377C56.9492 21.3857 56.833 20.8229 56.6006 20.4492C56.3727 20.071 56.0127 19.8818 55.5205 19.8818ZM62.8828 26H60.7979V15.3633H62.8828V26ZM66.7383 22.165C66.7383 22.9215 66.8613 23.4935 67.1074 23.8809C67.3581 24.2682 67.7637 24.4619 68.3242 24.4619C68.8802 24.4619 69.279 24.2705 69.5205 23.8877C69.7666 23.5003 69.8896 22.9261 69.8896 22.165C69.8896 21.4085 69.7666 20.8411 69.5205 20.4629C69.2744 20.0846 68.8711 19.8955 68.3105 19.8955C67.7546 19.8955 67.3535 20.0846 67.1074 20.4629C66.8613 20.8366 66.7383 21.404 66.7383 22.165ZM72.0225 22.165C72.0225 23.4092 71.6943 24.3822 71.0381 25.084C70.3818 25.7858 69.4681 26.1367 68.2969 26.1367C67.5632 26.1367 66.916 25.9772 66.3555 25.6582C65.7949 25.3346 65.3643 24.8721 65.0635 24.2705C64.7627 23.6689 64.6123 22.9671 64.6123 22.165C64.6123 20.9163 64.9382 19.9456 65.5898 19.2529C66.2415 18.5602 67.1576 18.2139 68.3379 18.2139C69.0716 18.2139 69.7188 18.3734 70.2793 18.6924C70.8398 19.0114 71.2705 19.4694 71.5713 20.0664C71.8721 20.6634 72.0225 21.363 72.0225 22.165ZM78.5986 26L78.1953 24.9609H78.1406C77.7897 25.403 77.4274 25.7106 77.0537 25.8838C76.6846 26.0524 76.2015 26.1367 75.6045 26.1367C74.8708 26.1367 74.292 25.9271 73.8682 25.5078C73.4489 25.0885 73.2393 24.4915 73.2393 23.7168C73.2393 22.9056 73.5218 22.3086 74.0869 21.9258C74.6566 21.5384 75.5133 21.3242 76.6572 21.2832L77.9834 21.2422V20.9072C77.9834 20.1325 77.5869 19.7451 76.7939 19.7451C76.1833 19.7451 75.4655 19.9297 74.6406 20.2988L73.9502 18.8906C74.8298 18.4303 75.805 18.2002 76.876 18.2002C77.9014 18.2002 78.6875 18.4235 79.2344 18.8701C79.7812 19.3167 80.0547 19.9958 80.0547 20.9072V26H78.5986ZM77.9834 22.459L77.1768 22.4863C76.5706 22.5046 76.1195 22.6139 75.8232 22.8145C75.527 23.015 75.3789 23.3203 75.3789 23.7305C75.3789 24.3184 75.7161 24.6123 76.3906 24.6123C76.8737 24.6123 77.2588 24.4733 77.5459 24.1953C77.8376 23.9173 77.9834 23.5482 77.9834 23.0879V22.459ZM84.6279 26.1367C83.7301 26.1367 83.0238 25.7881 82.5088 25.0908C81.9984 24.3936 81.7432 23.4274 81.7432 22.1924C81.7432 20.9391 82.0029 19.9639 82.5225 19.2666C83.0465 18.5648 83.7666 18.2139 84.6826 18.2139C85.6442 18.2139 86.3779 18.5876 86.8838 19.335H86.9521C86.8473 18.7653 86.7949 18.2572 86.7949 17.8105V15.3633H88.8867V26H87.2871L86.8838 25.0088H86.7949C86.321 25.7607 85.5986 26.1367 84.6279 26.1367ZM85.3594 24.4756C85.8926 24.4756 86.2822 24.3206 86.5283 24.0107C86.779 23.7008 86.9157 23.1745 86.9385 22.4316V22.2061C86.9385 21.3857 86.8109 20.7979 86.5557 20.4424C86.305 20.0869 85.8949 19.9092 85.3252 19.9092C84.8604 19.9092 84.498 20.1074 84.2383 20.5039C83.9831 20.8958 83.8555 21.4678 83.8555 22.2197C83.8555 22.9717 83.9854 23.5368 84.2451 23.915C84.5049 24.2887 84.8763 24.4756 85.3594 24.4756ZM99.1133 17.626C98.3158 17.626 97.6982 17.9268 97.2607 18.5283C96.8232 19.1253 96.6045 19.9593 96.6045 21.0303C96.6045 23.2588 97.4408 24.373 99.1133 24.373C99.8151 24.373 100.665 24.1976 101.663 23.8467V25.624C100.843 25.9658 99.9268 26.1367 98.915 26.1367C97.4613 26.1367 96.3493 25.6969 95.5791 24.8174C94.8089 23.9333 94.4238 22.6663 94.4238 21.0166C94.4238 19.9775 94.613 19.0684 94.9912 18.2891C95.3695 17.5052 95.9118 16.9059 96.6182 16.4912C97.3291 16.0719 98.1608 15.8623 99.1133 15.8623C100.084 15.8623 101.059 16.097 102.039 16.5664L101.355 18.2891C100.982 18.1113 100.606 17.9564 100.228 17.8242C99.8493 17.6921 99.4779 17.626 99.1133 17.626ZM108.485 26L108.082 24.9609H108.027C107.676 25.403 107.314 25.7106 106.94 25.8838C106.571 26.0524 106.088 26.1367 105.491 26.1367C104.757 26.1367 104.179 25.9271 103.755 25.5078C103.336 25.0885 103.126 24.4915 103.126 23.7168C103.126 22.9056 103.409 22.3086 103.974 21.9258C104.543 21.5384 105.4 21.3242 106.544 21.2832L107.87 21.2422V20.9072C107.87 20.1325 107.474 19.7451 106.681 19.7451C106.07 19.7451 105.352 19.9297 104.527 20.2988L103.837 18.8906C104.716 18.4303 105.692 18.2002 106.763 18.2002C107.788 18.2002 108.574 18.4235 109.121 18.8701C109.668 19.3167 109.941 19.9958 109.941 20.9072V26H108.485ZM107.87 22.459L107.063 22.4863C106.457 22.5046 106.006 22.6139 105.71 22.8145C105.414 23.015 105.266 23.3203 105.266 23.7305C105.266 24.3184 105.603 24.6123 106.277 24.6123C106.76 24.6123 107.146 24.4733 107.433 24.1953C107.724 23.9173 107.87 23.5482 107.87 23.0879V22.459ZM119.149 26H117.064V21.5361C117.064 20.9847 116.966 20.5723 116.771 20.2988C116.575 20.0208 116.262 19.8818 115.834 19.8818C115.251 19.8818 114.829 20.0778 114.569 20.4697C114.31 20.8571 114.18 21.502 114.18 22.4043V26H112.095V18.3574H113.688L113.968 19.335H114.084C114.316 18.9658 114.635 18.6878 115.041 18.501C115.451 18.3096 115.916 18.2139 116.436 18.2139C117.324 18.2139 117.999 18.4554 118.459 18.9385C118.919 19.417 119.149 20.1097 119.149 21.0166V26ZM124.399 26.1367C122.021 26.1367 120.831 24.8311 120.831 22.2197C120.831 20.9209 121.155 19.9297 121.802 19.2461C122.449 18.5579 123.376 18.2139 124.584 18.2139C125.468 18.2139 126.261 18.387 126.963 18.7334L126.348 20.3467C126.02 20.2145 125.714 20.1074 125.432 20.0254C125.149 19.9388 124.867 19.8955 124.584 19.8955C123.499 19.8955 122.957 20.6657 122.957 22.2061C122.957 23.7008 123.499 24.4482 124.584 24.4482C124.985 24.4482 125.356 24.3958 125.698 24.291C126.04 24.1816 126.382 24.013 126.724 23.7852V25.5693C126.386 25.7835 126.045 25.9316 125.698 26.0137C125.356 26.0957 124.924 26.1367 124.399 26.1367ZM131.666 19.6973C131.224 19.6973 130.878 19.8385 130.627 20.1211C130.376 20.3991 130.233 20.7956 130.196 21.3105H133.122C133.113 20.7956 132.979 20.3991 132.719 20.1211C132.459 19.8385 132.108 19.6973 131.666 19.6973ZM131.96 26.1367C130.729 26.1367 129.768 25.7972 129.075 25.1182C128.382 24.4391 128.036 23.4775 128.036 22.2334C128.036 20.9528 128.355 19.9639 128.993 19.2666C129.636 18.5648 130.522 18.2139 131.652 18.2139C132.732 18.2139 133.573 18.5215 134.175 19.1367C134.776 19.752 135.077 20.6019 135.077 21.6865V22.6982H130.148C130.171 23.2907 130.347 23.7533 130.675 24.0859C131.003 24.4186 131.463 24.585 132.056 24.585C132.516 24.585 132.951 24.5371 133.361 24.4414C133.771 24.3457 134.2 24.193 134.646 23.9834V25.5967C134.282 25.779 133.892 25.9134 133.478 26C133.063 26.0911 132.557 26.1367 131.96 26.1367ZM138.857 26H136.772V15.3633H138.857V26ZM143.137 26H141.052V15.3633H143.137V26ZM148.496 19.6973C148.054 19.6973 147.708 19.8385 147.457 20.1211C147.206 20.3991 147.063 20.7956 147.026 21.3105H149.952C149.943 20.7956 149.809 20.3991 149.549 20.1211C149.289 19.8385 148.938 19.6973 148.496 19.6973ZM148.79 26.1367C147.56 26.1367 146.598 25.7972 145.905 25.1182C145.213 24.4391 144.866 23.4775 144.866 22.2334C144.866 20.9528 145.185 19.9639 145.823 19.2666C146.466 18.5648 147.352 18.2139 148.482 18.2139C149.562 18.2139 150.403 18.5215 151.005 19.1367C151.606 19.752 151.907 20.6019 151.907 21.6865V22.6982H146.979C147.001 23.2907 147.177 23.7533 147.505 24.0859C147.833 24.4186 148.293 24.585 148.886 24.585C149.346 24.585 149.781 24.5371 150.191 24.4414C150.602 24.3457 151.03 24.193 151.477 23.9834V25.5967C151.112 25.779 150.722 25.9134 150.308 26C149.893 26.0911 149.387 26.1367 148.79 26.1367ZM156.022 26.1367C155.125 26.1367 154.418 25.7881 153.903 25.0908C153.393 24.3936 153.138 23.4274 153.138 22.1924C153.138 20.9391 153.397 19.9639 153.917 19.2666C154.441 18.5648 155.161 18.2139 156.077 18.2139C157.039 18.2139 157.772 18.5876 158.278 19.335H158.347C158.242 18.7653 158.189 18.2572 158.189 17.8105V15.3633H160.281V26H158.682L158.278 25.0088H158.189C157.715 25.7607 156.993 26.1367 156.022 26.1367ZM156.754 24.4756C157.287 24.4756 157.677 24.3206 157.923 24.0107C158.174 23.7008 158.31 23.1745 158.333 22.4316V22.2061C158.333 21.3857 158.205 20.7979 157.95 20.4424C157.7 20.0869 157.289 19.9092 156.72 19.9092C156.255 19.9092 155.893 20.1074 155.633 20.5039C155.378 20.8958 155.25 21.4678 155.25 22.2197C155.25 22.9717 155.38 23.5368 155.64 23.915C155.899 24.2887 156.271 24.4756 156.754 24.4756ZM170.508 17.626C169.71 17.626 169.093 17.9268 168.655 18.5283C168.218 19.1253 167.999 19.9593 167.999 21.0303C167.999 23.2588 168.835 24.373 170.508 24.373C171.21 24.373 172.06 24.1976 173.058 23.8467V25.624C172.237 25.9658 171.321 26.1367 170.31 26.1367C168.856 26.1367 167.744 25.6969 166.974 24.8174C166.203 23.9333 165.818 22.6663 165.818 21.0166C165.818 19.9775 166.007 19.0684 166.386 18.2891C166.764 17.5052 167.306 16.9059 168.013 16.4912C168.724 16.0719 169.555 15.8623 170.508 15.8623C171.479 15.8623 172.454 16.097 173.434 16.5664L172.75 18.2891C172.376 18.1113 172 17.9564 171.622 17.8242C171.244 17.6921 170.872 17.626 170.508 17.626ZM182.081 26H179.996V21.5361C179.996 20.4333 179.586 19.8818 178.766 19.8818C178.182 19.8818 177.761 20.0801 177.501 20.4766C177.241 20.873 177.111 21.5156 177.111 22.4043V26H175.026V15.3633H177.111V17.5303C177.111 17.6989 177.095 18.0954 177.063 18.7197L177.016 19.335H177.125C177.59 18.5876 178.328 18.2139 179.34 18.2139C180.238 18.2139 180.919 18.4554 181.384 18.9385C181.849 19.4215 182.081 20.1143 182.081 21.0166V26ZM187.393 19.6973C186.951 19.6973 186.604 19.8385 186.354 20.1211C186.103 20.3991 185.959 20.7956 185.923 21.3105H188.849C188.84 20.7956 188.705 20.3991 188.445 20.1211C188.186 19.8385 187.835 19.6973 187.393 19.6973ZM187.687 26.1367C186.456 26.1367 185.494 25.7972 184.802 25.1182C184.109 24.4391 183.763 23.4775 183.763 22.2334C183.763 20.9528 184.082 19.9639 184.72 19.2666C185.362 18.5648 186.249 18.2139 187.379 18.2139C188.459 18.2139 189.3 18.5215 189.901 19.1367C190.503 19.752 190.804 20.6019 190.804 21.6865V22.6982H185.875C185.898 23.2907 186.073 23.7533 186.401 24.0859C186.729 24.4186 187.19 24.585 187.782 24.585C188.243 24.585 188.678 24.5371 189.088 24.4414C189.498 24.3457 189.926 24.193 190.373 23.9834V25.5967C190.008 25.779 189.619 25.9134 189.204 26C188.789 26.0911 188.284 26.1367 187.687 26.1367ZM195.664 24.5029C196.193 24.5029 196.58 24.3525 196.826 24.0518C197.072 23.7464 197.207 23.2155 197.229 22.459V22.2061C197.229 21.3857 197.102 20.7979 196.847 20.4424C196.596 20.0869 196.19 19.9092 195.63 19.9092C194.65 19.9092 194.16 20.6794 194.16 22.2197C194.16 22.9854 194.281 23.5573 194.522 23.9355C194.769 24.3138 195.149 24.5029 195.664 24.5029ZM194.919 26.1367C194.017 26.1367 193.31 25.7904 192.8 25.0977C192.289 24.4004 192.034 23.432 192.034 22.1924C192.034 20.9437 192.294 19.9684 192.813 19.2666C193.338 18.5648 194.053 18.2139 194.96 18.2139C195.443 18.2139 195.865 18.305 196.225 18.4873C196.585 18.6696 196.901 18.9521 197.175 19.335H197.229L197.414 18.3574H199.178V29.3633H197.086V26.1572C197.086 25.8792 197.116 25.4964 197.175 25.0088H197.086C196.863 25.3779 196.566 25.6582 196.197 25.8496C195.828 26.041 195.402 26.1367 194.919 26.1367ZM206.772 26L206.492 25.0225H206.383C206.16 25.3779 205.843 25.6536 205.433 25.8496C205.022 26.041 204.555 26.1367 204.031 26.1367C203.133 26.1367 202.457 25.8975 202.001 25.4189C201.545 24.9359 201.317 24.2432 201.317 23.3408V18.3574H203.402V22.8213C203.402 23.3727 203.5 23.7874 203.696 24.0654C203.892 24.3389 204.204 24.4756 204.633 24.4756C205.216 24.4756 205.638 24.2819 205.897 23.8945C206.157 23.5026 206.287 22.8555 206.287 21.9531V18.3574H208.372V26H206.772ZM213.725 19.6973C213.283 19.6973 212.936 19.8385 212.686 20.1211C212.435 20.3991 212.291 20.7956 212.255 21.3105H215.181C215.172 20.7956 215.037 20.3991 214.777 20.1211C214.518 19.8385 214.167 19.6973 213.725 19.6973ZM214.019 26.1367C212.788 26.1367 211.826 25.7972 211.134 25.1182C210.441 24.4391 210.095 23.4775 210.095 22.2334C210.095 20.9528 210.414 19.9639 211.052 19.2666C211.694 18.5648 212.581 18.2139 213.711 18.2139C214.791 18.2139 215.632 18.5215 216.233 19.1367C216.835 19.752 217.136 20.6019 217.136 21.6865V22.6982H212.207C212.23 23.2907 212.405 23.7533 212.733 24.0859C213.062 24.4186 213.522 24.585 214.114 24.585C214.575 24.585 215.01 24.5371 215.42 24.4414C215.83 24.3457 216.258 24.193 216.705 23.9834V25.5967C216.34 25.779 215.951 25.9134 215.536 26C215.121 26.0911 214.616 26.1367 214.019 26.1367Z" fill="#3366CC"/>
<path d="M26.6654 13.668H19.9987C19.5567 13.668 19.1327 13.8436 18.8202 14.1561C18.5076 14.4687 18.332 14.8926 18.332 15.3346V28.668C18.332 29.11 18.5076 29.5339 18.8202 29.8465C19.1327 30.159 19.5567 30.3346 19.9987 30.3346H29.9987C30.4407 30.3346 30.8646 30.159 31.1772 29.8465C31.4898 29.5339 31.6654 29.11 31.6654 28.668V18.668L26.6654 13.668Z" stroke="#3366CC" stroke-linecap="round" stroke-linejoin="round"/>
<path d="M26.668 13.668V18.668H31.668" stroke="#3366CC" stroke-linecap="round" stroke-linejoin="round"/>
<path d="M25 27V22" stroke="#3366CC" stroke-linecap="round" stroke-linejoin="round"/>
<path d="M22.5 24.5H27.5" stroke="#3366CC" stroke-linecap="round" stroke-linejoin="round"/>
</svg>
