<svg width="160" height="40" viewBox="0 0 160 40" fill="none" xmlns="http://www.w3.org/2000/svg">
<rect x="0.5" y="0.5" width="159" height="39" rx="2.5" fill="white" stroke="#3366CC"/>
<path d="M41.6654 11.668H34.9987C34.5567 11.668 34.1327 11.8436 33.8202 12.1561C33.5076 12.4687 33.332 12.8926 33.332 13.3346V26.668C33.332 27.11 33.5076 27.5339 33.8202 27.8465C34.1327 28.159 34.5567 28.3346 34.9987 28.3346H44.9987C45.4407 28.3346 45.8646 28.159 46.1772 27.8465C46.4898 27.5339 46.6654 27.11 46.6654 26.668V16.668L41.6654 11.668Z" stroke="#3366CC" stroke-linecap="round" stroke-linejoin="round"/>
<path d="M41.668 11.668V16.668H46.668" stroke="#3366CC" stroke-linecap="round" stroke-linejoin="round"/>
<path d="M40 25V20" stroke="#3366CC" stroke-linecap="round" stroke-linejoin="round"/>
<path d="M37.5 22.5H42.5" stroke="#3366CC" stroke-linecap="round" stroke-linejoin="round"/>
<path d="M61.1783 24.084C62.3543 24.084 63.2923 23.72 63.9923 22.978C64.6923 22.236 65.0423 21.228 65.0423 19.954V14.06H63.8243V19.87C63.8243 20.822 63.5723 21.564 63.0823 22.11C62.5923 22.67 61.9623 22.936 61.1783 22.936C60.3663 22.936 59.7363 22.656 59.2603 22.096C58.7843 21.536 58.5463 20.794 58.5463 19.87V14.06H57.3283V19.954C57.3283 21.242 57.6783 22.264 58.3783 22.992C59.0783 23.72 60.0163 24.084 61.1783 24.084ZM67.1851 26.772H68.3191V22.824H68.3331C68.8651 23.664 69.6771 24.084 70.7551 24.084C71.7071 24.084 72.4911 23.776 73.1211 23.132C73.7511 22.488 74.0731 21.662 74.0731 20.64C74.0731 19.632 73.7511 18.778 73.1351 18.106C72.5051 17.434 71.7071 17.098 70.7551 17.098C69.6911 17.098 68.8791 17.532 68.3331 18.386H68.3191V17.182H67.1851V26.772ZM70.6011 23.048C69.9291 23.048 69.3831 22.824 68.9351 22.376C68.4871 21.928 68.2631 21.354 68.2631 20.64C68.2631 19.94 68.4731 19.338 68.9071 18.862C69.3411 18.386 69.9011 18.134 70.5871 18.134C71.2451 18.134 71.8051 18.372 72.2531 18.834C72.7011 19.31 72.9251 19.912 72.9251 20.64C72.9251 21.34 72.7011 21.914 72.2671 22.362C71.8331 22.824 71.2731 23.048 70.6011 23.048ZM75.8687 24H77.0027V13.696H75.8687V24ZM82.3103 24.084C83.3183 24.084 84.1583 23.762 84.8303 23.118C85.4883 22.474 85.8243 21.634 85.8243 20.598C85.8243 19.576 85.4883 18.736 84.8303 18.078C84.1583 17.434 83.3183 17.098 82.3103 17.098C81.2603 17.098 80.4063 17.434 79.7623 18.106C79.1043 18.778 78.7823 19.604 78.7823 20.598C78.7823 21.606 79.1043 22.432 79.7623 23.09C80.4063 23.762 81.2603 24.084 82.3103 24.084ZM82.3103 23.048C81.6103 23.048 81.0503 22.824 80.6023 22.348C80.1543 21.872 79.9443 21.298 79.9443 20.598C79.9443 19.912 80.1543 19.324 80.6023 18.848C81.0363 18.372 81.6103 18.134 82.3103 18.134C82.9683 18.134 83.5283 18.372 83.9763 18.834C84.4243 19.296 84.6623 19.884 84.6623 20.598C84.6623 21.326 84.4243 21.914 83.9763 22.362C83.5283 22.824 82.9683 23.048 82.3103 23.048ZM90.3852 24.084C91.4772 24.084 92.2892 23.65 92.8212 22.768H92.8352V24H93.9272V17.182H92.7932V18.386L92.7652 18.4C92.5132 17.994 92.1912 17.672 91.7712 17.448C91.3512 17.224 90.8892 17.098 90.3852 17.098C89.4192 17.098 88.6212 17.434 88.0052 18.106C87.3752 18.778 87.0672 19.632 87.0672 20.64C87.0672 21.662 87.3752 22.488 88.0052 23.132C88.6352 23.776 89.4332 24.084 90.3852 24.084ZM90.5532 23.048C89.8532 23.048 89.2932 22.824 88.8592 22.362C88.4252 21.914 88.2152 21.34 88.2152 20.64C88.2152 19.912 88.4392 19.31 88.8872 18.834C89.3352 18.372 89.8812 18.134 90.5532 18.134C91.2112 18.134 91.7572 18.386 92.1912 18.862C92.6112 19.338 92.8352 19.94 92.8352 20.64C92.8352 21.354 92.6112 21.928 92.1772 22.376C91.7292 22.824 91.1972 23.048 90.5532 23.048ZM98.8624 24.084C99.9684 24.084 100.794 23.636 101.326 22.74H101.34V24H102.432V13.696H101.298V18.4H101.284C100.738 17.532 99.9264 17.098 98.8484 17.098C97.8964 17.098 97.0984 17.448 96.4684 18.12C95.8244 18.792 95.5164 19.632 95.5164 20.64C95.5164 21.662 95.8244 22.488 96.4684 23.132C97.0984 23.776 97.8964 24.084 98.8624 24.084ZM99.0164 23.048C98.3164 23.048 97.7564 22.824 97.3224 22.362C96.8884 21.914 96.6784 21.34 96.6784 20.64C96.6784 19.912 96.9024 19.31 97.3504 18.834C97.7984 18.372 98.3584 18.134 99.0304 18.134C99.7024 18.134 100.248 18.386 100.682 18.862C101.116 19.338 101.34 19.94 101.34 20.64C101.34 21.354 101.116 21.928 100.668 22.376C100.22 22.824 99.6604 23.048 99.0164 23.048ZM108.533 24H109.751V19.772H114.091V18.666H109.751V15.166H114.875V14.06H108.533V24ZM116.898 15.936C117.122 15.936 117.318 15.866 117.486 15.698C117.64 15.544 117.724 15.348 117.724 15.124C117.724 14.9 117.64 14.718 117.486 14.55C117.318 14.396 117.122 14.312 116.898 14.312C116.66 14.312 116.464 14.396 116.31 14.55C116.142 14.718 116.072 14.9 116.072 15.124C116.072 15.348 116.142 15.544 116.31 15.698C116.464 15.866 116.66 15.936 116.898 15.936ZM116.324 24H117.458V17.182H116.324V24ZM119.755 24H120.889V13.696H119.755V24ZM129.165 20.472C129.165 19.492 128.871 18.694 128.283 18.05C127.695 17.42 126.953 17.098 126.029 17.098C125.049 17.098 124.237 17.434 123.607 18.078C122.977 18.736 122.669 19.576 122.669 20.598C122.669 21.634 122.977 22.474 123.621 23.118C124.265 23.762 125.091 24.084 126.113 24.084C127.317 24.084 128.255 23.664 128.927 22.81L128.129 22.138C127.625 22.754 126.967 23.048 126.155 23.048C125.511 23.048 124.979 22.866 124.559 22.474C124.139 22.096 123.887 21.578 123.817 20.934H129.137C129.137 20.92 129.137 20.85 129.151 20.738C129.151 20.626 129.165 20.542 129.165 20.472ZM126.015 18.134C126.561 18.134 127.009 18.316 127.373 18.652C127.723 18.988 127.947 19.45 128.031 20.01H123.845C123.943 19.436 124.195 18.974 124.587 18.638C124.979 18.302 125.455 18.134 126.015 18.134Z" fill="#3366CC"/>
</svg>
