<svg width="200" height="40" viewBox="0 0 200 40" fill="none" xmlns="http://www.w3.org/2000/svg">
<rect x="0.5" y="0.5" width="199" height="39" rx="4.5" fill="white" stroke="#3366CC"/>
<path d="M54.1178 26.108C55.6298 26.108 56.8358 25.64 57.7358 24.686C58.6358 23.732 59.0858 22.436 59.0858 20.798V13.22H57.5198V20.69C57.5198 21.914 57.1958 22.868 56.5658 23.57C55.9358 24.29 55.1258 24.632 54.1178 24.632C53.0738 24.632 52.2638 24.272 51.6518 23.552C51.0398 22.832 50.7338 21.878 50.7338 20.69V13.22H49.1678V20.798C49.1678 22.454 49.6178 23.768 50.5178 24.704C51.4178 25.64 52.6238 26.108 54.1178 26.108ZM62.2008 29.564H63.6588V24.488H63.6768C64.3608 25.568 65.4048 26.108 66.7908 26.108C68.0148 26.108 69.0228 25.712 69.8328 24.884C70.6428 24.056 71.0568 22.994 71.0568 21.68C71.0568 20.384 70.6428 19.286 69.8508 18.422C69.0408 17.558 68.0148 17.126 66.7908 17.126C65.4228 17.126 64.3788 17.684 63.6768 18.782H63.6588V17.234H62.2008V29.564ZM66.5928 24.776C65.7288 24.776 65.0268 24.488 64.4508 23.912C63.8748 23.336 63.5868 22.598 63.5868 21.68C63.5868 20.78 63.8568 20.006 64.4148 19.394C64.9728 18.782 65.6928 18.458 66.5748 18.458C67.4208 18.458 68.1408 18.764 68.7168 19.358C69.2928 19.97 69.5808 20.744 69.5808 21.68C69.5808 22.58 69.2928 23.318 68.7348 23.894C68.1768 24.488 67.4568 24.776 66.5928 24.776ZM73.7254 26H75.1834V12.752H73.7254V26ZM82.3675 26.108C83.6635 26.108 84.7435 25.694 85.6075 24.866C86.4535 24.038 86.8855 22.958 86.8855 21.626C86.8855 20.312 86.4535 19.232 85.6075 18.386C84.7435 17.558 83.6635 17.126 82.3675 17.126C81.0175 17.126 79.9195 17.558 79.0915 18.422C78.2455 19.286 77.8315 20.348 77.8315 21.626C77.8315 22.922 78.2455 23.984 79.0915 24.83C79.9195 25.694 81.0175 26.108 82.3675 26.108ZM82.3675 24.776C81.4675 24.776 80.7475 24.488 80.1715 23.876C79.5955 23.264 79.3255 22.526 79.3255 21.626C79.3255 20.744 79.5955 19.988 80.1715 19.376C80.7295 18.764 81.4675 18.458 82.3675 18.458C83.2135 18.458 83.9335 18.764 84.5095 19.358C85.0855 19.952 85.3915 20.708 85.3915 21.626C85.3915 22.562 85.0855 23.318 84.5095 23.894C83.9335 24.488 83.2135 24.776 82.3675 24.776ZM93.1094 26.108C94.5134 26.108 95.5574 25.55 96.2414 24.416H96.2594V26H97.6634V17.234H96.2054V18.782L96.1694 18.8C95.8454 18.278 95.4314 17.864 94.8914 17.576C94.3514 17.288 93.7574 17.126 93.1094 17.126C91.8674 17.126 90.8414 17.558 90.0494 18.422C89.2394 19.286 88.8434 20.384 88.8434 21.68C88.8434 22.994 89.2394 24.056 90.0494 24.884C90.8594 25.712 91.8854 26.108 93.1094 26.108ZM93.3254 24.776C92.4254 24.776 91.7054 24.488 91.1474 23.894C90.5894 23.318 90.3194 22.58 90.3194 21.68C90.3194 20.744 90.6074 19.97 91.1834 19.358C91.7594 18.764 92.4614 18.458 93.3254 18.458C94.1714 18.458 94.8734 18.782 95.4314 19.394C95.9714 20.006 96.2594 20.78 96.2594 21.68C96.2594 22.598 95.9714 23.336 95.4134 23.912C94.8374 24.488 94.1534 24.776 93.3254 24.776ZM104.369 26.108C105.791 26.108 106.853 25.532 107.537 24.38H107.555V26H108.959V12.752H107.501V18.8H107.483C106.781 17.684 105.737 17.126 104.351 17.126C103.127 17.126 102.101 17.576 101.291 18.44C100.463 19.304 100.067 20.384 100.067 21.68C100.067 22.994 100.463 24.056 101.291 24.884C102.101 25.712 103.127 26.108 104.369 26.108ZM104.567 24.776C103.667 24.776 102.947 24.488 102.389 23.894C101.831 23.318 101.561 22.58 101.561 21.68C101.561 20.744 101.849 19.97 102.425 19.358C103.001 18.764 103.721 18.458 104.585 18.458C105.449 18.458 106.151 18.782 106.709 19.394C107.267 20.006 107.555 20.78 107.555 21.68C107.555 22.598 107.267 23.336 106.691 23.912C106.115 24.488 105.395 24.776 104.567 24.776ZM117.522 26H119.088V21.122H121.716C123.084 21.122 124.182 20.798 124.992 20.132C125.802 19.484 126.216 18.494 126.216 17.18C126.216 15.992 125.856 15.02 125.172 14.3C124.47 13.58 123.408 13.22 121.986 13.22H117.522V26ZM119.088 19.7V14.642H121.824C122.688 14.642 123.354 14.858 123.858 15.29C124.344 15.722 124.596 16.352 124.596 17.144C124.596 17.936 124.344 18.548 123.84 19.016C123.336 19.484 122.58 19.7 121.572 19.7H119.088ZM126.645 26H128.283L129.417 22.886H135.123L136.275 26H137.913L133.053 13.22H131.487L126.645 26ZM129.921 21.518L132.243 15.11H132.279L134.637 21.518H129.921ZM140.303 26H141.869V15.938H141.905L149.051 26H150.653V13.22H149.087V23.39H149.069L141.851 13.22H140.303V26Z" fill="#3366CC"/>
</svg>
