<svg width="90" height="40" viewBox="0 0 90 40" fill="none" xmlns="http://www.w3.org/2000/svg">
<rect x="0.5" y="0.5" width="89" height="39" rx="2.5" fill="white" stroke="#3366CC"/>
<path d="M15.6654 11.668H8.9987C8.55667 11.668 8.13275 11.8436 7.82019 12.1561C7.50763 12.4687 7.33203 12.8926 7.33203 13.3346V26.668C7.33203 27.11 7.50763 27.5339 7.82019 27.8465C8.13275 28.159 8.55667 28.3346 8.9987 28.3346H18.9987C19.4407 28.3346 19.8646 28.159 20.1772 27.8465C20.4898 27.5339 20.6654 27.11 20.6654 26.668V16.668L15.6654 11.668Z" stroke="#3366CC" stroke-linecap="round" stroke-linejoin="round"/>
<path d="M15.668 11.668V16.668H20.668" stroke="#3366CC" stroke-linecap="round" stroke-linejoin="round"/>
<path d="M14 25V20" stroke="#3366CC" stroke-linecap="round" stroke-linejoin="round"/>
<path d="M11.5 22.5H16.5" stroke="#3366CC" stroke-linecap="round" stroke-linejoin="round"/>
<path d="M35.317 24.084C36.493 24.084 37.431 23.72 38.131 22.978C38.831 22.236 39.181 21.228 39.181 19.954V14.06H37.963V19.87C37.963 20.822 37.711 21.564 37.221 22.11C36.731 22.67 36.101 22.936 35.317 22.936C34.505 22.936 33.875 22.656 33.399 22.096C32.923 21.536 32.685 20.794 32.685 19.87V14.06H31.467V19.954C31.467 21.242 31.817 22.264 32.517 22.992C33.217 23.72 34.155 24.084 35.317 24.084ZM41.3238 26.772H42.4578V22.824H42.4718C43.0038 23.664 43.8158 24.084 44.8938 24.084C45.8458 24.084 46.6298 23.776 47.2598 23.132C47.8898 22.488 48.2118 21.662 48.2118 20.64C48.2118 19.632 47.8898 18.778 47.2738 18.106C46.6438 17.434 45.8458 17.098 44.8938 17.098C43.8298 17.098 43.0178 17.532 42.4718 18.386H42.4578V17.182H41.3238V26.772ZM44.7398 23.048C44.0678 23.048 43.5218 22.824 43.0738 22.376C42.6258 21.928 42.4018 21.354 42.4018 20.64C42.4018 19.94 42.6118 19.338 43.0458 18.862C43.4798 18.386 44.0398 18.134 44.7258 18.134C45.3838 18.134 45.9438 18.372 46.3918 18.834C46.8398 19.31 47.0638 19.912 47.0638 20.64C47.0638 21.34 46.8398 21.914 46.4058 22.362C45.9718 22.824 45.4118 23.048 44.7398 23.048ZM50.0074 24H51.1414V13.696H50.0074V24ZM56.449 24.084C57.457 24.084 58.297 23.762 58.969 23.118C59.627 22.474 59.963 21.634 59.963 20.598C59.963 19.576 59.627 18.736 58.969 18.078C58.297 17.434 57.457 17.098 56.449 17.098C55.399 17.098 54.545 17.434 53.901 18.106C53.243 18.778 52.921 19.604 52.921 20.598C52.921 21.606 53.243 22.432 53.901 23.09C54.545 23.762 55.399 24.084 56.449 24.084ZM56.449 23.048C55.749 23.048 55.189 22.824 54.741 22.348C54.293 21.872 54.083 21.298 54.083 20.598C54.083 19.912 54.293 19.324 54.741 18.848C55.175 18.372 55.749 18.134 56.449 18.134C57.107 18.134 57.667 18.372 58.115 18.834C58.563 19.296 58.801 19.884 58.801 20.598C58.801 21.326 58.563 21.914 58.115 22.362C57.667 22.824 57.107 23.048 56.449 23.048ZM64.5238 24.084C65.6158 24.084 66.4278 23.65 66.9598 22.768H66.9738V24H68.0658V17.182H66.9318V18.386L66.9038 18.4C66.6518 17.994 66.3298 17.672 65.9098 17.448C65.4898 17.224 65.0278 17.098 64.5238 17.098C63.5578 17.098 62.7598 17.434 62.1438 18.106C61.5138 18.778 61.2058 19.632 61.2058 20.64C61.2058 21.662 61.5138 22.488 62.1438 23.132C62.7738 23.776 63.5718 24.084 64.5238 24.084ZM64.6918 23.048C63.9918 23.048 63.4318 22.824 62.9978 22.362C62.5638 21.914 62.3538 21.34 62.3538 20.64C62.3538 19.912 62.5778 19.31 63.0258 18.834C63.4738 18.372 64.0198 18.134 64.6918 18.134C65.3498 18.134 65.8958 18.386 66.3298 18.862C66.7498 19.338 66.9738 19.94 66.9738 20.64C66.9738 21.354 66.7498 21.928 66.3158 22.376C65.8678 22.824 65.3358 23.048 64.6918 23.048ZM73.0011 24.084C74.1071 24.084 74.9331 23.636 75.4651 22.74H75.4791V24H76.5711V13.696H75.4371V18.4H75.4231C74.8771 17.532 74.0651 17.098 72.9871 17.098C72.0351 17.098 71.2371 17.448 70.6071 18.12C69.9631 18.792 69.6551 19.632 69.6551 20.64C69.6551 21.662 69.9631 22.488 70.6071 23.132C71.2371 23.776 72.0351 24.084 73.0011 24.084ZM73.1551 23.048C72.4551 23.048 71.8951 22.824 71.4611 22.362C71.0271 21.914 70.8171 21.34 70.8171 20.64C70.8171 19.912 71.0411 19.31 71.4891 18.834C71.9371 18.372 72.4971 18.134 73.1691 18.134C73.8411 18.134 74.3871 18.386 74.8211 18.862C75.2551 19.338 75.4791 19.94 75.4791 20.64C75.4791 21.354 75.2551 21.928 74.8071 22.376C74.3591 22.824 73.7991 23.048 73.1551 23.048Z" fill="#3366CC"/>
</svg>
