<svg width="108" height="34" viewBox="0 0 108 34" fill="none" xmlns="http://www.w3.org/2000/svg">
<rect x="0.5" y="0.5" width="107" height="33" rx="4.5" fill="white"/>
<path d="M42.7843 21H43.8763L47.6283 11.06H46.3263L43.3443 19.236H43.3303L40.3483 11.06H39.0323L42.7843 21ZM49.5902 12.936C49.8142 12.936 50.0102 12.866 50.1782 12.698C50.3322 12.544 50.4162 12.348 50.4162 12.124C50.4162 11.9 50.3322 11.718 50.1782 11.55C50.0102 11.396 49.8142 11.312 49.5902 11.312C49.3522 11.312 49.1562 11.396 49.0022 11.55C48.8342 11.718 48.7642 11.9 48.7642 12.124C48.7642 12.348 48.8342 12.544 49.0022 12.698C49.1562 12.866 49.3522 12.936 49.5902 12.936ZM49.0162 21H50.1502V14.182H49.0162V21ZM58.4258 17.472C58.4258 16.492 58.1318 15.694 57.5438 15.05C56.9558 14.42 56.2138 14.098 55.2898 14.098C54.3098 14.098 53.4978 14.434 52.8678 15.078C52.2378 15.736 51.9298 16.576 51.9298 17.598C51.9298 18.634 52.2378 19.474 52.8818 20.118C53.5258 20.762 54.3518 21.084 55.3738 21.084C56.5778 21.084 57.5158 20.664 58.1878 19.81L57.3898 19.138C56.8858 19.754 56.2278 20.048 55.4158 20.048C54.7718 20.048 54.2398 19.866 53.8198 19.474C53.3998 19.096 53.1478 18.578 53.0778 17.934H58.3978C58.3978 17.92 58.3978 17.85 58.4118 17.738C58.4118 17.626 58.4258 17.542 58.4258 17.472ZM55.2758 15.134C55.8218 15.134 56.2698 15.316 56.6338 15.652C56.9838 15.988 57.2078 16.45 57.2918 17.01H53.1058C53.2038 16.436 53.4558 15.974 53.8478 15.638C54.2398 15.302 54.7158 15.134 55.2758 15.134ZM61.4263 21H62.4623L64.0303 16.002H64.0443L65.6123 21H66.6763L69.0283 14.182H67.8663L66.1583 19.306H66.1303L64.5343 14.182H63.5543L61.9863 19.306H61.9583L60.2363 14.182H59.0743L61.4263 21Z" fill="#3366CC"/>
<rect x="0.5" y="0.5" width="107" height="33" rx="4.5" stroke="#3366CC"/>
</svg>
