<svg width="116" height="75" viewBox="0 0 116 75" fill="none" xmlns="http://www.w3.org/2000/svg">
<path d="M26.651 59.0063L26.6508 59.0062C25.7088 58.5137 25.134 57.5299 25.134 56.4522V53.4345V53.262L25.2404 53.1262C25.4276 52.887 25.6268 52.6119 25.8344 52.3053L25.8345 52.3051C26.8661 50.7831 27.6946 49.0865 28.2977 47.2534L28.3643 47.0509L28.5566 46.9587C29.5835 46.4669 30.261 45.4005 30.261 44.1813V40.611C30.261 39.8701 29.9955 39.1511 29.5238 38.5898L29.4065 38.4503V38.2681V33.5205V33.4962L29.4089 33.472C29.4533 33.0167 29.6254 30.2692 27.7359 28.018L27.7359 28.018C26.1103 26.081 23.4317 25.0449 19.6526 25.0449C15.8735 25.0449 13.1948 26.081 11.5692 28.0171L26.651 59.0063ZM26.651 59.0063L34.8139 63.2692C34.814 63.2692 34.814 63.2692 34.814 63.2692C37.2694 64.552 38.806 67.1365 38.8068 70.0272C38.8068 70.0272 38.8068 70.0273 38.8068 70.0273V73.1358H0.5V69.8514C0.5 67.0745 1.949 64.5361 4.26451 63.2167L11.8875 58.8735L11.8878 58.8733C12.7752 58.3667 13.3166 57.4048 13.3166 56.3683V53.4148V53.2515L13.2202 53.1197C12.6662 52.3623 11.0701 49.9845 10.3093 46.8379L10.2706 46.6778L10.1444 46.5721C9.45316 45.9931 9.04411 45.1214 9.04411 44.1804V40.6101C9.04411 39.8692 9.30961 39.1502 9.78137 38.5889L9.89861 38.4494V38.2672V33.5196V33.4953M26.651 59.0063L9.89861 33.4953M9.89861 33.4953L9.89624 33.471M9.89861 33.4953L9.89624 33.471M9.89624 33.471C9.85187 33.0167 9.6797 30.2684 11.5691 28.0172L9.89624 33.471Z" fill="#3366CC" stroke="white"/>
<path d="M102.729 59.0063L102.729 59.0062C101.787 58.5137 101.212 57.5299 101.212 56.4522V53.4345V53.262L101.318 53.1262C101.506 52.887 101.705 52.6119 101.913 52.3053L101.913 52.3051C102.944 50.7831 103.773 49.0865 104.376 47.2534L104.442 47.0509L104.635 46.9587C105.662 46.4669 106.339 45.4005 106.339 44.1813V40.611C106.339 39.8701 106.074 39.1511 105.602 38.5898L105.485 38.4503V38.2681V33.5205V33.4962L105.487 33.472C105.531 33.0167 105.704 30.2692 103.814 28.018L103.814 28.018C102.188 26.081 99.5098 25.0449 95.7307 25.0449C91.9516 25.0449 89.273 26.081 87.6473 28.0171L102.729 59.0063ZM102.729 59.0063L110.892 63.2692C110.892 63.2692 110.892 63.2692 110.892 63.2692C113.347 64.552 114.884 67.1365 114.885 70.0272C114.885 70.0272 114.885 70.0273 114.885 70.0273V73.1358H76.5781V69.8514C76.5781 67.0745 78.0271 64.5361 80.3426 63.2167L87.9656 58.8735L87.966 58.8733C88.8534 58.3667 89.3947 57.4048 89.3947 56.3683V53.4148V53.2515L89.2983 53.1197C88.7444 52.3623 87.1482 49.9845 86.3874 46.8379L86.3487 46.6778L86.2225 46.5721C85.5313 45.9931 85.1222 45.1214 85.1222 44.1804V40.6101C85.1222 39.8692 85.3877 39.1502 85.8595 38.5889L85.9767 38.4494V38.2672V33.5196V33.4953M102.729 59.0063L85.9767 33.4953M85.9767 33.4953L85.9744 33.471M85.9767 33.4953L85.9744 33.471M85.9744 33.471C85.93 33.0167 85.7578 30.2684 87.6473 28.0172L85.9744 33.471Z" fill="#3366CC" stroke="white"/>
<path d="M86.6753 54.6392C85.6819 54.1137 85.0645 53.0579 85.0645 51.8833V47.9435C85.317 47.6172 85.5827 47.2455 85.8572 46.8353C87.2233 44.796 88.3182 42.5261 89.1142 40.0778C90.67 39.3238 91.6799 37.6983 91.6799 35.8629V31.2018C91.6799 30.0796 91.283 28.9924 90.5774 28.1429L86.6753 54.6392ZM86.6753 54.6392L97.2082 60.2047L86.6753 54.6392ZM102.207 69.6063V73.8175H52.4883V69.3766C52.4883 65.6958 54.3866 62.3303 57.4212 60.5807L67.2573 54.9104L67.2577 54.9102C68.356 54.2758 69.0258 53.0714 69.0258 51.7738V47.9178V47.7561L68.931 47.6249C68.2108 46.6285 66.1383 43.505 65.1498 39.3684L65.1117 39.2091L64.9868 39.1032C64.0609 38.3185 63.5129 37.1368 63.5129 35.8618V31.2006C63.5129 30.1954 63.8688 29.2212 64.5001 28.4612L64.6155 28.3223V28.1417V21.9435V21.9195L64.6132 21.8955C64.5548 21.2905 64.328 17.6476 66.8069 14.6593C68.9426 12.0856 72.4475 10.7266 77.3464 10.7266C82.2454 10.7266 85.7502 12.0856 87.8859 14.6604L88.2708 14.3412L87.8859 14.6604C90.3648 17.6487 90.1381 21.2905 90.0797 21.8968L90.0774 21.9207V21.9447V28.1429V28.3235L90.1927 28.4624C90.824 29.2223 91.1799 30.1966 91.1799 31.2018V35.8629C91.1799 37.5149 90.2722 38.961 88.8962 39.6278L88.7046 39.7207L88.6387 39.9232C87.8563 42.3297 86.7811 44.5577 85.4418 46.557L85.4417 46.5572C85.1722 46.9598 84.9132 47.3219 84.669 47.6375L84.5645 47.7726V47.9435V51.8833C84.5645 53.2329 85.2754 54.4643 86.4415 55.0812L86.4417 55.0813L96.9746 60.6467C96.9746 60.6467 96.9746 60.6467 96.9747 60.6467C100.192 62.3476 102.206 65.7749 102.207 69.6062C102.207 69.6063 102.207 69.6063 102.207 69.6063Z" fill="#33CCFF" stroke="white"/>
<path d="M48.6363 54.6392C47.6428 54.1137 47.0254 53.0579 47.0254 51.8833V47.9435C47.2779 47.6172 47.5436 47.2455 47.8182 46.8353C49.1842 44.796 50.2791 42.5261 51.0752 40.0778C52.6309 39.3238 53.6409 37.6983 53.6409 35.8629V31.2018C53.6409 30.0796 53.2439 28.9924 52.5383 28.1429L48.6363 54.6392ZM48.6363 54.6392L59.1692 60.2047L48.6363 54.6392ZM64.1677 69.6063V73.8175H14.4492V69.3766C14.4492 65.6958 16.3476 62.3303 19.3821 60.5807L29.2182 54.9104L29.2186 54.9102C30.317 54.2758 30.9868 53.0714 30.9868 51.7738V47.9178V47.7561L30.892 47.6249C30.1717 46.6285 28.0992 43.505 27.1107 39.3684L27.0727 39.2091L26.9477 39.1032C26.0219 38.3185 25.4739 37.1368 25.4739 35.8618V31.2006C25.4739 30.1954 25.8298 29.2212 26.4611 28.4612L26.5765 28.3223V28.1417V21.9435V21.9195L26.5741 21.8955C26.5157 21.2905 26.2889 17.6476 28.7678 14.6593C30.9036 12.0856 34.4084 10.7266 39.3074 10.7266C44.2063 10.7266 47.7111 12.0856 49.8469 14.6604L50.2317 14.3412L49.8469 14.6604C52.3257 17.6487 52.099 21.2905 52.0406 21.8968L52.0383 21.9207V21.9447V28.1429V28.3235L52.1537 28.4624C52.785 29.2223 53.1409 30.1966 53.1409 31.2018V35.8629C53.1409 37.5149 52.2331 38.961 50.8571 39.6278L50.6655 39.7207L50.5997 39.9232C49.8172 42.3297 48.7421 44.5577 47.4028 46.557L47.4026 46.5572C47.1332 46.9598 46.8742 47.3219 46.63 47.6375L46.5254 47.7726V47.9435V51.8833C46.5254 53.2329 47.2364 54.4643 48.4025 55.0812L48.4027 55.0813L58.9355 60.6467C58.9355 60.6467 58.9356 60.6467 58.9356 60.6467C62.1531 62.3476 64.1666 65.7749 64.1677 69.6062C64.1677 69.6063 64.1677 69.6063 64.1677 69.6063Z" fill="#33CCFF" stroke="white"/>
<path d="M88.2599 69.487V74.5H30.9336V69.2182C30.9336 64.8778 33.1335 60.9109 36.6473 58.8495L47.9588 52.214L47.9591 52.2138C49.1984 51.4854 49.9518 50.1045 49.9518 48.6191V44.1068V43.9473L49.8594 43.8173C49.0281 42.6471 46.6375 38.981 45.4969 34.1239L45.4597 33.9657L45.3366 33.8595C44.2539 32.9258 43.612 31.5182 43.612 29.9986V24.5441C43.612 23.3456 44.029 22.1851 44.7672 21.2807L44.8799 21.1427V20.9645V13.7114V13.6877L44.8777 13.6642C44.8098 12.9489 44.5467 8.6543 47.42 5.12963C49.8963 2.09305 53.9515 0.5 59.5955 0.5C65.2394 0.5 69.2946 2.09304 71.7709 5.13091L72.1584 4.815L71.7709 5.13093C74.6442 8.65561 74.3811 12.9489 74.3133 13.6656L74.311 13.6891V13.7127V20.9659V21.1441L74.4237 21.2821C75.162 22.1865 75.579 23.3469 75.579 24.5455V30C75.579 31.969 74.5154 33.6908 72.9073 34.4838L72.7168 34.5778L72.6522 34.7801C71.7499 37.6038 70.51 40.2186 68.9653 42.5651L68.9651 42.5652C68.6544 43.0377 68.3554 43.4631 68.0732 43.8342L67.9712 43.9683V44.1368V48.7473C67.9712 50.2924 68.7708 51.7042 70.0867 52.4125L70.0869 52.4127L82.1997 58.9253C85.9251 60.9292 88.2586 64.9692 88.2599 69.4868C88.2599 69.4869 88.2599 69.4869 88.2599 69.487Z" fill="#3366CC" stroke="white"/>
<path d="M76.9419 61.2557C76.6721 60.9653 76.3517 60.735 75.9991 60.5779C75.6464 60.4207 75.2685 60.3398 74.8868 60.3398C74.5051 60.3398 74.1271 60.4207 73.7745 60.5779C73.4218 60.735 73.1015 60.9653 72.8316 61.2557L72.2716 61.8579L71.7116 61.2557C71.1665 60.6695 70.4273 60.3401 69.6564 60.3401C68.8856 60.3401 68.1463 60.6695 67.6013 61.2557C67.0562 61.8418 66.75 62.6369 66.75 63.4659C66.75 64.2949 67.0562 65.0899 67.6013 65.6761L68.1613 66.2784L72.2716 70.6988L76.3819 66.2784L76.9419 65.6761C77.2119 65.3859 77.4261 65.0413 77.5722 64.6621C77.7183 64.2829 77.7935 63.8764 77.7935 63.4659C77.7935 63.0554 77.7183 62.6489 77.5722 62.2697C77.4261 61.8904 77.2119 61.5459 76.9419 61.2557Z" fill="#FF6666"/>
</svg>
