<svg width="18" height="20" viewBox="0 0 18 20" fill="none" xmlns="http://www.w3.org/2000/svg">
<g clip-path="url(#clip0_5822_43834)">
<path d="M14.7865 3.79297C13.1599 2.15234 10.9938 1.25 8.69177 1.25C3.94022 1.25 0.0737578 5.14062 0.0737578 9.92188C0.0737578 11.4492 0.46972 12.9414 1.22283 14.2578L0 18.75L4.5691 17.543C5.82686 18.2344 7.24379 18.5977 8.68789 18.5977H8.69177C13.4394 18.5977 17.3913 14.707 17.3913 9.92578C17.3913 7.60938 16.413 5.43359 14.7865 3.79297ZM8.69177 17.1367C7.40295 17.1367 6.1413 16.7891 5.0427 16.1328L4.78261 15.9766L2.07298 16.6914L2.79503 14.0312L2.62422 13.7578C1.90606 12.6094 1.5295 11.2852 1.5295 9.92188C1.5295 5.94922 4.74379 2.71484 8.69565 2.71484C10.6095 2.71484 12.4068 3.46484 13.7578 4.82812C15.1087 6.19141 15.9394 8 15.9356 9.92578C15.9356 13.9023 12.6397 17.1367 8.69177 17.1367ZM12.6203 11.7383C12.4068 11.6289 11.347 11.1055 11.1491 11.0352C10.9511 10.9609 10.8075 10.9258 10.6638 11.1445C10.5202 11.3633 10.1087 11.8477 9.98059 11.9961C9.85637 12.1406 9.72826 12.1602 9.51475 12.0508C8.24922 11.4141 7.41848 10.9141 6.58385 9.47266C6.36258 9.08984 6.80512 9.11719 7.21661 8.28906C7.28649 8.14453 7.25155 8.01953 7.1972 7.91016C7.14286 7.80078 6.71196 6.73438 6.53338 6.30078C6.3587 5.87891 6.18012 5.9375 6.04814 5.92969C5.92391 5.92188 5.78028 5.92188 5.63665 5.92188C5.49301 5.92188 5.26009 5.97656 5.06211 6.19141C4.86413 6.41016 4.30901 6.93359 4.30901 8C4.30901 9.06641 5.08152 10.0977 5.18634 10.2422C5.29503 10.3867 6.70419 12.5742 8.86646 13.5156C10.2329 14.1094 10.7686 14.1602 11.4519 14.0586C11.8672 13.9961 12.7252 13.5352 12.9037 13.0273C13.0823 12.5195 13.0823 12.0859 13.0279 11.9961C12.9775 11.8984 12.8338 11.8438 12.6203 11.7383Z" fill="white"/>
</g>
<defs>
<clipPath id="clip0_5822_43834">
<rect width="17.3913" height="20" fill="white"/>
</clipPath>
</defs>
</svg>
